<?xml version="1.0" encoding="utf-8"?>
<!-- Generator: Adobe Illustrator 24.0.1, SVG Export Plug-In . SVG Version: 6.00 Build 0)  -->
<svg version="1.1" id="Layer_1" xmlns="http://www.w3.org/2000/svg" xmlns:xlink="http://www.w3.org/1999/xlink" x="0px" y="0px"
	 viewBox="0 0 400 400" style="enable-background:new 0 0 400 400;" xml:space="preserve">
<style type="text/css">
	.st0{display:none;fill:#333333;}
	.st1{fill:#333333;}
</style>
<g>
	<path class="st0" d="M0,0c133.3,0,266.7,0,400,0c0,133.3,0,266.7,0,400c-133.3,0-266.7,0-400,0C0,266.7,0,133.3,0,0z M121.2,201.1
		c11.7,8.9,24.8,13.6,39.4,13.6c14.7,0,27.9-4.7,39.6-13.7c11.7,8.9,24.8,13.6,39.4,13.7c14.7,0,27.9-4.7,39.6-13.6
		c13.8,10.5,29.3,15.1,46.6,13.2c17.3-1.9,31.6-9.8,42.5-23.3c19.5-24,18.8-58.6-1.5-81.8c-10.1-11.6-22.9-18.8-38.1-21.1
		c-18.3-2.8-34.8,1.7-49.6,12.9c-11.7-9-24.8-13.7-39.6-13.6c-14.7,0-27.9,4.7-39.5,13.7c-11.7-9-24.8-13.7-39.5-13.7
		c-14.7,0-27.9,4.7-39.5,13.6c-27.4-21.5-66-16.8-87.7,8.3c-20.9,24.2-20.8,60,0.4,84C55.8,218.2,94,222.4,121.2,201.1z
		 M131.5,300.3c2,3.3,4.1,6.6,6,9.9c0.5,0.8,1,1.1,2,1.1c6.8,0,13.6,0,20.3,0c0.4,0,0.7-0.1,1.3-0.2c-0.4-0.7-0.8-1.2-1.1-1.7
		c-3.8-5.7-7.6-11.5-11.5-17.2c-10.2-15.3-20.4-30.6-30.6-45.9c-0.6-0.9-1.2-1.4-2.4-1.3c-7.2,0.1-14.3,0-21.5,0
		c-0.5,0-0.9,0.1-1.7,0.1c2.4,2.8,4.5,5.4,6.7,8c-4,5.3-38,56.6-38.4,58c0.2,0,0.4,0.1,0.6,0.1c6.7,0,13.4,0,20.2,0
		c0.8,0,1.3-0.3,1.7-1c2-3.3,4-6.6,6-10C103.4,300.3,117.5,300.3,131.5,300.3z M268,263.8c-4.3-2-8.6-2.1-12.9-1.8
		c-1.7,0.1-3.4,0.3-5.1,0.6c-5.6,1-10.8,2.9-15.6,6.1c-7.9,5.3-11.5,14.1-9.3,23.2c1.5,6.4,5.3,11.3,10.9,14.8
		c3.2,2,6.8,3.4,10.4,4.3c9,2.2,18,2.5,27.1,0.9c5.1-0.9,9.9-2.3,14.4-4.9c11.2-6.3,14.5-19.5,9.9-29.8c-1.7-3.7-3.9-7.1-6.4-10.3
		c-5.4-6.9-10.9-13.9-16.4-20.8c-0.6-0.8-1.3-1.1-2.2-1.1c-6.7,0-13.3,0-20,0c-0.4,0-0.8,0.1-1.6,0.2
		C256.9,251.5,262.3,257.6,268,263.8z M157.5,263.7c0,0.8,0,1.4,0,2c0,8.2,0,16.4,0,24.7c0,0.8,0,1.7,0.1,2.5
		c0.3,7.5,4,12.8,10.5,16.2c3,1.5,6.2,2.5,9.5,3c6.8,1.2,13.7,1.1,20.6,0.2c4.2-0.5,8.2-1.7,11.8-3.9c4-2.5,7.1-5.8,8.6-10.5
		c0.7-2.1,0.9-4.3,0.9-6.6c0-8.7,0-17.4,0-26.2c0-0.5-0.1-1-0.1-1.4c-2.8-0.3-18-0.2-19.3,0.2c0,0.6,0,1.2,0,1.8
		c0,6.9,0,13.9,0,20.8c0,1.8-0.1,3.7-0.3,5.5c-0.3,4.1-2.7,6.5-6.5,7.8c-2.8,0.9-5.7,0.9-8.6,0.3c-4.4-0.9-6.9-3.6-7.4-8.1
		c-0.2-1.8-0.3-3.7-0.3-5.5c0-7.1,0-14.2,0-21.3c0-0.5-0.1-1-0.1-1.5C170.5,263.7,164.1,263.7,157.5,263.7z M305.3,263
		c0,16.2,0,32.2,0,48.2c6.6,0,13.1,0,19.8,0c0-16.1,0-32.1,0-48.2C318.5,263,312,263,305.3,263z"/>
	<path class="st1" d="M121.2,201.1c-27.2,21.2-65.4,17-87.3-7.8c-21.2-24-21.3-59.9-0.4-84c21.7-25.1,60.3-29.8,87.7-8.3
		c11.6-8.9,24.8-13.6,39.5-13.6c14.7,0,27.8,4.7,39.5,13.7c11.6-8.9,24.8-13.6,39.5-13.7c14.7,0,27.9,4.7,39.6,13.6
		c14.8-11.2,31.3-15.7,49.6-12.9c15.2,2.3,28,9.5,38.1,21.1c20.3,23.3,21,57.9,1.5,81.8c-11,13.5-25.2,21.4-42.5,23.3
		c-17.3,1.9-32.8-2.7-46.6-13.2c-11.7,9-24.9,13.7-39.6,13.6c-14.7,0-27.8-4.7-39.4-13.7c-11.7,9-24.8,13.7-39.6,13.7
		C146,214.8,132.9,210.1,121.2,201.1z M289.9,111.5c9,11.7,13.7,24.8,13.7,39.5c0,14.7-4.7,27.9-13.7,39.5c16.8,13,45,14.2,64-5
		c18.7-18.9,18.9-49.5,0.3-68.6C335.4,97.5,307,98.3,289.9,111.5z M110.6,111.5c-16.6-13-45.5-14.4-64.7,5.8
		c-19,20-17.7,51.7,2.8,70.2c20.1,18.2,47.6,14.7,61.9,3C92.9,168,92,135,110.6,111.5z M131.7,190.6c18.3,14.1,44.3,11.4,57.9-0.1
		c-8.9-11.6-13.6-24.7-13.6-39.4c0-14.7,4.7-27.9,13.7-39.5c-16.5-12.9-42.2-12.6-57.9,0C150.2,134.8,149.7,167.7,131.7,190.6z
		 M210.8,111.5c9,11.6,13.7,24.8,13.6,39.5c0,14.7-4.7,27.8-13.6,39.5c17.6,13.7,43.7,11.8,57.9-0.1c-8.9-11.6-13.6-24.7-13.6-39.4
		c0-14.7,4.7-27.9,13.7-39.5C253,99,227.3,98.5,210.8,111.5z M279.4,180c14-18.5,11.4-43.9-0.1-57.9
		C266.1,139,266.9,164.3,279.4,180z M200.4,180.1c6.6-9.2,9.8-19.5,9.4-30.8c-0.3-10.1-3.5-19.2-9.5-27.4
		C186.5,140.1,188.5,165.3,200.4,180.1z M121.2,122c-13.5,17.5-12.1,42.8,0,57.9C133.7,164.2,134.3,138.9,121.2,122z"/>
	<path class="st1" d="M131.5,300.3c-14.1,0-28.2,0-42.2,0c-2,3.3-4,6.7-6,10c-0.4,0.7-0.9,1-1.7,1c-6.7,0-13.4,0-20.2,0
		c-0.2,0-0.4,0-0.6-0.1c0.5-1.4,34.4-52.7,38.4-58c-2.2-2.6-4.3-5.2-6.7-8c0.7-0.1,1.2-0.1,1.7-0.1c7.2,0,14.3,0,21.5,0
		c1.2,0,1.8,0.4,2.4,1.3c10.2,15.3,20.4,30.6,30.6,45.9c3.8,5.7,7.6,11.5,11.5,17.2c0.3,0.5,0.7,1,1.1,1.7c-0.6,0.1-0.9,0.2-1.3,0.2
		c-6.8,0-13.6,0-20.3,0c-1,0-1.5-0.3-2-1.1C135.6,306.9,133.6,303.7,131.5,300.3z M123.7,287.6c-4.5-7.4-9-14.8-13.5-22.1
		c-4.3,7.4-8.7,14.8-13.3,22.1C105.9,287.6,114.8,287.6,123.7,287.6z"/>
	<path class="st1" d="M268,263.8c-5.6-6.2-11.1-12.3-16.7-18.6c0.7-0.1,1.2-0.2,1.6-0.2c6.7,0,13.3,0,20,0c1,0,1.6,0.3,2.2,1.1
		c5.4,7,10.9,13.9,16.4,20.8c2.5,3.2,4.7,6.6,6.4,10.3c4.7,10.3,1.3,23.5-9.9,29.8c-4.5,2.5-9.4,4-14.4,4.9
		c-9.1,1.6-18.1,1.3-27.1-0.9c-3.7-0.9-7.2-2.2-10.4-4.3c-5.5-3.5-9.4-8.3-10.9-14.8c-2.1-9.1,1.4-17.9,9.3-23.2
		c4.7-3.2,10-5.1,15.6-6.1c1.7-0.3,3.4-0.5,5.1-0.6C259.4,261.7,263.7,261.8,268,263.8z M262,273.7c-2.2,0.3-4.4,0.5-6.6,1
		c-4,1-7.4,3-9.8,6.4c-2.7,3.8-2.6,8.3,0.1,12.1c1.9,2.6,4.4,4.3,7.4,5.4c5.3,1.8,10.6,2.1,16.1,0.7c3.3-0.8,6.2-2.4,8.5-4.9
		c3.9-4.3,3.9-10.2,0.1-14.5c-2.1-2.4-4.7-4-7.8-5C267.5,274.2,264.8,273.9,262,273.7z"/>
	<path class="st1" d="M157.5,263.7c6.6,0,13,0,19.5,0c0,0.5,0.1,1,0.1,1.5c0,7.1,0,14.2,0,21.3c0,1.8,0.1,3.7,0.3,5.5
		c0.5,4.5,3,7.2,7.4,8.1c2.9,0.6,5.7,0.6,8.6-0.3c3.8-1.2,6.2-3.6,6.5-7.8c0.1-1.8,0.2-3.7,0.3-5.5c0-6.9,0-13.9,0-20.8
		c0-0.6,0-1.2,0-1.8c1.2-0.4,16.4-0.5,19.3-0.2c0,0.5,0.1,0.9,0.1,1.4c0,8.7,0,17.4,0,26.2c0,2.2-0.2,4.4-0.9,6.6
		c-1.4,4.7-4.5,7.9-8.6,10.5c-3.6,2.3-7.6,3.4-11.8,3.9c-6.9,0.9-13.7,0.9-20.6-0.2c-3.3-0.6-6.5-1.5-9.5-3
		c-6.6-3.4-10.2-8.7-10.5-16.2c0-0.8-0.1-1.7-0.1-2.5c0-8.2,0-16.4,0-24.7C157.5,265.1,157.5,264.5,157.5,263.7z"/>
	<path class="st1" d="M305.3,263c6.6,0,13.1,0,19.8,0c0,16.1,0,32.1,0,48.2c-6.6,0-13.1,0-19.8,0C305.3,295.1,305.3,279.2,305.3,263
		z"/>
</g>
</svg>
