<svg xmlns="http://www.w3.org/2000/svg" xmlns:xlink="http://www.w3.org/1999/xlink" xmlns:v="http://vecta.io" width="1800" height="850" viewBox="0 0 1800 850"><style><![CDATA[svg{stroke:#000;stroke-linecap:round;stroke-linejoin:round;fill:#fff;fill-rule:evenodd;font-family:Roboto;font-size:14px;text-anchor:middle}svg text{paint-order:stroke;white-space:pre}svg .Text\.cls{stroke:none}]]></style><defs><style>@import url("https://fonts.googleapis.com/css?family=Open+Sans:400,400i,700,700i");@import url("https://fonts.googleapis.com/css?family=Roboto:400,400i,700,700i");</style><g id="thick.end"><path d="M 0 0 L 4 5 L -4 5 Z" stroke="none"/></g></defs><g transform="translate(139.5 419.5)"><path d="M 1e-13 1e-13 L 1488.63 0" fill="none" stroke="#646464" stroke-width="6"/><use class="EndArrow.cls" fill="#646464" transform="scale(4.75) rotate(90 317.89 0)" x="317.89" xlink:href="#thick.end" y="0"/></g><ellipse cx="20" cy="20" fill="#3d85c6" rx="20" ry="20" stroke="#ffffff" stroke-width="7" transform="translate(1350.5 398.5)"/><g transform="translate(1295.5 319.5)"><rect fill="none" height="70" stroke="none" stroke-width="0" width="150" x="0" y="0"/><g class="Text.cls"><rect x="0" y="0" width="150" height="70" fill="none" stroke="none"/><text font-family="Open Sans" fill="#3d85c6" fill-opacity="1" font-weight="bold" font-size="60px"><tspan x="75" y="54.8">2027</tspan></text></g></g><g transform="translate(1131.5 59.5)"><rect fill="none" height="70" stroke="none" stroke-width="0" width="478" x="0" y="0"/><g class="Text.cls"><rect x="0" y="0" width="478" height="70" fill="none" stroke="none"/><text font-family="Open Sans" fill="#3d85c6" fill-opacity="1" font-size="40px"><tspan x="239" y="13.2">OBDonUDS mandatory </tspan><tspan x="239" y="61.2">(OBD2 phased out)</tspan></text></g></g><ellipse cx="20" cy="20" fill="#ff9900" rx="20" ry="20" stroke="#ffffff" stroke-width="7" transform="translate(857.64 398.5)"/><g transform="translate(802.5 459.5)"><rect fill="none" height="70" stroke="#ffffff" stroke-width="0" width="150" x="0" y="0"/><g class="Text.cls"><rect x="0" y="0" width="150" height="70" fill="none" stroke="none"/><text font-family="Open Sans" fill="#ff9900" fill-opacity="1" font-weight="bold" font-size="60px"><tspan x="75" y="54.8">2023</tspan></text></g></g><g transform="translate(628.5 671.5)"><rect fill="none" height="70" stroke="none" stroke-width="0" width="511" x="0" y="0"/><g class="Text.cls"><rect x="0" y="0" width="511" height="70" fill="none" stroke="none"/><text font-family="Open Sans" fill="#ff9900" fill-opacity="1" font-size="40px"><tspan x="255.5" y="42">OBDonUDS (SAE J1979-2) </tspan><tspan x="255.5" y="90">roll-out starts in US (OBD2 </tspan><tspan x="255.5" y="138">or OBDonUDS allowed)</tspan></text></g></g><path d="M 0 2.78 C 0 1.24 1.24 0 2.78 0 L 41.7 0 C 43.24 0 76.45 33.21 76.45 34.75 L 76.45 104.95 C 76.45 106.49 75.21 107.73 73.67 107.73 L 2.78 107.73 C 1.24 107.73 0 106.49 0 104.95 Z" fill="none" fill-opacity="1" stroke="none" stroke-opacity="1" stroke-width="1" transform="translate(1338.98 187.12)"/><path d="M 77.62 113.73 L 4.81 113.73 C 4.05 113.71 3.3 113.55 2.6 113.26 C 2.46 113.21 2.34 113.13 2.23 113.02 L 0.71 111.51 C 0.61 111.41 0.53 111.29 0.47 111.17 C 0.18 110.47 0.02 109.72 0 108.96 L 0 4.77 C 0.02 4.01 0.18 3.26 0.47 2.56 C 0.53 2.44 0.61 2.32 0.71 2.22 L 2.23 0.71 C 2.34 0.6 2.46 0.52 2.6 0.46 C 3.3 0.18 4.05 0.02 4.81 0 L 44.84 0 C 45.73 0.03 46.57 0.38 47.22 0.98 L 81.43 34.98 C 82.03 35.63 82.38 36.46 82.41 37.34 L 82.41 108.96 C 82.39 109.72 82.23 110.47 81.94 111.17 C 81.88 111.3 81.8 111.42 81.7 111.53 L 80.18 113.05 C 80.07 113.15 79.95 113.23 79.81 113.28 C 79.12 113.57 78.37 113.72 77.62 113.73 Z M 4.55 108.93 L 4.84 109.21 L 77.58 109.21 L 77.86 108.93 L 77.86 39.41 L 43.9 39.41 C 43.25 39.41 42.73 38.89 42.73 38.25 L 42.73 4.52 L 4.85 4.52 L 4.56 4.8 Z M 45.06 37.11 L 79.02 37.11 C 79.47 37.11 79.88 37.37 80.07 37.77 L 80.07 37.35 C 80.04 37.09 79.94 36.84 79.77 36.63 L 45.56 2.63 C 45.35 2.46 45.1 2.36 44.83 2.33 L 44.41 2.33 C 44.52 2.39 44.63 2.46 44.72 2.55 C 44.94 2.77 45.06 3.06 45.06 3.37 Z" fill="#3d85c6" fill-opacity="1" fill-rule="nonzero" stroke="none" stroke-linecap="butt" stroke-linejoin="miter" stroke-opacity="1" stroke-width="1" transform="translate(1335.5 184.5)"/><g transform="translate(1337.54 241.55)"><rect fill="none" fill-opacity="1" height="27.95" stroke="none" width="76.96" x="0" y="0"/><g class="Text.cls"><rect x="0" y="0" width="76.96" height="27.95" fill="none" stroke="none"/><text fill="#3d85c6" fill-opacity="1" font-family="Open Sans" font-size="18.000000000000004px"><tspan x="38.48" y="9.11">SAE </tspan><tspan x="38.48" y="30.71">J1979-2</tspan></text></g></g><rect height="10" rx="2" stroke="none" stroke-dasharray="1 2" width="31.71" x="0" y="0" transform="translate(1168.5 414.5)"/><path d="M 1e-13 1e-13 L 69.81 0" fill="none" stroke="#646464" stroke-width="6" transform="translate(1134.32 420.91) rotate(305 34.9 0)"/><path d="M 1e-13 1e-13 L 69.81 0" fill="none" stroke="#646464" stroke-width="6" transform="translate(1164.32 420.91) rotate(305 34.9 0)"/><ellipse cx="20" cy="20" fill="#3d85c6" rx="20" ry="20" stroke="#ffffff" stroke-width="7" transform="translate(1352.55 398.5)"/><g transform="translate(253 319.5)"><rect fill="none" height="70" stroke="none" stroke-width="0" width="150" x="0" y="0"/><g class="Text.cls"><rect x="0" y="0" width="150" height="70" fill="none" stroke="none"/><text font-family="Open Sans" fill="#3d85c6" fill-opacity="1" font-weight="bold" font-size="60px"><tspan x="75" y="54.8">2008</tspan></text></g></g><g transform="translate(54.5 59.5)"><rect fill="none" height="70" stroke="none" stroke-width="0" width="527" x="0" y="0"/><g class="Text.cls"><rect x="0" y="0" width="527" height="70" fill="none" stroke="none"/><text font-family="Open Sans" fill="#3d85c6" fill-opacity="1" font-size="40px"><tspan x="263.5" y="13.2">OBD2 via CAN </tspan><tspan x="263.5" y="61.2">mandatory in US cars</tspan></text></g></g><ellipse cx="20" cy="20" fill="#3d85c6" rx="20" ry="20" stroke="#ffffff" stroke-width="7" transform="translate(309.71 398.5)"/><rect fill="#ffffff" fill-opacity="0.71" height="18.62" stroke="#3d85c6" stroke-width="4" width="18.62" x="0" y="0" transform="translate(205.58 165.19)"/><rect fill="#ffffff" fill-opacity="0.71" height="18.62" stroke="#3d85c6" stroke-width="4" width="18.62" x="0" y="0" transform="translate(274.73 165.19)"/><rect fill="#ffffff" fill-opacity="0.71" height="18.62" stroke="#3d85c6" stroke-width="4" width="18.62" x="0" y="0" transform="translate(171 212.91)"/><rect fill="#ffffff" fill-opacity="0.71" height="18.62" stroke="#3d85c6" stroke-width="4" width="18.62" x="0" y="0" transform="translate(240.15 212.91)"/><path d="M 1e-13 1e-13 L 240 0" fill="#ffffff" fill-opacity="0.71" stroke="#3d85c6" stroke-width="4" transform="translate(99.5 198.13)"/><rect fill="#ffffff" fill-opacity="0.71" height="18.62" stroke="#3d85c6" stroke-width="4" width="18.62" x="0" y="0" transform="translate(136.42 165.19)"/><path d="M 1e-13 1e-13 L 0 13.85" fill="#ffffff" fill-opacity="0.71" stroke="#3d85c6" stroke-width="4" transform="translate(145.65 184.2)"/><path d="M 1e-13 1e-13 L 0 13.85" fill="#ffffff" fill-opacity="0.71" stroke="#3d85c6" stroke-width="4" transform="translate(214.88 184.2)"/><path d="M 1e-13 1e-13 L 0 13.85" fill="#ffffff" fill-opacity="0.71" stroke="#3d85c6" stroke-width="4" transform="translate(284.12 184.2)"/><path d="M 1e-13 1e-13 L 0 13.85" fill="#ffffff" fill-opacity="0.71" stroke="#3d85c6" stroke-width="4" transform="translate(179.81 198.29)"/><path d="M 1e-13 1e-13 L 0 13.85" fill="#ffffff" fill-opacity="0.71" stroke="#3d85c6" stroke-width="4" transform="translate(249.04 198.29)"/><path d="M 0 2.78 C 0 1.24 1.24 0 2.78 0 L 41.7 0 C 43.24 0 76.45 33.21 76.45 34.75 L 76.45 104.95 C 76.45 106.49 75.21 107.73 73.67 107.73 L 2.78 107.73 C 1.24 107.73 0 106.49 0 104.95 Z" fill="none" fill-opacity="1" stroke="none" stroke-opacity="1" transform="translate(800.57 528.29)"/><path d="M 77.62 113.73 L 4.81 113.73 C 4.05 113.71 3.3 113.55 2.6 113.26 C 2.46 113.21 2.34 113.13 2.23 113.02 L 0.71 111.51 C 0.61 111.41 0.53 111.29 0.47 111.17 C 0.18 110.47 0.02 109.72 0 108.96 L 0 4.77 C 0.02 4.01 0.18 3.26 0.47 2.56 C 0.53 2.44 0.61 2.32 0.71 2.22 L 2.23 0.71 C 2.34 0.6 2.46 0.52 2.6 0.46 C 3.3 0.18 4.05 0.02 4.81 0 L 44.84 0 C 45.73 0.03 46.57 0.38 47.22 0.98 L 81.43 34.98 C 82.03 35.63 82.38 36.46 82.41 37.34 L 82.41 108.96 C 82.39 109.72 82.23 110.47 81.94 111.17 C 81.88 111.3 81.8 111.42 81.7 111.53 L 80.18 113.05 C 80.07 113.15 79.95 113.23 79.81 113.28 C 79.12 113.57 78.37 113.72 77.62 113.73 Z M 4.55 108.93 L 4.84 109.21 L 77.58 109.21 L 77.86 108.93 L 77.86 39.41 L 43.9 39.41 C 43.25 39.41 42.73 38.89 42.73 38.25 L 42.73 4.52 L 4.85 4.52 L 4.56 4.8 Z M 45.06 37.11 L 79.02 37.11 C 79.47 37.11 79.88 37.37 80.07 37.77 L 80.07 37.35 C 80.04 37.09 79.94 36.84 79.77 36.63 L 45.56 2.63 C 45.35 2.46 45.1 2.36 44.83 2.33 L 44.41 2.33 C 44.52 2.39 44.63 2.46 44.72 2.55 C 44.94 2.77 45.06 3.06 45.06 3.37 Z" fill="#ff9900" fill-opacity="1" fill-rule="nonzero" stroke="none" stroke-linecap="butt" stroke-linejoin="miter" stroke-opacity="1" stroke-width="1" transform="translate(787.09 535.68)"/><g transform="translate(788.54 590.97)"><rect fill="none" fill-opacity="1" height="27.95" stroke="none" width="76.96" x="0" y="0"/><g class="Text.cls"><rect x="0" y="0" width="76.96" height="27.95" fill="none" stroke="none"/><text fill="#ff9900" fill-opacity="1" font-family="Open Sans" font-size="18.000000000000004px"><tspan x="38.48" y="9.11">SAE </tspan><tspan x="38.48" y="30.71">J1979</tspan></text></g></g><path d="M 77.62 113.73 L 4.81 113.73 C 4.05 113.71 3.3 113.55 2.6 113.26 C 2.46 113.21 2.34 113.13 2.23 113.02 L 0.71 111.51 C 0.61 111.41 0.53 111.29 0.47 111.17 C 0.18 110.47 0.02 109.72 0 108.96 L 0 4.77 C 0.02 4.01 0.18 3.26 0.47 2.56 C 0.53 2.44 0.61 2.32 0.71 2.22 L 2.23 0.71 C 2.34 0.6 2.46 0.52 2.6 0.46 C 3.3 0.18 4.05 0.02 4.81 0 L 44.84 0 C 45.73 0.03 46.57 0.38 47.22 0.98 L 81.43 34.98 C 82.03 35.63 82.38 36.46 82.41 37.34 L 82.41 108.96 C 82.39 109.72 82.23 110.47 81.94 111.17 C 81.88 111.3 81.8 111.42 81.7 111.53 L 80.18 113.05 C 80.07 113.15 79.95 113.23 79.81 113.28 C 79.12 113.57 78.37 113.72 77.62 113.73 Z M 4.55 108.93 L 4.84 109.21 L 77.58 109.21 L 77.86 108.93 L 77.86 39.41 L 43.9 39.41 C 43.25 39.41 42.73 38.89 42.73 38.25 L 42.73 4.52 L 4.85 4.52 L 4.56 4.8 Z M 45.06 37.11 L 79.02 37.11 C 79.47 37.11 79.88 37.37 80.07 37.77 L 80.07 37.35 C 80.04 37.09 79.94 36.84 79.77 36.63 L 45.56 2.63 C 45.35 2.46 45.1 2.36 44.83 2.33 L 44.41 2.33 C 44.52 2.39 44.63 2.46 44.72 2.55 C 44.94 2.77 45.06 3.06 45.06 3.37 Z" fill="#ff9900" fill-opacity="1" fill-rule="nonzero" stroke="none" stroke-linecap="butt" stroke-linejoin="miter" stroke-opacity="1" stroke-width="1" transform="translate(887.09 535.68)"/><g transform="translate(891.54 590.97)"><rect fill="none" fill-opacity="1" height="27.95" stroke="none" width="76.96" x="0" y="0"/><g class="Text.cls"><rect x="0" y="0" width="76.96" height="27.95" fill="none" stroke="none"/><text fill="#ff9900" fill-opacity="1" font-family="Open Sans" font-size="18.000000000000004px"><tspan x="38.48" y="9.11">SAE </tspan><tspan x="38.48" y="30.71">J1979-2</tspan></text></g></g><rect height="10" rx="2" stroke="none" stroke-dasharray="1 2" stroke-width="1" width="31.71" x="0" y="0" transform="translate(588.5 414.5)"/><path d="M 1e-13 1e-13 L 69.81 0" fill="none" stroke="#646464" stroke-width="6" transform="translate(554.32 420.91) rotate(305 34.9 0)"/><path d="M 1e-13 1e-13 L 69.81 0" fill="none" stroke="#646464" stroke-width="6" transform="translate(584.32 420.91) rotate(305 34.9 0)"/><path d="M 92.76 0.12 L 51.94 0.12 C 51.74 0.04 51.54 0 51.32 0 C 51.1 0 50.9 0.04 50.71 0.12 L 1.68 0.12 C 0.75 0.12 0 0.87 0 1.8 L 0 69.53 C 0 70.45 0.75 71.2 1.68 71.2 L 92.76 71.2 C 93.69 71.2 94.44 70.45 94.44 69.53 L 94.44 1.8 C 94.44 0.87 93.69 0.12 92.76 0.12 Z M 53 23.2 L 91.08 23.2 L 91.08 29.14 L 53 29.14 L 53 23.2 Z M 91.08 19.84 L 53 19.84 L 53 13.9 L 91.08 13.9 L 91.08 19.84 Z M 53 32.5 L 91.08 32.5 L 91.08 38.44 L 53 38.44 L 53 32.5 Z M 91.08 41.8 L 91.08 47.74 L 3.36 47.74 L 3.36 41.8 L 91.08 41.8 Z M 3.36 51.1 L 91.08 51.1 L 91.08 57.04 L 3.36 57.04 L 3.36 51.1 Z M 91.08 10.54 L 53 10.54 L 53 3.48 L 91.08 3.48 L 91.08 10.54 Z M 49.64 3.48 L 49.64 38.44 L 3.36 38.44 L 3.36 3.48 L 49.64 3.48 Z M 3.36 67.85 L 3.36 60.4 L 91.08 60.4 L 91.08 67.85 L 3.36 67.85 Z" fill="#3d85c6" fill-opacity="1" fill-rule="nonzero" stroke="none" stroke-linecap="butt" stroke-linejoin="miter" stroke-opacity="1" stroke-width="1" transform="translate(424.76 182.32)"/><path d="M 1.68 3.34 C 2.11 3.34 2.55 3.16 2.86 2.84 C 3.18 2.53 3.36 2.1 3.36 1.66 C 3.36 1.21 3.18 0.79 2.86 0.46 C 2.24 -0.15 1.11 -0.15 0.49 0.46 C 0.18 0.77 0 1.21 0 1.66 C 0 2.1 0.18 2.53 0.49 2.84 C 0.81 3.16 1.24 3.34 1.68 3.34 Z" fill="#3d85c6" fill-opacity="1" fill-rule="nonzero" stroke="none" stroke-linecap="butt" stroke-linejoin="miter" stroke-opacity="1" stroke-width="1" transform="translate(430.55 188.28)"/><path d="M 1.68 3.33 C 2.11 3.33 2.55 3.16 2.86 2.84 C 3.18 2.53 3.36 2.09 3.36 1.66 C 3.36 1.21 3.18 0.79 2.86 0.46 C 2.24 -0.16 1.12 -0.16 0.49 0.47 C 0.18 0.79 0 1.21 0 1.66 C 0 2.09 0.18 2.53 0.49 2.84 C 0.81 3.16 1.24 3.33 1.68 3.33 Z" fill="#3d85c6" fill-opacity="1" fill-rule="nonzero" stroke="none" stroke-linecap="butt" stroke-linejoin="miter" stroke-opacity="1" stroke-width="1" transform="translate(438.17 188.29)"/><path d="M 1.68 3.33 C 2.13 3.33 2.55 3.16 2.87 2.84 C 3.18 2.53 3.36 2.09 3.36 1.66 C 3.36 1.21 3.18 0.79 2.86 0.46 C 2.24 -0.16 1.12 -0.16 0.49 0.47 C 0.18 0.79 0 1.21 0 1.66 C 0 2.09 0.18 2.53 0.49 2.84 C 0.81 3.16 1.24 3.33 1.68 3.33 Z" fill="#3d85c6" fill-opacity="1" fill-rule="nonzero" stroke="none" stroke-linecap="butt" stroke-linejoin="miter" stroke-opacity="1" stroke-width="1" transform="translate(445.78 188.29)"/><path d="M 1.68 3.33 C 2.11 3.33 2.55 3.16 2.86 2.84 C 3.18 2.52 3.36 2.09 3.36 1.66 C 3.36 1.21 3.18 0.79 2.86 0.46 C 2.24 -0.16 1.12 -0.16 0.49 0.47 C 0.18 0.79 0 1.21 0 1.66 C 0 2.09 0.18 2.53 0.49 2.84 C 0.81 3.16 1.24 3.33 1.68 3.33 Z" fill="#3d85c6" fill-opacity="1" fill-rule="nonzero" stroke="none" stroke-linecap="butt" stroke-linejoin="miter" stroke-opacity="1" stroke-width="1" transform="translate(453.39 188.29)"/><path d="M 1.68 3.33 C 2.11 3.33 2.54 3.16 2.86 2.84 C 3.18 2.53 3.34 2.09 3.34 1.66 C 3.34 1.21 3.18 0.79 2.86 0.46 C 2.24 -0.16 1.12 -0.16 0.48 0.47 C 0.18 0.79 0 1.21 0 1.66 C 0 2.09 0.18 2.53 0.49 2.84 C 0.81 3.16 1.23 3.33 1.68 3.33 Z" fill="#3d85c6" fill-opacity="1" fill-rule="nonzero" stroke="none" stroke-linecap="butt" stroke-linejoin="miter" stroke-opacity="1" stroke-width="1" transform="translate(461.01 188.29)"/><path d="M 1.68 3.33 C 2.13 3.33 2.55 3.16 2.87 2.84 C 3.18 2.52 3.37 2.09 3.37 1.66 C 3.37 1.21 3.18 0.79 2.86 0.46 C 2.25 -0.16 1.13 -0.16 0.49 0.47 C 0.18 0.79 0 1.21 0 1.66 C 0 2.09 0.18 2.53 0.49 2.84 C 0.82 3.16 1.24 3.33 1.68 3.33 Z" fill="#3d85c6" fill-opacity="1" fill-rule="nonzero" stroke="none" stroke-linecap="butt" stroke-linejoin="miter" stroke-opacity="1" stroke-width="1" transform="translate(468.61 188.29)"/><path d="M 1.68 3.34 C 2.13 3.34 2.55 3.15 2.86 2.84 C 3.18 2.54 3.36 2.1 3.36 1.66 C 3.36 1.22 3.18 0.78 2.86 0.47 C 2.25 -0.16 1.12 -0.16 0.49 0.47 C 0.18 0.78 0 1.22 0 1.66 C 0 2.1 0.18 2.53 0.49 2.84 C 0.81 3.16 1.24 3.34 1.68 3.34 Z" fill="#3d85c6" fill-opacity="1" fill-rule="nonzero" stroke="none" stroke-linecap="butt" stroke-linejoin="miter" stroke-opacity="1" stroke-width="1" transform="translate(434.36 191.63)"/><path d="M 1.68 3.34 C 2.11 3.34 2.55 3.15 2.86 2.84 C 3.18 2.53 3.36 2.1 3.36 1.66 C 3.36 1.22 3.18 0.78 2.86 0.47 C 2.24 -0.16 1.12 -0.16 0.49 0.47 C 0.18 0.78 0 1.22 0 1.66 C 0 2.1 0.18 2.53 0.49 2.85 C 0.81 3.16 1.24 3.34 1.68 3.34 Z" fill="#3d85c6" fill-opacity="1" fill-rule="nonzero" stroke="none" stroke-linecap="butt" stroke-linejoin="miter" stroke-opacity="1" stroke-width="1" transform="translate(441.97 191.63)"/><path d="M 1.68 3.34 C 2.11 3.34 2.55 3.15 2.86 2.84 C 3.18 2.54 3.36 2.1 3.36 1.66 C 3.36 1.22 3.18 0.78 2.86 0.47 C 2.24 -0.16 1.11 -0.16 0.48 0.47 C 0.18 0.78 0 1.22 0 1.66 C 0 2.1 0.18 2.53 0.49 2.84 C 0.79 3.16 1.23 3.34 1.68 3.34 Z" fill="#3d85c6" fill-opacity="1" fill-rule="nonzero" stroke="none" stroke-linecap="butt" stroke-linejoin="miter" stroke-opacity="1" stroke-width="1" transform="translate(449.59 191.63)"/><path d="M 1.68 3.34 C 2.13 3.34 2.55 3.15 2.86 2.84 C 3.18 2.54 3.36 2.1 3.36 1.66 C 3.36 1.22 3.18 0.78 2.86 0.47 C 2.25 -0.16 1.12 -0.16 0.49 0.47 C 0.18 0.78 0 1.22 0 1.66 C 0 2.1 0.18 2.53 0.49 2.84 C 0.81 3.16 1.24 3.34 1.68 3.34 Z" fill="#3d85c6" fill-opacity="1" fill-rule="nonzero" stroke="none" stroke-linecap="butt" stroke-linejoin="miter" stroke-opacity="1" stroke-width="1" transform="translate(457.19 191.63)"/><path d="M 1.68 3.34 C 2.11 3.34 2.55 3.15 2.86 2.84 C 3.18 2.53 3.36 2.1 3.36 1.65 C 3.36 1.22 3.18 0.78 2.86 0.47 C 2.24 -0.16 1.11 -0.15 0.49 0.47 C 0.18 0.78 0 1.22 0 1.65 C 0 2.1 0.18 2.54 0.49 2.84 C 0.81 3.15 1.23 3.34 1.68 3.34 Z" fill="#3d85c6" fill-opacity="1" fill-rule="nonzero" stroke="none" stroke-linecap="butt" stroke-linejoin="miter" stroke-opacity="1" stroke-width="1" transform="translate(464.81 191.63)"/><path d="M 1.68 3.33 C 2.13 3.33 2.55 3.16 2.86 2.84 C 3.18 2.53 3.36 2.09 3.36 1.66 C 3.36 1.22 3.18 0.78 2.86 0.47 C 2.25 -0.16 1.11 -0.16 0.49 0.47 C 0.18 0.78 0 1.21 0 1.66 C 0 2.09 0.18 2.53 0.49 2.84 C 0.81 3.16 1.24 3.33 1.68 3.33 Z" fill="#3d85c6" fill-opacity="1" fill-rule="nonzero" stroke="none" stroke-linecap="butt" stroke-linejoin="miter" stroke-opacity="1" stroke-width="1" transform="translate(430.55 195)"/><path d="M 1.68 3.33 C 2.11 3.33 2.55 3.16 2.86 2.84 C 3.18 2.53 3.36 2.09 3.36 1.66 C 3.36 1.21 3.18 0.78 2.86 0.47 C 2.25 -0.16 1.11 -0.16 0.49 0.47 C 0.18 0.78 0 1.21 0 1.66 C 0 2.09 0.18 2.53 0.49 2.84 C 0.81 3.16 1.23 3.33 1.68 3.33 Z" fill="#3d85c6" fill-opacity="1" fill-rule="nonzero" stroke="none" stroke-linecap="butt" stroke-linejoin="miter" stroke-opacity="1" stroke-width="1" transform="translate(438.17 195)"/><path d="M 1.68 3.33 C 2.13 3.33 2.56 3.16 2.87 2.84 C 3.18 2.53 3.36 2.09 3.36 1.66 C 3.36 1.21 3.18 0.78 2.86 0.47 C 2.25 -0.16 1.12 -0.16 0.49 0.47 C 0.18 0.78 0 1.22 0 1.66 C 0 2.09 0.18 2.53 0.49 2.84 C 0.81 3.16 1.24 3.33 1.68 3.33 Z" fill="#3d85c6" fill-opacity="1" fill-rule="nonzero" stroke="none" stroke-linecap="butt" stroke-linejoin="miter" stroke-opacity="1" stroke-width="1" transform="translate(445.78 195)"/><path d="M 1.68 3.33 C 2.13 3.33 2.55 3.16 2.86 2.84 C 3.18 2.53 3.36 2.09 3.36 1.66 C 3.36 1.22 3.18 0.78 2.86 0.47 C 2.25 -0.16 1.11 -0.16 0.49 0.47 C 0.18 0.78 0 1.21 0 1.66 C 0 2.09 0.18 2.53 0.49 2.84 C 0.81 3.16 1.23 3.33 1.68 3.33 Z" fill="#3d85c6" fill-opacity="1" fill-rule="nonzero" stroke="none" stroke-linecap="butt" stroke-linejoin="miter" stroke-opacity="1" stroke-width="1" transform="translate(453.39 195)"/><path d="M 1.68 3.33 C 2.11 3.33 2.55 3.16 2.86 2.84 C 3.18 2.53 3.36 2.09 3.36 1.66 C 3.36 1.21 3.18 0.78 2.86 0.47 C 2.24 -0.16 1.11 -0.16 0.48 0.47 C 0.18 0.78 0 1.21 0 1.66 C 0 2.09 0.17 2.53 0.48 2.84 C 0.81 3.16 1.23 3.33 1.68 3.33 Z" fill="#3d85c6" fill-opacity="1" fill-rule="nonzero" stroke="none" stroke-linecap="butt" stroke-linejoin="miter" stroke-opacity="1" stroke-width="1" transform="translate(461.01 195)"/><path d="M 1.68 3.33 C 2.13 3.33 2.55 3.16 2.87 2.84 C 3.18 2.53 3.36 2.09 3.36 1.66 C 3.36 1.21 3.18 0.78 2.87 0.47 C 2.25 -0.16 1.12 -0.16 0.49 0.47 C 0.18 0.78 0 1.21 0 1.66 C 0 2.09 0.18 2.53 0.49 2.84 C 0.81 3.16 1.24 3.33 1.68 3.33 Z" fill="#3d85c6" fill-opacity="1" fill-rule="nonzero" stroke="none" stroke-linecap="butt" stroke-linejoin="miter" stroke-opacity="1" stroke-width="1" transform="translate(468.61 195)"/><path d="M 1.68 3.33 C 2.13 3.33 2.55 3.16 2.86 2.84 C 3.18 2.53 3.36 2.09 3.36 1.66 C 3.36 1.22 3.18 0.78 2.86 0.47 C 2.24 -0.16 1.12 -0.16 0.49 0.47 C 0.18 0.78 0 1.22 0 1.66 C 0 2.09 0.18 2.53 0.49 2.84 C 0.81 3.16 1.24 3.33 1.68 3.33 Z" fill="#3d85c6" fill-opacity="1" fill-rule="nonzero" stroke="none" stroke-linecap="butt" stroke-linejoin="miter" stroke-opacity="1" stroke-width="1" transform="translate(434.36 198.35)"/><path d="M 1.68 3.33 C 2.11 3.33 2.55 3.16 2.86 2.84 C 3.18 2.53 3.36 2.09 3.36 1.66 C 3.36 1.22 3.18 0.78 2.86 0.47 C 2.24 -0.16 1.12 -0.16 0.49 0.47 C 0.18 0.78 0 1.22 0 1.66 C 0 2.09 0.18 2.53 0.49 2.84 C 0.81 3.16 1.23 3.33 1.68 3.33 Z" fill="#3d85c6" fill-opacity="1" fill-rule="nonzero" stroke="none" stroke-linecap="butt" stroke-linejoin="miter" stroke-opacity="1" stroke-width="1" transform="translate(441.97 198.35)"/><path d="M 1.68 3.33 C 2.11 3.33 2.55 3.16 2.86 2.84 C 3.18 2.53 3.36 2.09 3.36 1.66 C 3.36 1.22 3.18 0.78 2.86 0.47 C 2.24 -0.16 1.12 -0.16 0.48 0.47 C 0.18 0.78 0 1.22 0 1.66 C 0 2.09 0.18 2.53 0.48 2.84 C 0.81 3.16 1.23 3.33 1.68 3.33 Z" fill="#3d85c6" fill-opacity="1" fill-rule="nonzero" stroke="none" stroke-linecap="butt" stroke-linejoin="miter" stroke-opacity="1" stroke-width="1" transform="translate(449.59 198.35)"/><path d="M 1.68 3.33 C 2.13 3.33 2.55 3.16 2.86 2.84 C 3.18 2.53 3.36 2.09 3.36 1.66 C 3.36 1.22 3.18 0.78 2.86 0.47 C 2.25 -0.16 1.13 -0.16 0.49 0.47 C 0.18 0.78 0 1.22 0 1.66 C 0 2.09 0.18 2.53 0.49 2.84 C 0.81 3.16 1.24 3.33 1.68 3.33 Z" fill="#3d85c6" fill-opacity="1" fill-rule="nonzero" stroke="none" stroke-linecap="butt" stroke-linejoin="miter" stroke-opacity="1" stroke-width="1" transform="translate(457.19 198.35)"/><path d="M 1.68 3.33 C 2.11 3.33 2.55 3.16 2.86 2.84 C 3.18 2.53 3.36 2.09 3.36 1.66 C 3.36 1.22 3.18 0.78 2.86 0.47 C 2.24 -0.16 1.12 -0.16 0.49 0.47 C 0.18 0.78 0 1.22 0 1.66 C 0 2.09 0.18 2.53 0.49 2.84 C 0.81 3.16 1.23 3.33 1.68 3.33 Z" fill="#3d85c6" fill-opacity="1" fill-rule="nonzero" stroke="none" stroke-linecap="butt" stroke-linejoin="miter" stroke-opacity="1" stroke-width="1" transform="translate(464.81 198.35)"/><path d="M 1.68 3.33 C 2.11 3.33 2.55 3.15 2.86 2.84 C 3.18 2.54 3.36 2.1 3.36 1.65 C 3.36 1.22 3.18 0.78 2.86 0.47 C 2.24 -0.16 1.12 -0.15 0.49 0.47 C 0.18 0.78 0 1.22 0 1.65 C 0 2.1 0.18 2.54 0.49 2.84 C 0.81 3.15 1.24 3.33 1.68 3.33 Z" fill="#3d85c6" fill-opacity="1" fill-rule="nonzero" stroke="none" stroke-linecap="butt" stroke-linejoin="miter" stroke-opacity="1" stroke-width="1" transform="translate(430.55 201.71)"/><path d="M 1.68 3.33 C 2.11 3.33 2.55 3.15 2.86 2.84 C 3.18 2.54 3.36 2.1 3.36 1.65 C 3.36 1.22 3.18 0.78 2.86 0.47 C 2.24 -0.16 1.11 -0.15 0.49 0.47 C 0.18 0.78 0 1.22 0 1.65 C 0 2.1 0.18 2.54 0.49 2.84 C 0.81 3.15 1.23 3.33 1.68 3.33 Z" fill="#3d85c6" fill-opacity="1" fill-rule="nonzero" stroke="none" stroke-linecap="butt" stroke-linejoin="miter" stroke-opacity="1" stroke-width="1" transform="translate(438.17 201.71)"/><path d="M 1.68 3.33 C 2.13 3.33 2.55 3.15 2.86 2.84 C 3.18 2.54 3.36 2.1 3.36 1.65 C 3.36 1.22 3.18 0.78 2.86 0.47 C 2.25 -0.15 1.13 -0.16 0.49 0.47 C 0.18 0.78 0 1.22 0 1.65 C 0 2.1 0.18 2.54 0.49 2.85 C 0.81 3.15 1.24 3.33 1.68 3.33 Z" fill="#3d85c6" fill-opacity="1" fill-rule="nonzero" stroke="none" stroke-linecap="butt" stroke-linejoin="miter" stroke-opacity="1" stroke-width="1" transform="translate(445.78 201.71)"/><path d="M 1.68 3.33 C 2.11 3.33 2.55 3.16 2.86 2.84 C 3.18 2.54 3.36 2.1 3.36 1.66 C 3.36 1.22 3.18 0.78 2.86 0.47 C 2.24 -0.16 1.12 -0.16 0.49 0.47 C 0.18 0.78 0 1.22 0 1.66 C 0 2.1 0.18 2.54 0.49 2.85 C 0.81 3.16 1.24 3.33 1.68 3.33 Z" fill="#3d85c6" fill-opacity="1" fill-rule="nonzero" stroke="none" stroke-linecap="butt" stroke-linejoin="miter" stroke-opacity="1" stroke-width="1" transform="translate(453.39 201.71)"/><path d="M 1.69 3.32 C 2.13 3.32 2.56 3.15 2.87 2.83 C 3.19 2.52 3.37 2.1 3.37 1.65 C 3.37 1.21 3.19 0.79 2.87 0.46 C 2.25 -0.15 1.12 -0.15 0.5 0.46 C 0.19 0.77 0 1.21 0 1.65 C 0 2.09 0.19 2.53 0.5 2.83 C 0.82 3.15 1.24 3.32 1.69 3.32 Z" fill="#3d85c6" fill-opacity="1" fill-rule="nonzero" stroke="none" stroke-linecap="butt" stroke-linejoin="miter" stroke-opacity="1" stroke-width="1" transform="translate(461 201.72)"/><path d="M 1.68 3.33 C 2.13 3.33 2.56 3.15 2.86 2.84 C 3.18 2.54 3.36 2.1 3.36 1.65 C 3.36 1.22 3.18 0.78 2.86 0.47 C 2.25 -0.15 1.13 -0.16 0.49 0.47 C 0.18 0.78 0 1.22 0 1.65 C 0 2.1 0.18 2.54 0.49 2.85 C 0.82 3.15 1.24 3.33 1.68 3.33 Z" fill="#3d85c6" fill-opacity="1" fill-rule="nonzero" stroke="none" stroke-linecap="butt" stroke-linejoin="miter" stroke-opacity="1" stroke-width="1" transform="translate(468.61 201.71)"/><path d="M 1.68 3.33 C 2.13 3.33 2.55 3.16 2.86 2.84 C 3.18 2.53 3.36 2.1 3.36 1.66 C 3.36 1.22 3.18 0.78 2.86 0.47 C 2.24 -0.16 1.12 -0.16 0.49 0.47 C 0.18 0.78 0 1.22 0 1.66 C 0 2.1 0.18 2.53 0.49 2.84 C 0.81 3.16 1.24 3.33 1.68 3.33 Z" fill="#3d85c6" fill-opacity="1" fill-rule="nonzero" stroke="none" stroke-linecap="butt" stroke-linejoin="miter" stroke-opacity="1" stroke-width="1" transform="translate(434.36 205.06)"/><path d="M 1.68 3.33 C 2.11 3.33 2.55 3.15 2.86 2.84 C 3.18 2.53 3.36 2.1 3.36 1.65 C 3.36 1.22 3.18 0.78 2.86 0.47 C 2.24 -0.15 1.12 -0.16 0.49 0.47 C 0.18 0.78 0 1.22 0 1.65 C 0 2.1 0.18 2.52 0.49 2.84 C 0.81 3.15 1.24 3.33 1.68 3.33 Z" fill="#3d85c6" fill-opacity="1" fill-rule="nonzero" stroke="none" stroke-linecap="butt" stroke-linejoin="miter" stroke-opacity="1" stroke-width="1" transform="translate(441.97 205.07)"/><path d="M 1.68 3.33 C 2.11 3.33 2.54 3.16 2.86 2.84 C 3.18 2.53 3.36 2.1 3.36 1.66 C 3.36 1.22 3.18 0.78 2.86 0.47 C 2.23 -0.16 1.11 -0.16 0.48 0.47 C 0.17 0.78 0 1.22 0 1.66 C 0 2.1 0.17 2.53 0.48 2.84 C 0.81 3.16 1.23 3.33 1.68 3.33 Z" fill="#3d85c6" fill-opacity="1" fill-rule="nonzero" stroke="none" stroke-linecap="butt" stroke-linejoin="miter" stroke-opacity="1" stroke-width="1" transform="translate(449.59 205.06)"/><path d="M 1.68 3.33 C 2.13 3.33 2.55 3.16 2.86 2.84 C 3.18 2.53 3.36 2.1 3.36 1.66 C 3.36 1.22 3.18 0.78 2.86 0.47 C 2.24 -0.16 1.12 -0.16 0.49 0.47 C 0.18 0.78 0 1.22 0 1.66 C 0 2.1 0.18 2.53 0.49 2.84 C 0.81 3.16 1.24 3.33 1.68 3.33 Z" fill="#3d85c6" fill-opacity="1" fill-rule="nonzero" stroke="none" stroke-linecap="butt" stroke-linejoin="miter" stroke-opacity="1" stroke-width="1" transform="translate(457.19 205.06)"/><path d="M 1.68 3.33 C 2.11 3.33 2.55 3.15 2.86 2.84 C 3.18 2.53 3.36 2.1 3.36 1.65 C 3.36 1.22 3.18 0.78 2.86 0.47 C 2.24 -0.15 1.11 -0.16 0.49 0.47 C 0.18 0.78 0 1.22 0 1.65 C 0 2.1 0.18 2.54 0.49 2.84 C 0.81 3.15 1.23 3.33 1.68 3.33 Z" fill="#3d85c6" fill-opacity="1" fill-rule="nonzero" stroke="none" stroke-linecap="butt" stroke-linejoin="miter" stroke-opacity="1" stroke-width="1" transform="translate(464.81 205.07)"/><path d="M 1.68 3.33 C 2.11 3.33 2.55 3.16 2.86 2.84 C 3.18 2.53 3.36 2.09 3.36 1.66 C 3.36 1.21 3.18 0.78 2.86 0.47 C 2.24 -0.16 1.12 -0.16 0.49 0.47 C 0.18 0.78 0 1.21 0 1.66 C 0 2.09 0.18 2.53 0.49 2.84 C 0.81 3.16 1.24 3.33 1.68 3.33 Z" fill="#3d85c6" fill-opacity="1" fill-rule="nonzero" stroke="none" stroke-linecap="butt" stroke-linejoin="miter" stroke-opacity="1" stroke-width="1" transform="translate(430.55 208.43)"/><path d="M 1.68 3.33 C 2.11 3.33 2.55 3.16 2.86 2.84 C 3.18 2.53 3.36 2.09 3.36 1.66 C 3.36 1.21 3.18 0.78 2.86 0.47 C 2.24 -0.16 1.12 -0.16 0.49 0.47 C 0.18 0.78 0 1.21 0 1.66 C 0 2.09 0.18 2.53 0.49 2.84 C 0.81 3.16 1.23 3.33 1.68 3.33 Z" fill="#3d85c6" fill-opacity="1" fill-rule="nonzero" stroke="none" stroke-linecap="butt" stroke-linejoin="miter" stroke-opacity="1" stroke-width="1" transform="translate(438.17 208.43)"/><path d="M 1.68 3.33 C 2.13 3.33 2.55 3.16 2.86 2.84 C 3.18 2.53 3.36 2.09 3.36 1.66 C 3.36 1.21 3.18 0.78 2.86 0.47 C 2.25 -0.16 1.12 -0.16 0.49 0.47 C 0.18 0.78 0 1.21 0 1.66 C 0 2.09 0.18 2.53 0.49 2.84 C 0.81 3.16 1.24 3.33 1.68 3.33 Z" fill="#3d85c6" fill-opacity="1" fill-rule="nonzero" stroke="none" stroke-linecap="butt" stroke-linejoin="miter" stroke-opacity="1" stroke-width="1" transform="translate(445.78 208.43)"/><path d="M 1.68 3.33 C 2.11 3.33 2.55 3.16 2.86 2.84 C 3.18 2.53 3.36 2.09 3.36 1.66 C 3.36 1.21 3.18 0.78 2.86 0.47 C 2.24 -0.16 1.12 -0.16 0.49 0.47 C 0.18 0.78 0 1.21 0 1.66 C 0 2.09 0.18 2.53 0.49 2.84 C 0.81 3.16 1.24 3.33 1.68 3.33 Z" fill="#3d85c6" fill-opacity="1" fill-rule="nonzero" stroke="none" stroke-linecap="butt" stroke-linejoin="miter" stroke-opacity="1" stroke-width="1" transform="translate(453.39 208.43)"/><path d="M 0.48 0.47 C 0.18 0.78 0 1.21 0 1.66 C 0 2.09 0.18 2.53 0.48 2.84 C 0.79 3.16 1.23 3.33 1.68 3.33 C 2.11 3.33 2.55 3.16 2.86 2.84 C 3.17 2.53 3.36 2.09 3.36 1.66 C 3.36 1.21 3.17 0.78 2.86 0.47 C 2.24 -0.16 1.11 -0.16 0.48 0.47 Z" fill="#3d85c6" fill-opacity="1" fill-rule="nonzero" stroke="none" stroke-linecap="butt" stroke-linejoin="miter" stroke-opacity="1" stroke-width="1" transform="translate(461.01 208.43)"/><path d="M 0.48 0.47 C 0.18 0.78 0 1.21 0 1.66 C 0 2.09 0.18 2.53 0.48 2.84 C 0.79 3.15 1.23 3.33 1.68 3.33 C 2.11 3.33 2.54 3.15 2.86 2.84 C 3.17 2.53 3.34 2.09 3.34 1.66 C 3.34 1.21 3.17 0.78 2.86 0.47 C 2.23 -0.16 1.11 -0.16 0.48 0.47 Z" fill="#3d85c6" fill-opacity="1" fill-rule="nonzero" stroke="none" stroke-linecap="butt" stroke-linejoin="miter" stroke-opacity="1" stroke-width="1" transform="translate(468.63 208.43)"/><path d="M 1.68 3.33 C 2.13 3.33 2.55 3.16 2.86 2.84 C 3.18 2.53 3.36 2.09 3.36 1.66 C 3.36 1.21 3.18 0.78 2.86 0.46 C 2.25 -0.16 1.13 -0.16 0.49 0.47 C 0.18 0.77 0 1.21 0 1.66 C 0 2.09 0.18 2.53 0.49 2.84 C 0.81 3.16 1.24 3.33 1.68 3.33 Z" fill="#3d85c6" fill-opacity="1" fill-rule="nonzero" stroke="none" stroke-linecap="butt" stroke-linejoin="miter" stroke-opacity="1" stroke-width="1" transform="translate(434.36 211.79)"/><path d="M 1.68 3.33 C 2.11 3.33 2.55 3.16 2.86 2.84 C 3.18 2.53 3.36 2.09 3.36 1.66 C 3.36 1.21 3.18 0.78 2.86 0.46 C 2.25 -0.16 1.12 -0.16 0.49 0.47 C 0.18 0.78 0 1.21 0 1.66 C 0 2.09 0.18 2.53 0.49 2.84 C 0.81 3.16 1.24 3.33 1.68 3.33 Z" fill="#3d85c6" fill-opacity="1" fill-rule="nonzero" stroke="none" stroke-linecap="butt" stroke-linejoin="miter" stroke-opacity="1" stroke-width="1" transform="translate(441.97 211.79)"/><path d="M 1.68 3.33 C 2.11 3.33 2.55 3.16 2.86 2.84 C 3.18 2.53 3.36 2.09 3.36 1.66 C 3.36 1.21 3.18 0.78 2.86 0.46 C 2.24 -0.16 1.11 -0.16 0.48 0.47 C 0.18 0.78 0 1.21 0 1.66 C 0 2.09 0.18 2.53 0.48 2.84 C 0.79 3.16 1.23 3.33 1.68 3.33 Z" fill="#3d85c6" fill-opacity="1" fill-rule="nonzero" stroke="none" stroke-linecap="butt" stroke-linejoin="miter" stroke-opacity="1" stroke-width="1" transform="translate(449.59 211.79)"/><path d="M 1.68 3.33 C 2.13 3.33 2.55 3.16 2.86 2.84 C 3.18 2.53 3.36 2.09 3.36 1.66 C 3.36 1.21 3.18 0.78 2.86 0.46 C 2.25 -0.16 1.12 -0.16 0.49 0.47 C 0.18 0.78 0 1.21 0 1.66 C 0 2.09 0.18 2.53 0.49 2.84 C 0.81 3.16 1.24 3.33 1.68 3.33 Z" fill="#3d85c6" fill-opacity="1" fill-rule="nonzero" stroke="none" stroke-linecap="butt" stroke-linejoin="miter" stroke-opacity="1" stroke-width="1" transform="translate(457.19 211.79)"/><path d="M 1.68 3.33 C 2.11 3.33 2.55 3.16 2.86 2.84 C 3.18 2.53 3.36 2.09 3.36 1.66 C 3.36 1.21 3.18 0.77 2.86 0.46 C 2.24 -0.16 1.11 -0.16 0.49 0.47 C 0.18 0.78 0 1.21 0 1.66 C 0 2.09 0.18 2.53 0.49 2.84 C 0.81 3.16 1.23 3.33 1.68 3.33 Z" fill="#3d85c6" fill-opacity="1" fill-rule="nonzero" stroke="none" stroke-linecap="butt" stroke-linejoin="miter" stroke-opacity="1" stroke-width="1" transform="translate(464.81 211.79)"/><path d="M 1.68 3.33 C 2.11 3.33 2.55 3.16 2.86 2.84 C 3.18 2.53 3.36 2.1 3.36 1.66 C 3.36 1.22 3.18 0.78 2.86 0.47 C 2.25 -0.16 1.13 -0.16 0.49 0.47 C 0.18 0.78 0 1.22 0 1.66 C 0 2.1 0.18 2.53 0.49 2.84 C 0.81 3.16 1.24 3.33 1.68 3.33 Z" fill="#3d85c6" fill-opacity="1" fill-rule="nonzero" stroke="none" stroke-linecap="butt" stroke-linejoin="miter" stroke-opacity="1" stroke-width="1" transform="translate(430.55 215.14)"/><path d="M 1.68 3.33 C 2.11 3.33 2.55 3.16 2.86 2.84 C 3.18 2.53 3.36 2.1 3.36 1.66 C 3.36 1.22 3.18 0.78 2.86 0.47 C 2.24 -0.16 1.11 -0.16 0.49 0.47 C 0.18 0.78 0 1.22 0 1.66 C 0 2.1 0.18 2.53 0.49 2.84 C 0.81 3.16 1.23 3.33 1.68 3.33 Z" fill="#3d85c6" fill-opacity="1" fill-rule="nonzero" stroke="none" stroke-linecap="butt" stroke-linejoin="miter" stroke-opacity="1" stroke-width="1" transform="translate(438.17 215.14)"/><path d="M 1.68 3.33 C 2.13 3.33 2.55 3.16 2.86 2.84 C 3.18 2.53 3.36 2.1 3.36 1.66 C 3.36 1.22 3.18 0.78 2.86 0.47 C 2.24 -0.16 1.12 -0.16 0.49 0.47 C 0.18 0.78 0 1.22 0 1.66 C 0 2.1 0.18 2.53 0.49 2.84 C 0.81 3.16 1.24 3.33 1.68 3.33 Z" fill="#3d85c6" fill-opacity="1" fill-rule="nonzero" stroke="none" stroke-linecap="butt" stroke-linejoin="miter" stroke-opacity="1" stroke-width="1" transform="translate(445.78 215.14)"/><path d="M 1.68 3.33 C 2.11 3.33 2.55 3.16 2.86 2.84 C 3.18 2.53 3.36 2.1 3.36 1.66 C 3.36 1.22 3.18 0.78 2.86 0.47 C 2.24 -0.16 1.12 -0.16 0.49 0.47 C 0.18 0.78 0 1.22 0 1.66 C 0 2.1 0.18 2.53 0.49 2.84 C 0.81 3.16 1.24 3.33 1.68 3.33 Z" fill="#3d85c6" fill-opacity="1" fill-rule="nonzero" stroke="none" stroke-linecap="butt" stroke-linejoin="miter" stroke-opacity="1" stroke-width="1" transform="translate(453.39 215.14)"/><path d="M 0.48 0.47 C 0.18 0.78 0 1.22 0 1.66 C 0 2.1 0.18 2.53 0.48 2.84 C 0.79 3.16 1.23 3.33 1.68 3.33 C 2.11 3.33 2.54 3.16 2.86 2.84 C 3.18 2.53 3.36 2.1 3.36 1.66 C 3.36 1.22 3.18 0.78 2.86 0.47 C 2.23 -0.16 1.11 -0.16 0.48 0.47 Z" fill="#3d85c6" fill-opacity="1" fill-rule="nonzero" stroke="none" stroke-linecap="butt" stroke-linejoin="miter" stroke-opacity="1" stroke-width="1" transform="translate(461.01 215.14)"/><path d="M 0.48 0.47 C 0.18 0.78 0 1.22 0 1.66 C 0 2.1 0.18 2.53 0.48 2.84 C 0.79 3.15 1.23 3.33 1.67 3.33 C 2.11 3.33 2.54 3.15 2.85 2.84 C 3.17 2.53 3.34 2.1 3.34 1.66 C 3.34 1.22 3.17 0.78 2.85 0.47 C 2.24 -0.16 1.12 -0.16 0.48 0.47 Z" fill="#3d85c6" fill-opacity="1" fill-rule="nonzero" stroke="none" stroke-linecap="butt" stroke-linejoin="miter" stroke-opacity="1" stroke-width="1" transform="translate(468.63 215.14)"/><path d="M 33.52 0 L 0 0 L 1.95 4.07 L 35.47 4.07 Z" fill="#ffffff" fill-opacity="1" fill-rule="nonzero" stroke="#3d85c6" stroke-linecap="butt" stroke-linejoin="miter" stroke-opacity="1" stroke-width="2" transform="translate(448.11 287.71)"/><path d="M 0 14.16 L 11.19 14.16 L 14.73 0 L 0 0 Z" fill="#ffffff" fill-opacity="1" fill-rule="nonzero" stroke="#3d85c6" stroke-linecap="butt" stroke-linejoin="miter" stroke-opacity="1" stroke-width="2" transform="translate(493.02 269.12)"/><path d="M 241.84 63.2 C 240.7 64.95 239.32 69.75 241.23 69.75 L 247.41 69.75 C 248.88 69.75 248.79 71.98 247.74 74.02 C 246.68 76.09 245.3 76.17 242.94 76.17 L 63.86 76.17 C 55.85 76.17 32.09 69.95 29.08 69.95 L 11.06 69.95 C 8.46 69.95 3.49 67.92 1.54 61.98 C 1.42 61.65 1.34 61.33 1.26 61 C -0.33 55.55 -0.09 51.48 0.24 50.55 C 0.61 49.53 3.01 49.2 3.01 46.36 C 3.01 46.19 3.01 46.03 3.01 45.79 C 3.05 44.81 3.17 43.22 3.37 41.39 C 3.45 40.66 3.54 39.89 3.62 39.11 C 3.74 37.98 4.35 36.92 4.47 35.74 C 4.71 33.58 4.47 31.26 4.67 29.51 C 4.92 27.6 5.08 26.1 5.2 25.53 C 5.32 24.67 5.37 23.57 5.73 22.52 C 6.3 20.77 7.68 19.18 11.59 19.18 C 17.85 19.18 25.79 19.38 28.92 18.53 C 30.95 17.96 42.38 12.55 51.9 8.12 C 57.15 5.68 61.87 3.52 64.07 2.62 C 70.29 0.18 82.01 0.02 87.42 0.02 C 92.87 0.02 118.09 0.02 118.09 0.02 C 123.17 0.02 134.77 -0.71 147.5 6.45 C 160.23 13.57 176.87 25.81 182 27.15 C 184.15 27.72 189.69 28.13 196.28 28.7 C 197.38 28.78 198.47 28.9 199.57 28.99 C 207.79 29.76 216.98 30.82 223.29 32.89 C 230.24 35.17 236.83 37.28 241.59 40.38 C 242.12 40.7 242.69 41.11 243.26 41.51 C 244.89 42.78 246.27 44.2 247.29 45.79 C 248.06 47.05 248.63 48.39 248.92 49.89 C 249.04 50.55 249.16 51.12 249.28 51.68 C 250.75 59.37 249.81 60.35 247.9 60.63 C 247.29 60.72 246.64 60.84 245.95 61 C 244.28 61.37 242.65 61.98 241.84 63.2 Z" fill="#ffffff" fill-opacity="1" fill-rule="nonzero" stroke="#3d85c6" stroke-linecap="butt" stroke-linejoin="miter" stroke-opacity="1" stroke-width="2" transform="translate(259.2 211.42)"/><path d="M 0 18.92 L 10.17 18.92 C 12.41 18.92 14.2 17.13 14.2 14.89 L 14.2 4.03 C 14.2 1.79 12.41 0 10.17 0 L 2.36 0 C 2.03 1.06 1.99 2.16 1.83 3.01 C 1.75 3.62 1.55 5.09 1.3 7 C 1.1 8.79 1.34 11.07 1.1 13.22 C 0.98 14.4 0.33 15.46 0.24 16.6 C 0.16 17.41 0.08 18.18 0 18.92 Z" fill="#ffffff" fill-opacity="1" fill-rule="nonzero" opacity="0.79" stroke="#3d85c6" stroke-linecap="butt" stroke-linejoin="miter" stroke-opacity="1" stroke-width="2" transform="translate(262.53 233.89)"/><path d="M 0 0 C 0.16 1.91 0.61 4.31 1.46 7.04 C 1.91 8.46 2.56 9.64 3.3 10.66 C 5.65 13.87 8.99 15.05 10.98 15.05 L 29 15.05 C 32.02 15.05 55.77 21.28 63.79 21.28 L 242.86 21.28 C 245.22 21.28 246.6 21.19 247.66 19.12 C 248.72 17.04 248.8 14.85 247.33 14.85 L 241.15 14.85 C 239.85 14.85 240.05 12.61 240.7 10.66 C 240.99 9.72 241.39 8.87 241.76 8.3 C 242.9 6.55 245.75 6.02 247.78 5.74 C 249.37 5.49 250.26 4.76 249.69 0.04 L 0 0.04 Z" fill="#ffffff" fill-opacity="1" fill-rule="nonzero" opacity="0.46" stroke="#3d85c6" stroke-linecap="butt" stroke-linejoin="miter" stroke-opacity="1" stroke-width="2" transform="translate(259.28 266.36)"/><path d="M 1.78 4.72 C 0.52 6.35 0.03 10.05 0.77 12.45 C 1.33 14.28 4.18 17.04 8.17 20.91 C 9.51 22.21 11.02 23.68 12.6 25.26 C 17.97 30.63 20.94 39.34 22.24 43.08 C 22.49 43.77 22.65 44.3 22.81 44.63 C 23.71 46.9 24.85 47.39 26.27 47.39 L 64.71 47.39 C 64.71 25.79 62.31 9.07 62.27 8.91 L 62.72 8.83 C 62.76 8.99 65.16 25.75 65.16 47.39 L 121.99 47.39 C 123.13 47.39 123.94 46.58 124.15 45.81 C 124.35 44.87 126.22 31.61 126.67 24.65 C 127.12 17.86 126.38 15.66 122.64 12.29 C 118.98 8.99 104.95 0.49 104.82 0.41 L 105.07 0 C 105.19 0.08 119.27 8.58 122.97 11.92 C 126.87 15.42 127.61 17.7 127.16 24.65 C 126.71 31.65 124.84 44.99 124.64 45.89 C 124.39 46.86 123.46 47.84 122.03 47.84 L 26.27 47.84 C 24.4 47.84 23.26 46.94 22.41 44.79 C 22.28 44.42 22.08 43.89 21.84 43.2 C 20.58 39.5 17.61 30.84 12.32 25.55 C 10.73 23.96 9.23 22.5 7.88 21.19 C 3.86 17.29 0.93 14.48 0.36 12.53 C -0.41 9.97 0.11 6.14 1.46 4.39 L 1.78 4.72 Z" fill="#ffffff" fill-opacity="1" fill-rule="nonzero" stroke="#3d85c6" stroke-linecap="butt" stroke-linejoin="miter" stroke-opacity="1" stroke-width="2" transform="translate(310.58 232.59)"/><path d="M 0 4.19 C 0 6.51 1.87 8.38 4.19 8.38 C 6.51 8.38 8.38 6.51 8.38 4.19 C 8.38 1.87 6.51 0 4.19 0 C 1.87 -0.04 0 1.87 0 4.19 Z M 0.45 4.19 C 0.45 2.12 2.12 0.45 4.19 0.45 C 6.26 0.45 7.93 2.12 7.93 4.19 C 7.93 6.27 6.26 7.93 4.19 7.93 C 2.12 7.89 0.45 6.22 0.45 4.19 Z" fill="#ffffff" fill-opacity="1" fill-rule="nonzero" stroke="#3d85c6" stroke-linecap="butt" stroke-linejoin="miter" stroke-opacity="1" stroke-width="2" transform="translate(283.32 240.93)"/><path d="M 7.69 26.52 L 112.08 26.52 C 114.93 26.52 116.07 24.69 115.86 23.39 C 115.66 22.05 103.74 12.61 95.6 7.81 C 94.71 7.28 93.81 6.79 92.92 6.35 L 92.92 6.35 L 92.92 6.35 C 87.79 3.66 82.18 1.71 77.87 0.69 C 76.85 0.45 75.87 0.28 75.02 0.16 C 74.21 0.04 73.43 0 72.82 0 L 34.05 0 C 25.11 0 3.67 11.39 0.41 16.07 C -1.74 19.2 5.13 26.52 7.69 26.52 Z" fill="#ffffff" fill-opacity="1" fill-rule="nonzero" stroke="#3d85c6" stroke-linecap="butt" stroke-linejoin="miter" stroke-opacity="1" stroke-width="2" transform="translate(308.7 216.24)"/><path d="M 14.16 26.56 C 10.54 26.56 6.87 26.56 3.17 26.56 L 0 0 C 2.07 0 4.07 0 5.9 0 L 14.16 26.56 Z" fill="#ffffff" fill-opacity="1" fill-rule="nonzero" stroke="#3d85c6" stroke-linecap="butt" stroke-linejoin="miter" stroke-opacity="1" stroke-width="2" transform="translate(365.29 216.2)"/><path d="M 38.07 21.8 C 36 22.33 34.33 22.94 33.15 22.94 C 31.07 22.94 29.16 22.41 28.51 21.89 C 27.82 21.36 3.49 4.35 1.26 2.89 C -0.94 1.42 0.2 0 1.26 0 C 1.3 0 1.38 0 1.46 0 C 2.15 0.37 2.88 0.73 3.57 1.14 C 16.31 8.22 32.99 20.46 38.07 21.8 L 38.07 21.8 Z" fill="#ffffff" fill-opacity="1" fill-rule="nonzero" stroke="#3d85c6" stroke-linecap="butt" stroke-linejoin="miter" stroke-opacity="1" stroke-width="2" transform="translate(403.04 216.73)"/><path d="M 33.6 0 C 33.97 0.41 33.93 1.06 33.03 1.79 C 31.57 2.97 11.35 12.81 8.99 14.03 C 6.71 15.21 3.82 15.3 0 15.3 C 5.78 13.02 27.34 2.56 33.6 0 Z" fill="#ffffff" fill-opacity="1" fill-rule="nonzero" stroke="#3d85c6" stroke-linecap="butt" stroke-linejoin="miter" stroke-opacity="1" stroke-width="2" transform="translate(289.22 214.16)"/><path d="M 6.36 10.43 C 9.86 13.11 16 14.66 21.41 15.27 C 24.91 15.68 27.8 16.04 29.54 15.72 C 29.42 15.15 29.3 14.58 29.18 13.93 C 28.45 10.43 26.41 7.74 23.52 5.51 C 22.95 5.06 22.38 4.69 21.86 4.33 C 21.33 4 20.88 3.76 20.47 3.59 C 17.18 2.17 7.41 0.71 3.22 0.09 C -4.1 -1 2.86 7.74 6.36 10.43 Z" fill="#ffffff" fill-opacity="1" fill-rule="nonzero" opacity="0.77" stroke="#3d85c6" stroke-linecap="butt" stroke-linejoin="miter" stroke-opacity="1" stroke-width="2" transform="translate(478.86 247.39)"/><path d="M 2.48 0.08 C 5.65 0.56 13.1 1.66 15.62 2.76 C 18.14 3.82 24.25 9.43 23.88 10.98 C 23.51 12.52 20.46 12.08 16.31 11.63 C 12.2 11.18 7.53 9.96 4.88 7.93 C 2.16 5.85 -3.13 -0.78 2.48 0.08 Z" fill="#ffffff" fill-opacity="1" fill-rule="nonzero" stroke="#3d85c6" stroke-linecap="butt" stroke-linejoin="miter" stroke-opacity="1" stroke-width="2" transform="translate(479.97 249.32)"/><path d="M 11.55 3.01 L 11.55 11.27 C 11.55 12.94 10.17 14.32 8.5 14.32 L 0 14.32 C 0.33 11.07 0.33 7.45 0.65 4.72 C 0.9 2.81 1.06 1.3 1.18 0.73 C 1.22 0.49 1.26 0.24 1.26 0 L 8.5 0 C 10.17 -0.04 11.55 1.34 11.55 3.01 Z" fill="#ffffff" fill-opacity="1" fill-rule="nonzero" stroke="#3d85c6" stroke-linecap="butt" stroke-linejoin="miter" stroke-opacity="1" stroke-width="2" transform="translate(263.18 236.21)"/><path d="M 11.96 6.55 C 11.96 8.22 10.58 9.6 8.91 9.6 L 0 9.6 C 0.33 6.35 0.73 2.73 1.06 0 L 11.96 0 L 11.96 6.55 Z" fill="#ffffff" fill-opacity="1" fill-rule="nonzero" stroke="#3d85c6" stroke-linecap="butt" stroke-linejoin="miter" stroke-opacity="1" stroke-width="2" transform="translate(262.78 240.93)"/><path d="M 0 0 C 2.36 3.21 5.7 4.39 7.69 4.39 L 25.71 4.39 C 28.72 4.39 52.48 10.62 60.49 10.62 L 239.56 10.62 C 241.92 10.62 243.31 10.54 244.36 8.46 C 245.42 6.39 245.5 4.19 244.04 4.19 L 237.86 4.19 C 236.55 4.19 236.76 1.95 237.41 0 L 0 0 Z" fill="#ffffff" fill-opacity="1" fill-rule="nonzero" opacity="0.46" stroke="#3d85c6" stroke-linecap="butt" stroke-linejoin="miter" stroke-opacity="1" stroke-width="2" transform="translate(262.57 276.97)"/><path d="M 0.04 21.19 C 0.04 9.48 9.56 0 21.23 0 C 32.91 0 42.43 9.52 42.43 21.19 L 42.43 30.39 C 39.7 30.39 37.87 30.39 37.22 30.39 C 29.21 30.39 5.45 24.16 2.44 24.16 C 1.91 24.16 1.06 24.16 0 24.16 L 0 21.19 Z" fill="#ffffff" fill-opacity="1" fill-rule="nonzero" stroke="#3d85c6" stroke-linecap="butt" stroke-linejoin="miter" stroke-opacity="1" stroke-width="2" transform="translate(285.8 257.24)"/><path d="M 0 25.3 L 0 33.32 L 50.61 33.32 L 50.61 25.3 C 50.61 11.35 39.26 0 25.3 0 C 11.35 0 0 11.35 0 25.3 Z" fill="#ffffff" fill-opacity="1" fill-rule="nonzero" opacity="0.77" stroke="#3d85c6" stroke-linecap="butt" stroke-linejoin="miter" stroke-opacity="1" stroke-width="2" transform="translate(438.96 254.27)"/><path d="M 23.59 2.93 L 0 2.93 C 3.54 1.06 7.53 0 11.8 0 C 16.07 0 20.06 1.06 23.59 2.93 Z" fill="#ffffff" fill-opacity="1" fill-rule="nonzero" opacity="0.77" stroke="#3d85c6" stroke-linecap="butt" stroke-linejoin="miter" stroke-opacity="1" stroke-width="2" transform="translate(295.24 254.27)"/><path d="M 50.61 7.16 L 50.61 15.17 L 41.29 15.17 C 33.28 15.17 9.52 8.95 6.51 8.95 L 0 8.95 L 0 7.16 C 0 4.68 0.37 2.28 1.02 0 L 49.55 0 C 50.24 2.28 50.61 4.68 50.61 7.16 Z" fill="#ffffff" fill-opacity="1" fill-rule="nonzero" opacity="0.77" stroke="#3d85c6" stroke-linecap="butt" stroke-linejoin="miter" stroke-opacity="1" stroke-width="2" transform="translate(281.73 272.42)"/><path d="M 42.43 6.02 L 42.43 15.21 L 0 15.21 L 0 6.02 C 0 3.95 0.33 1.91 0.85 0 L 41.53 0 C 42.1 1.91 42.43 3.91 42.43 6.02 Z" fill="#ffffff" fill-opacity="1" fill-rule="nonzero" stroke="#3d85c6" stroke-linecap="butt" stroke-linejoin="miter" stroke-opacity="1" stroke-width="2" transform="translate(443.07 272.42)"/><path d="M 11.06 22.13 C 4.96 22.13 0 17.17 0 11.07 C 0 4.96 4.96 0 11.06 0 C 17.17 0 22.13 4.96 22.13 11.07 C 22.13 17.21 17.17 22.13 11.06 22.13 Z" fill="#ffffff" fill-opacity="1" fill-rule="nonzero" stroke="#3d85c6" stroke-linecap="butt" stroke-linejoin="miter" stroke-opacity="1" stroke-width="2" transform="translate(453.28 267.7)"/><path d="M 0 13.06 C 0.28 14.4 0.81 15.7 1.51 16.84 L 3.01 16.07 L 8.87 12.98 C 9.28 13.51 9.84 13.87 10.5 14.12 L 9.64 20.54 L 9.44 22.21 C 10.09 22.33 10.74 22.37 11.39 22.37 C 12.08 22.37 12.77 22.29 13.42 22.17 L 13.26 20.5 L 12.69 14.12 C 13.34 13.91 13.95 13.51 14.4 12.98 L 19.89 15.87 L 21.4 16.64 C 22.05 15.5 22.54 14.24 22.82 12.94 L 21.19 12.49 L 15.3 10.9 C 15.3 10.82 15.3 10.74 15.3 10.62 C 15.3 9.76 15.01 8.99 14.52 8.38 L 18.22 3.5 L 19.24 2.16 C 18.27 1.26 17.13 0.53 15.87 0 L 15.17 1.55 L 12.61 7.16 C 12.33 7.08 12 7.04 11.68 7.04 C 11.23 7.04 10.82 7.12 10.45 7.24 L 7.44 1.63 L 6.63 0.12 C 5.37 0.69 4.23 1.46 3.3 2.4 L 4.39 3.66 L 8.66 8.58 C 8.26 9.15 8.05 9.84 8.05 10.62 C 8.05 10.7 8.05 10.78 8.05 10.86 L 1.63 12.57 L 0 13.06 Z" fill="#ffffff" fill-opacity="1" fill-rule="nonzero" stroke="#3d85c6" stroke-linecap="butt" stroke-linejoin="miter" stroke-opacity="1" stroke-width="2" transform="translate(452.95 268.06)"/><path d="M 0 11.11 C 0.24 12.33 0.69 13.51 1.34 14.52 L 7.2 11.43 C 7.61 11.96 8.18 12.33 8.83 12.57 L 7.97 19 C 8.54 19.12 9.11 19.16 9.72 19.16 C 10.37 19.16 11.02 19.08 11.63 18.96 L 11.07 12.57 C 11.72 12.37 12.33 11.96 12.77 11.43 L 18.27 14.32 C 18.88 13.3 19.32 12.16 19.53 10.94 L 13.63 9.36 C 13.63 9.28 13.63 9.19 13.63 9.07 C 13.63 8.22 13.34 7.44 12.85 6.83 L 16.56 1.95 C 15.66 1.14 14.64 0.45 13.51 0 L 10.94 5.61 C 10.66 5.53 10.33 5.49 10.01 5.49 C 9.56 5.49 9.15 5.57 8.79 5.7 L 5.78 0.08 C 4.64 0.57 3.62 1.3 2.73 2.16 L 7 7.08 C 6.59 7.65 6.39 8.34 6.39 9.11 C 6.39 9.19 6.39 9.28 6.39 9.36 L 0 11.11 Z" fill="#ffffff" fill-opacity="1" fill-rule="nonzero" stroke="#3d85c6" stroke-linecap="butt" stroke-linejoin="miter" stroke-opacity="1" stroke-width="2" transform="translate(454.58 269.57)"/><path d="M 4.8 2.4 C 4.8 3.04 4.55 3.65 4.1 4.1 C 3.65 4.55 3.04 4.8 2.4 4.8 C 1.76 4.8 1.15 4.55 0.7 4.1 C 0.25 3.65 0 3.04 0 2.4 C 0 1.76 0.25 1.15 0.7 0.7 C 1.15 0.25 1.76 0 2.4 0 C 3.04 0 3.65 0.25 4.1 0.7 C 4.55 1.15 4.8 1.76 4.8 2.4 Z" fill="#ffffff" fill-opacity="1" fill-rule="nonzero" opacity="0.46" stroke="#3d85c6" stroke-linecap="butt" stroke-linejoin="miter" stroke-opacity="1" stroke-width="2" transform="translate(462.11 276.28)"/><path d="M 1.38 0.69 C 1.38 1.07 1.07 1.38 0.69 1.38 C 0.31 1.38 0 1.07 0 0.69 C 0 0.51 0.07 0.33 0.2 0.2 C 0.33 0.07 0.51 0 0.69 0 C 0.88 0 1.05 0.07 1.18 0.2 C 1.31 0.33 1.38 0.51 1.38 0.69 Z" fill="#ffffff" fill-opacity="1" fill-rule="nonzero" stroke="#3d85c6" stroke-linecap="butt" stroke-linejoin="miter" stroke-opacity="1" stroke-width="2" transform="translate(463.82 276.2)"/><path d="M 1.38 0.69 C 1.38 1.07 1.07 1.38 0.69 1.38 C 0.31 1.38 0 1.07 0 0.69 C 0 0.51 0.07 0.33 0.2 0.2 C 0.33 0.07 0.51 0 0.69 0 C 0.88 0 1.05 0.07 1.18 0.2 C 1.31 0.33 1.38 0.51 1.38 0.69 Z" fill="#ffffff" fill-opacity="1" fill-rule="nonzero" stroke="#3d85c6" stroke-linecap="butt" stroke-linejoin="miter" stroke-opacity="1" stroke-width="2" transform="translate(463.82 279.78)"/><path d="M 1.38 0.69 C 1.38 0.88 1.31 1.05 1.18 1.18 C 1.05 1.31 0.88 1.38 0.69 1.38 C 0.51 1.38 0.33 1.31 0.2 1.18 C 0.07 1.05 0 0.88 0 0.69 C 0 0.31 0.31 0 0.69 0 C 1.07 0 1.38 0.31 1.38 0.69 Z" fill="#ffffff" fill-opacity="1" fill-rule="nonzero" stroke="#3d85c6" stroke-linecap="butt" stroke-linejoin="miter" stroke-opacity="1" stroke-width="2" transform="translate(465.61 277.99)"/><path d="M 1.38 0.69 C 1.38 0.88 1.31 1.05 1.18 1.18 C 1.05 1.31 0.88 1.38 0.69 1.38 C 0.51 1.38 0.33 1.31 0.2 1.18 C 0.07 1.05 0 0.88 0 0.69 C 0 0.31 0.31 0 0.69 0 C 1.07 0 1.38 0.31 1.38 0.69 Z" fill="#ffffff" fill-opacity="1" fill-rule="nonzero" stroke="#3d85c6" stroke-linecap="butt" stroke-linejoin="miter" stroke-opacity="1" stroke-width="2" transform="translate(462.03 277.99)"/><path d="M 0 18.63 C 0 28.92 8.34 37.26 18.63 37.26 C 28.92 37.26 37.22 28.92 37.22 18.63 C 37.22 8.34 28.88 0 18.63 0 C 8.3 0.04 0 8.38 0 18.63 Z M 6.67 18.63 C 6.67 12.04 12 6.71 18.59 6.71 C 25.18 6.71 30.51 12.04 30.51 18.63 C 30.51 25.22 25.18 30.55 18.59 30.55 C 12 30.55 6.67 25.22 6.67 18.63 Z" fill="#ffffff" fill-opacity="1" fill-rule="nonzero" stroke="#3d85c6" stroke-linecap="butt" stroke-linejoin="miter" stroke-opacity="1" stroke-width="2" transform="translate(445.75 260.13)"/><path d="M 0 14.4 C 0 22.37 6.43 28.8 14.4 28.8 C 22.33 28.8 28.8 22.37 28.8 14.4 C 28.8 6.47 22.37 0 14.4 0 C 6.47 0 0 6.47 0 14.4 Z M 2.48 14.4 C 2.48 7.81 7.81 2.48 14.4 2.48 C 20.99 2.48 26.32 7.81 26.32 14.4 C 26.32 20.99 20.99 26.32 14.4 26.32 C 7.81 26.32 2.48 20.99 2.48 14.4 Z" fill="#ffffff" fill-opacity="1" fill-rule="nonzero" stroke="#3d85c6" stroke-linecap="butt" stroke-linejoin="miter" stroke-opacity="1" stroke-width="2" transform="translate(449.94 264.36)"/><path d="M 0 13.02 C 0 20.22 5.82 26.04 13.02 26.04 C 20.22 26.04 26.04 20.22 26.04 13.02 C 26.04 5.82 20.22 0 13.02 0 C 5.82 0 0 5.86 0 13.02 Z M 1.95 13.02 C 1.95 6.92 6.92 1.95 13.02 1.95 C 19.12 1.95 24.08 6.92 24.08 13.02 C 24.08 19.12 19.12 24.08 13.02 24.08 C 6.92 24.08 1.95 19.16 1.95 13.02 Z" fill="#ffffff" fill-opacity="1" fill-rule="nonzero" stroke="#3d85c6" stroke-linecap="butt" stroke-linejoin="miter" stroke-opacity="1" stroke-width="2" transform="translate(451.33 265.75)"/><path d="M 0 12.08 C 0 18.75 5.41 24.16 12.08 24.16 C 18.75 24.16 24.16 18.75 24.16 12.08 C 24.16 5.41 18.75 0 12.08 0 C 5.41 0 0 5.41 0 12.08 Z M 1.02 12.08 C 1.02 5.98 5.98 1.02 12.08 1.02 C 18.18 1.02 23.15 5.98 23.15 12.08 C 23.15 18.18 18.18 23.15 12.08 23.15 C 5.98 23.15 1.02 18.22 1.02 12.08 Z" fill="#ffffff" fill-opacity="1" fill-rule="nonzero" opacity="0.46" stroke="#3d85c6" stroke-linecap="butt" stroke-linejoin="miter" stroke-opacity="1" stroke-width="2" transform="translate(452.26 266.68)"/><path d="M 11.07 22.13 C 4.96 22.13 0 17.17 0 11.07 C 0 4.96 4.96 0 11.07 0 C 17.17 0 22.13 4.96 22.13 11.07 C 22.13 17.21 17.17 22.13 11.07 22.13 Z" fill="#ffffff" fill-opacity="1" fill-rule="nonzero" stroke="#3d85c6" stroke-linecap="butt" stroke-linejoin="miter" stroke-opacity="1" stroke-width="2" transform="translate(295.97 267.7)"/><path d="M 0 13.06 C 0.28 14.4 0.81 15.7 1.51 16.84 L 3.01 16.07 L 8.87 12.98 C 9.28 13.51 9.84 13.87 10.5 14.12 L 9.64 20.54 L 9.44 22.21 C 10.09 22.33 10.74 22.37 11.39 22.37 C 12.08 22.37 12.77 22.29 13.42 22.17 L 13.26 20.5 L 12.69 14.12 C 13.34 13.91 13.95 13.51 14.4 12.98 L 19.89 15.87 L 21.4 16.64 C 22.05 15.5 22.54 14.24 22.82 12.94 L 21.19 12.49 L 15.3 10.9 C 15.3 10.82 15.3 10.74 15.3 10.62 C 15.3 9.76 15.01 8.99 14.52 8.38 L 18.22 3.5 L 19.24 2.16 C 18.27 1.26 17.13 0.53 15.87 0 L 15.17 1.55 L 12.61 7.16 C 12.33 7.08 12 7.04 11.68 7.04 C 11.23 7.04 10.82 7.12 10.45 7.24 L 7.44 1.63 L 6.63 0.12 C 5.37 0.69 4.23 1.46 3.3 2.4 L 4.39 3.66 L 8.66 8.58 C 8.26 9.15 8.05 9.84 8.05 10.62 C 8.05 10.7 8.05 10.78 8.05 10.86 L 1.63 12.57 L 0 13.06 Z" fill="#ffffff" fill-opacity="1" fill-rule="nonzero" stroke="#3d85c6" stroke-linecap="butt" stroke-linejoin="miter" stroke-opacity="1" stroke-width="2" transform="translate(295.64 268.06)"/><path d="M 0 11.11 C 0.24 12.33 0.69 13.51 1.34 14.52 L 7.2 11.43 C 7.61 11.96 8.18 12.33 8.83 12.57 L 7.97 19 C 8.54 19.12 9.11 19.16 9.72 19.16 C 10.37 19.16 11.02 19.08 11.63 18.96 L 11.06 12.57 C 11.72 12.37 12.33 11.96 12.77 11.43 L 18.27 14.32 C 18.88 13.3 19.32 12.16 19.53 10.94 L 13.63 9.36 C 13.63 9.28 13.63 9.19 13.63 9.07 C 13.63 8.22 13.34 7.44 12.85 6.83 L 16.56 1.95 C 15.66 1.14 14.64 0.45 13.51 0 L 10.94 5.61 C 10.66 5.53 10.33 5.49 10.01 5.49 C 9.56 5.49 9.15 5.57 8.79 5.7 L 5.78 0.08 C 4.64 0.57 3.62 1.3 2.73 2.16 L 7 7.08 C 6.59 7.65 6.39 8.34 6.39 9.11 C 6.39 9.19 6.39 9.28 6.39 9.36 L 0 11.11 Z" fill="#ffffff" fill-opacity="1" fill-rule="nonzero" stroke="#3d85c6" stroke-linecap="butt" stroke-linejoin="miter" stroke-opacity="1" stroke-width="2" transform="translate(297.27 269.57)"/><path d="M 4.8 2.4 C 4.8 3.04 4.55 3.65 4.1 4.1 C 3.65 4.55 3.04 4.8 2.4 4.8 C 1.07 4.8 0 3.73 0 2.4 C 0 1.07 1.07 0 2.4 0 C 3.73 0 4.8 1.07 4.8 2.4 Z" fill="#ffffff" fill-opacity="1" fill-rule="nonzero" opacity="0.46" stroke="#3d85c6" stroke-linecap="butt" stroke-linejoin="miter" stroke-opacity="1" stroke-width="2" transform="translate(304.8 276.28)"/><path d="M 1.38 0.69 C 1.38 1.07 1.07 1.38 0.69 1.38 C 0.31 1.38 0 1.07 0 0.69 C 0 0.51 0.07 0.33 0.2 0.2 C 0.33 0.07 0.51 0 0.69 0 C 0.88 0 1.05 0.07 1.18 0.2 C 1.31 0.33 1.38 0.51 1.38 0.69 Z" fill="#ffffff" fill-opacity="1" fill-rule="nonzero" stroke="#3d85c6" stroke-linecap="butt" stroke-linejoin="miter" stroke-opacity="1" stroke-width="2" transform="translate(306.51 276.2)"/><path d="M 1.38 0.69 C 1.38 1.07 1.07 1.38 0.69 1.38 C 0.31 1.38 0 1.07 0 0.69 C 0 0.51 0.07 0.33 0.2 0.2 C 0.33 0.07 0.51 0 0.69 0 C 0.88 0 1.05 0.07 1.18 0.2 C 1.31 0.33 1.38 0.51 1.38 0.69 Z" fill="#ffffff" fill-opacity="1" fill-rule="nonzero" stroke="#3d85c6" stroke-linecap="butt" stroke-linejoin="miter" stroke-opacity="1" stroke-width="2" transform="translate(306.51 279.78)"/><path d="M 1.38 0.69 C 1.38 0.88 1.31 1.05 1.18 1.18 C 1.05 1.31 0.88 1.38 0.69 1.38 C 0.51 1.38 0.33 1.31 0.2 1.18 C 0.07 1.05 0 0.88 0 0.69 C 0 0.31 0.31 0 0.69 0 C 1.07 0 1.38 0.31 1.38 0.69 Z" fill="#ffffff" fill-opacity="1" fill-rule="nonzero" stroke="#3d85c6" stroke-linecap="butt" stroke-linejoin="miter" stroke-opacity="1" stroke-width="2" transform="translate(308.3 277.99)"/><path d="M 1.38 0.69 C 1.38 0.88 1.31 1.05 1.18 1.18 C 1.05 1.31 0.88 1.38 0.69 1.38 C 0.51 1.38 0.33 1.31 0.2 1.18 C 0.07 1.05 0 0.88 0 0.69 C 0 0.31 0.31 0 0.69 0 C 1.07 0 1.38 0.31 1.38 0.69 Z" fill="#ffffff" fill-opacity="1" fill-rule="nonzero" stroke="#3d85c6" stroke-linecap="butt" stroke-linejoin="miter" stroke-opacity="1" stroke-width="2" transform="translate(304.72 277.99)"/><path d="M 0 18.63 C 0 28.92 8.34 37.26 18.63 37.26 C 28.92 37.26 37.22 28.92 37.22 18.63 C 37.22 8.34 28.88 0 18.63 0 C 8.34 0.04 0 8.38 0 18.63 Z M 6.71 18.63 C 6.71 12.04 12.04 6.71 18.63 6.71 C 25.22 6.71 30.55 12.04 30.55 18.63 C 30.55 25.22 25.22 30.55 18.63 30.55 C 12.04 30.55 6.71 25.22 6.71 18.63 Z" fill="#ffffff" fill-opacity="1" fill-rule="nonzero" stroke="#3d85c6" stroke-linecap="butt" stroke-linejoin="miter" stroke-opacity="1" stroke-width="2" transform="translate(288.4 260.13)"/><path d="M 0 14.4 C 0 22.37 6.43 28.8 14.4 28.8 C 22.33 28.8 28.8 22.37 28.8 14.4 C 28.8 6.47 22.37 0 14.4 0 C 6.43 0 0 6.47 0 14.4 Z M 2.48 14.4 C 2.48 7.81 7.81 2.48 14.4 2.48 C 20.99 2.48 26.32 7.81 26.32 14.4 C 26.32 20.99 20.99 26.32 14.4 26.32 C 7.81 26.32 2.48 20.99 2.48 14.4 Z" fill="#ffffff" fill-opacity="1" fill-rule="nonzero" stroke="#3d85c6" stroke-linecap="butt" stroke-linejoin="miter" stroke-opacity="1" stroke-width="2" transform="translate(292.63 264.36)"/><path d="M 0 13.02 C 0 20.22 5.82 26.04 13.02 26.04 C 20.22 26.04 26.04 20.22 26.04 13.02 C 26.04 5.82 20.22 0 13.02 0 C 5.82 0 0 5.86 0 13.02 Z M 1.95 13.02 C 1.95 6.92 6.92 1.95 13.02 1.95 C 19.12 1.95 24.08 6.92 24.08 13.02 C 24.08 19.12 19.12 24.08 13.02 24.08 C 6.92 24.08 1.95 19.16 1.95 13.02 Z" fill="#ffffff" fill-opacity="1" fill-rule="nonzero" stroke="#3d85c6" stroke-linecap="butt" stroke-linejoin="miter" stroke-opacity="1" stroke-width="2" transform="translate(294.02 265.75)"/><path d="M 0 12.08 C 0 18.75 5.41 24.16 12.08 24.16 C 18.75 24.16 24.16 18.75 24.16 12.08 C 24.16 5.41 18.75 0 12.08 0 C 5.41 0 0 5.41 0 12.08 Z M 1.02 12.08 C 1.02 5.98 5.98 1.02 12.08 1.02 C 18.18 1.02 23.15 5.98 23.15 12.08 C 23.15 18.18 18.18 23.15 12.08 23.15 C 5.98 23.15 1.02 18.22 1.02 12.08 Z" fill="#ffffff" fill-opacity="1" fill-rule="nonzero" opacity="0.46" stroke="#3d85c6" stroke-linecap="butt" stroke-linejoin="miter" stroke-opacity="1" stroke-width="2" transform="translate(294.95 266.68)"/><path d="M 2.97 0 L 36.04 0 C 30.06 3.17 25.5 8.62 23.59 15.21 L 1.26 15.21 C -0.33 9.76 -0.09 5.7 0.24 4.76 C 0.61 3.74 3.01 3.42 3.01 0.57 C 2.97 0.41 2.97 0.24 2.97 0 Z" fill="#ffffff" fill-opacity="1" fill-rule="nonzero" stroke="#3d85c6" stroke-linecap="butt" stroke-linejoin="miter" stroke-opacity="1" stroke-width="2" transform="translate(259.2 257.2)"/><path d="M 0 0 L 145.43 0 C 135.83 0 127.69 6.43 125.09 15.21 L 12.45 15.21 C 10.5 8.62 5.94 3.17 0 0 Z" fill="#ffffff" fill-opacity="1" fill-rule="nonzero" stroke="#3d85c6" stroke-linecap="butt" stroke-linejoin="miter" stroke-opacity="1" stroke-width="2" transform="translate(318.83 257.2)"/><path d="M 0 0 C 0 0.04 0.04 0.08 0.04 0.16 C 0.04 0.12 0 0.08 0 0 Z" fill="#ffffff" fill-opacity="1" fill-rule="nonzero" stroke="#3d85c6" stroke-linecap="butt" stroke-linejoin="miter" stroke-opacity="1" stroke-width="2" transform="translate(507.38 259.07)"/><path d="M 0 0 C 0 0.04 0 0.04 0.04 0.08 C 0 0.04 0 0 0 0 Z" fill="#ffffff" fill-opacity="1" fill-rule="nonzero" stroke="#3d85c6" stroke-linecap="butt" stroke-linejoin="miter" stroke-opacity="1" stroke-width="2" transform="translate(507.79 260.21)"/><path d="M 0.02 0.02 C 0.02 0.02 0.02 -0.02 0.02 0.02 L 0.02 0.02 C -0.02 -0.02 0.02 0.02 0.02 0.02 Z" fill="#ffffff" fill-opacity="1" fill-rule="nonzero" stroke="#3d85c6" stroke-linecap="butt" stroke-linejoin="miter" stroke-opacity="1" stroke-width="2" transform="translate(506.43 257.23)"/><path d="M 0 0 C 0.04 0.04 0.04 0.08 0.08 0.12 C 0.08 0.08 0.04 0.04 0 0 Z" fill="#ffffff" fill-opacity="1" fill-rule="nonzero" stroke="#3d85c6" stroke-linecap="butt" stroke-linejoin="miter" stroke-opacity="1" stroke-width="2" transform="translate(506.9 258.1)"/><path d="M 44.14 5.9 C 42.39 6.22 39.46 5.82 36 5.45 C 30.59 4.84 24.49 3.3 20.95 0.61 C 20.71 0.45 20.46 0.24 20.22 0 L 0 0 C 9.6 0 17.74 6.43 20.34 15.21 L 40.84 15.21 C 41.53 15.05 42.19 14.97 42.8 14.85 C 44.67 14.56 45.56 13.59 44.14 5.9 Z" fill="#ffffff" fill-opacity="1" fill-rule="nonzero" stroke="#3d85c6" stroke-linecap="butt" stroke-linejoin="miter" stroke-opacity="1" stroke-width="2" transform="translate(464.3 257.2)"/></svg>