<svg xmlns="http://www.w3.org/2000/svg" xmlns:xlink="http://www.w3.org/1999/xlink" width="2560" height="1440" stroke="#000" stroke-linecap="round" stroke-linejoin="round" fill="#fff" fill-rule="evenodd"><style><![CDATA[.B{stroke-linecap:butt}.C{fill:none}.D{stroke-width:5}.E{stroke:none}.F{fill-rule:nonzero}.G{stroke:#646464}.H{stroke:#3d85c6}.I{stroke:#11d0ae}.J{fill-opacity:.67}.K{fill:#11d0ae}.L{stroke-linejoin:miter}]]></style><path d="M2366.35 883.48c43.76 0 77.79 34.03 77.79 77.79v4.86c17.02 9.72 31.6 29.17 31.6 53.48 0 34.03-26.74 60.77-60.77 60.77-4.86 0-9.72 0-14.59-2.43-9.72 19.45-31.6 34.04-55.91 34.04-7.29 0-12.15 0-17.01-2.43-9.73 17.01-29.18 29.17-51.05 29.17h-9.73v4.86c0 19.45-17.01 36.46-36.46 36.46-14.59 0-29.17-9.72-34.03-21.88-7.3 7.3-17.02 12.16-26.74 12.16-9.73 0-19.45-4.86-26.75-12.16h-7.29c2.43 4.87 2.43 7.3 2.43 12.16 0 14.58-12.15 29.17-29.17 29.17-14.58 0-29.17-12.15-29.17-29.17 0-14.59 12.16-29.17 29.17-29.17h2.43c-4.86-4.86-7.29-12.16-7.29-21.88 0-19.45 17.02-36.46 36.46-36.46 7.3 0 12.16 2.43 17.02 4.86 7.29-9.73 17.02-17.02 31.6-17.02v-12.15c0-26.74 17.02-51.05 43.76-58.35 7.29-24.31 29.17-41.32 55.91-41.32 0-41.33 34.03-75.36 77.79-75.36h0zm-106.96 19.45c4.86 0 12.15 4.86 12.15 12.15 0 4.86-4.86 12.16-12.15 12.16-4.86 0-12.15-4.87-12.15-12.16 2.43-7.29 7.29-12.15 12.15-12.15h0zm250.39 24.31a21.8 21.8 0 1 1 0 43.75 21.8 21.8 0 1 1 0-43.75h0zm-63.21-126.41c19.45 0 36.47 17.01 36.47 36.46s-17.02 36.46-36.47 36.46-36.46-17.01-36.46-36.46 14.58-36.46 36.46-36.46h0zm-92.37-41.33c4.86 0 12.15 4.86 12.15 12.15 0 4.87-4.86 12.16-12.15 12.16-4.87 0-12.16-4.86-12.16-12.16 0-7.29 4.86-12.15 12.16-12.15h0z" fill="#525252" fill-opacity=".52" class="E"/><g stroke-width="2"><ellipse cx="1329.38" cy="1343.23" fill="#e0e0e0" rx="809.88" ry="18.13" stroke-opacity=".02"/><g stroke="#434343" class="L"><path d="M1050.1 671.33h21.24v446.86h-21.24V671.33zm1.96-87.05h17.47v82.99h-17.47v-82.99z"/><path d="M1043.17 661.7h34.94v26.66h-34.94V661.7z"/><path d="M1088.21 1113.68h-54.82c-7.98 0-14.46 6.48-14.46 14.46h83.74c0-7.98-6.48-14.46-14.46-14.46" class="B"/><path d="M1874.09 671.33h21.24v446.86h-21.24V671.33zm1.81-87.05h17.47v82.99h-17.47v-82.99z"/><path d="M1867.16 661.7h34.94v26.66h-34.94V661.7z"/><path d="M1912.05 1113.68h-54.82c-7.98 0-14.46 6.48-14.46 14.46h83.74c0-7.98-6.48-14.46-14.46-14.46" class="B"/><path d="M1850.75 569.67h67.77v16.57h-67.77v-16.57zm-615.85 494.76h240.37v67.62H1234.9v-67.62z"/><path d="M1234.9 1064.43h240.37v58.14H1234.9v-58.14z"/><path d="M1338.52 1099.53h349.12l29.07-62.96h345.05l36.45 62.96v117.17H598.12l-37.65-117.17z"/><path d="M1687.64 1099.53l29.07-62.96h345.05l36.44 62.96zm410.56 91.71v29.97H821.32l-278.93-29.97zM925.55 1054.49h90.82V668.47h-90.82v386.02zm-321.26-13.26h81.48v49.4h-81.48v-49.4z"/><g class="B"><path d="M948.14 668.47v410.12l-380.29 40.81-29.37-18.37-.15-42.32c0-27.26 2.41-59.34 6.78-93.08.3-2.56.75-4.97 1.05-7.53l31.63-170.94 4.37-23.35c24.1-120.34 259.5-95.34 365.98-95.34"/><path d="M948.14 668.48v19.73c-180.28-1.21-321.25 14.15-364.78 70.48 29.67-114.46 259.8-90.21 364.78-90.21M601.13 799.05l-11 59.79-16.72 90.97c-1.2 6.78-4.66 11.45-11.59 12.8l-16.57 3.16c.3-2.56.75-4.97 1.05-7.53l9.94-53.46 21.69-117.48v-.15h16.72c4.97 0 7.83 4.52 6.48 11.9"/><path d="M601.13 799.05l-10.99 59.79-2.26 12.35-26.36 4.67 16.42-88.56v-.15h16.71c4.97 0 7.84 4.52 6.48 11.9"/></g><path d="M535.01 1009.3a12.8 12.8 0 0 0-12.8 12.8v66.42a12.8 12.8 0 0 0 12.8 12.8h37.2c7.08 0 18.38-.75 25.31-1.8l82.23-11.9a15.3 15.3 0 0 0 12.65-14.61v-51.06a12.8 12.8 0 0 0-12.8-12.8l-144.59.15zm363.12-222.15c11.15 0 20.33 9.19 20.33 20.33v70.94c0 11.15-9.03 21.99-20.03 23.8l-17.77 3.01-208.9 36.15-34.64 6.02h-.3c-10.99 1.96-18.37-5.57-16.42-16.57l9.19-50.15 7.38-40.06 6.18-33.74c1.95-10.99 12.8-20.03 24.09-20.03h20.04 66.11 89.62 32.23 22.89z"/><path d="M904.77 788.21c.15 0 .3.15.45.15m-7.08-1.21h.45.15.3.15.3.16.45.15.3.15.3.15.45.15.3.16.3.15c.15 0 .15 0 .3.15h.15c.15 0 .3.15.45.15h.15c.15 0 .15 0 .3.15h.15c.15 0 .15 0 .3.15h.16c.15 0 .3.15.45.15h.15c.15 0 .15 0 .3.16h.15c.15 0 .15 0 .3.15 0 0 .15 0 .15.15.15 0 .15.15.3.15h.15c.15 0 .3.15.46.15 0 0 .15 0 .15.15 0 0 .15 0 .15.15 0 0 .15 0 .15.15 0 0 .15 0 .15.15 0 0 .15 0 .15.15.15 0 .15.15.3.15s.15.15.3.15c0 0 .15 0 .15.15l.15.15.15.15.15.15s.15 0 .15.16c.15.15.3.15.3.3 0 0 .16 0 .16.15l.15.15.15.15.15.15.15.15c.3.15.45.45.75.6h.15c.15 0 .15.15.3.15l.15.15.15.15h0l.46.46h0l.15.15h0c0 .15.15.15.15.3h0l.75.75h0c0 .15.15.15.15.3h0l.9 1.21h0c0 .15.15.15.15.3h0c.16.3.46.6.61.9h0c0 .15.15.15.15.3h0c.3.45.45.91.75 1.36h0c.15.45.45.9.6 1.35h0c-2.86 8.14-10.24 14.91-18.82 16.42l-17.77 3.01-247.91 43.53 4.07-22.44 6.17-33.74c1.96-10.99 12.8-20.03 24.1-20.03h20.03 66.12 89.61 32.23 23.8z" class="B"/><path d="M875.69 1119.25h102.27v-39.61l-201.82 26.96-65.67-5.57H539.08v18.22h127.57z"/><g class="B"><path d="M985.94 1196.36a152 152 0 0 0-38.7-77.41h-58.29c30.27 15.36 52.86 43.53 60.7 77.41 1.95 8.44 3.01 17.17 3.01 26.21 0 3.61-.15 7.08-.45 10.69-.15 1.96-.46 3.92-.61 5.73h36l.45-4.22c.3-4.07.45-8.13.45-12.2-.3-8.89-1.05-17.62-2.56-26.21m32.53 12.8h0c-1.51-3.01-2.26-6.32-2.26-9.79v-15.21.6 14.61c0 3.47.75 6.78 2.26 9.79"/><path d="M1022.69 1215.19c-1.66-1.8-3.17-3.76-4.22-6.02h0a20.5 20.5 0 0 0 4.22 6.02m-478.94-109.34h237.36c13.25 0 24.25 10.84 24.25 24.25v66.87c0 13.25-10.85 24.25-24.25 24.25H543.75c-13.26 0-24.25-10.85-24.25-24.25v-66.87c0-13.26 10.84-24.25 24.25-24.25"/></g><path d="M519.5 1146.81h65.97a6.7 6.7 0 0 1 6.62 6.63v29.37a6.7 6.7 0 0 1-6.62 6.62H519.5v-42.62z"/><path d="M564.98 1146.81h20.48a6.7 6.7 0 0 1 6.63 6.63v29.37a6.7 6.7 0 0 1-6.63 6.62h-20.48v-42.62zm239.62 56.03c-2.71 10.54-12.2 18.22-23.49 18.22H543.75a24.4 24.4 0 0 1-23.5-18.22H804.6z"/><g class="B"><path d="M965.46 1192.75c-14.16-70.94-77.87-123.65-152.57-121.84-74.7 1.8-135.7 57.68-146.4 129.22-1.35 8.58-1.8 17.32-1.65 26.21a148.2 148.2 0 0 0 1.35 16.41l36-.9c-.9-5.27-1.51-10.85-1.51-16.42-.15-9.04.61-17.77 2.41-26.36 10.7-51.81 55.88-91.27 111-92.62a116.3 116.3 0 0 1 115.37 87.05c2.11 8.44 3.46 17.17 3.62 26.21.15 5.57-.16 10.99-.76 16.42l36-.91c.45-5.42.6-10.84.45-16.42-.6-8.73-1.51-17.47-3.31-26.05"/><path d="M942.72 1219.55c-1.66-69.58-59.49-124.55-129.08-122.89-69.58 1.65-124.55 59.49-122.89 129.07 1.65 69.58 59.49 124.55 129.07 122.9 69.43-1.66 124.56-59.49 122.9-129.08"/><path d="M690.74 1227.54c2.71 68.68 60.09 122.75 128.92 121.09 66.87-1.66 120.34-55.13 122.9-120.94-2.71-68.68-60.09-122.75-128.92-121.09-66.87 1.65-120.34 55.12-122.9 120.94"/><use xlink:href="#B"/><use xlink:href="#C"/><use xlink:href="#D"/><path d="M880.67 1221.06c.15 6.33-.61 12.51-2.26 18.38-5.43 19.73-20.34 35.69-39.61 42.47a63.5 63.5 0 0 1-19.43 3.62c-6.78.15-13.41-.76-19.58-2.56-19.28-5.73-34.79-20.64-41.42-39.61-2.11-6.03-3.31-12.35-3.46-19.13-.15-6.63.75-13.11 2.56-19.13a63 63 0 0 1 39.91-41.87c6.02-2.11 12.35-3.31 18.98-3.46a61.7 61.7 0 0 1 19.12 2.56 62.6 62.6 0 0 1 42.17 40.66c1.81 5.57 2.87 11.75 3.02 18.07"/><path d="M754.9 1220.61c.15-5.42 1.05-10.54 2.56-15.51a63 63 0 0 1 39.91-41.87 61.3 61.3 0 0 1 18.98-3.46c6.63-.15 13.1.75 19.13 2.56 19.88 5.72 35.69 20.93 42.17 40.66 1.81 5.57 3.01 11.6 3.16 17.77a59 59 0 0 1-2.26 14.76c-5.42 19.73-20.33 35.7-39.61 42.48a63.7 63.7 0 0 1-19.43 3.61c-6.78.15-13.4-.75-19.58-2.56a63.2 63.2 0 0 1-41.42-39.61c-2.25-6.18-3.46-12.35-3.61-18.83"/><path d="M855.96 1221.66a38.5 38.5 0 0 1-1.35 11.15c-3.32 11.9-12.35 21.54-24.1 25.75a34.4 34.4 0 0 1-11.75 2.11 35.2 35.2 0 0 1-11.9-1.65c-11.74-3.47-21.08-12.5-25.15-24.1a41.8 41.8 0 0 1-2.11-11.6 36.5 36.5 0 0 1 1.51-11.6c3.46-11.89 12.5-21.38 24.1-25.3a41.7 41.7 0 0 1 11.44-2.11c4.07-.15 7.99.45 11.6 1.51 12.05 3.46 21.54 12.65 25.45 24.55 1.36 3.76 2.11 7.53 2.26 11.29"/><use xlink:href="#E"/><path d="M801.9 1221.06a21.1 21.1 0 0 1 .6-3.01 16.6 16.6 0 0 1 10.09-10.7c1.51-.45 3.17-.9 4.82-.9 1.66 0 3.32.15 4.82.6 5.12 1.51 9.04 5.42 10.7 10.39a23.6 23.6 0 0 1 .75 3.47l-.45 2.71c-1.36 4.97-5.12 9.04-10.09 10.84-1.51.61-3.17.91-4.97.91-1.81 0-3.47-.15-4.97-.61-4.97-1.5-8.89-5.27-10.55-10.09-.45-1.05-.6-2.26-.75-3.61"/></g><path d="M880.66 1221.06h0zm-125.76 3.16h0v-1.65 1.65h0z"/><g class="B"><path d="M816.5 1159.77h1.2-1.2zm18.37 2.26h-.15.15 0zm.31.15h-.15.15z"/><use xlink:href="#F"/><path d="M790.9 1175.89c2.11-1.21 4.82-.46 6.03 1.65 1.2 2.11.45 4.82-1.66 6.03-2.11 1.2-4.82.45-6.02-1.66-1.21-1.96-.46-4.67 1.65-6.02m-19.73 19.87a4.4 4.4 0 0 1 6.02-1.65c2.11 1.2 2.86 3.91 1.66 6.02-1.21 2.11-3.92 2.86-6.03 1.66-2.25-1.36-2.86-3.92-1.65-6.03"/><use xlink:href="#G"/><use xlink:href="#H"/><path d="M790.9 1269.41c-2.11-1.21-2.86-3.92-1.65-6.03a4.4 4.4 0 0 1 6.02-1.65c2.11 1.2 2.86 3.91 1.66 6.02-1.21 2.11-3.92 2.86-6.03 1.66"/><use xlink:href="#I"/><path d="M844.82 1269.41c-2.11 1.2-4.82.45-6.02-1.66a4.4 4.4 0 0 1 1.65-6.02c2.11-1.21 4.82-.46 6.03 1.65 1.05 2.11.45 4.67-1.66 6.03"/><use xlink:href="#J"/><path d="M871.78 1222.72c0 2.41-1.96 4.36-4.37 4.36s-4.37-1.95-4.37-4.36 1.96-4.37 4.37-4.37c2.41-.15 4.37 1.81 4.37 4.37m-7.23-26.96c1.2 2.11.45 4.82-1.66 6.03-2.11 1.2-4.82.45-6.02-1.66a4.4 4.4 0 0 1 1.65-6.02c2.11-1.21 4.82-.6 6.03 1.65"/><use xlink:href="#K"/></g><path d="M616.19 1145.91h3.16v-7.53c0-8.28 6.78-14.91 14.91-14.91h60.4c.75-1.05 1.5-1.96 2.26-3.01h-65.97c-8.28 0-14.91 6.78-14.91 14.91v10.54zm-96.54-13.56h72.44v2.41h-72.44v-2.41zm0 2.56h72.44v2.41h-72.44v-2.41z"/><path d="M537.43 1016.08h6.17c-4.97 0-9.03 4.07-9.03 9.04v59.94c0 4.97 4.06 9.04 9.03 9.04h-6.17c-4.97 0-9.04-4.07-9.04-9.04v-59.94c0-4.97 4.07-9.04 9.04-9.04" class="B"/><path d="M587.58 1009.31v91.42h7.98V997.71z"/><path d="M587.58 1009.31v91.42h7.98V997.71z" class="F"/><g class="B"><path d="M540.43 1009.31h47.14l7.98-11.6h-54.07c-.45 3.92-.75 7.83-1.05 11.6m89.77-25.61l292.48-43.22c5.28-.75 10.1 2.86 10.85 8.13h0c.75 5.27-2.86 10.09-8.13 10.85l-292.49 43.22c-5.27.75-10.09-2.86-10.84-8.13h0c-.76-5.27 3.01-10.09 8.13-10.85"/><path d="M933.38 952.08a9.7 9.7 0 0 1-7.83 7.23l-292.49 43.22a9.5 9.5 0 0 1-10.69-7.23 9.7 9.7 0 0 1 7.83-7.23l292.49-43.22c4.97-.76 9.64 2.56 10.69 7.23"/></g><path d="M594.5 787.16h353.63v-24.4H606.7c-6.78 0-12.2 5.42-12.2 12.2v12.2z"/><path d="M599.47 787.16h348.66v-19.13H611.67c-6.78 0-12.2 5.42-12.2 12.2v6.93zm247.76-71.55h169.14v6.93H861.99z"/><path d="M847.23 715.62h169.14v-7.08H861.99z"/><g class="B"><path d="M792.71 1014.58h30.42c3.92 0 7.08-3.17 7.08-7.08v-7.08h-44.73v7.08a7.3 7.3 0 0 0 7.23 7.08"/><path d="M792.71 987.47h30.42c3.92 0 7.08 3.16 7.08 7.08v7.08h-44.73v-7.08a7.3 7.3 0 0 1 7.23-7.08m240.07 135.09h724.43c9.04 0 16.42 7.38 16.42 16.42v20.33c0 9.04-7.38 16.42-16.42 16.42h-724.43c-9.04 0-16.42-7.38-16.42-16.42v-20.33c0-9.04 7.38-16.42 16.42-16.42"/><path d="M1032.78 1122.56h724.43c9.04 0 16.42 7.38 16.42 16.42v13.1c0 9.04-7.38 16.42-16.42 16.42h-724.43c-9.04 0-16.42-7.38-16.42-16.42v-13.1c0-9.04 7.38-16.42 16.42-16.42"/><path d="M2035.55 1191.85c-14.16-70.94-77.87-123.65-152.57-121.84-74.71 1.8-135.7 57.68-146.4 129.22-1.35 8.58-1.8 17.32-1.65 26.21a148.2 148.2 0 0 0 1.35 16.41l20.49-.45c-.76-5.27-1.21-10.84-1.36-16.42-1.05-42.02 17.92-79.97 48.2-104.82 21.83-17.92 49.7-29.07 80.12-29.82a130.8 130.8 0 0 1 81.48 25.75c31.48 23.35 52.11 60.25 53.17 102.27.15 5.57-.15 10.99-.61 16.41l20.49-.45c.45-5.42.6-10.84.45-16.42-.45-8.88-1.36-17.62-3.16-26.05"/><path d="M1964.91 1116.09a130.9 130.9 0 0 0-81.48-25.76 130.6 130.6 0 0 0-80.12 29.82c-29.37 24.1-48.05 60.55-48.2 101.06h30.57a101.1 101.1 0 0 1 98.35-100.3c55.58-1.36 101.97 42.77 103.32 98.34v1.96h30.58v-2.71c-.76-42.02-21.54-79.07-53.02-102.41"/><path d="M2012.66 1219.55c-1.66-69.58-59.49-124.55-129.08-122.89-69.58 1.65-124.55 59.49-122.89 129.07 1.65 69.58 59.49 124.55 129.07 122.9 69.58-1.66 124.71-59.49 122.9-129.08"/><path d="M1760.83 1227.54c2.71 68.68 60.09 122.75 128.92 121.09 66.87-1.66 120.34-55.13 122.9-120.94-2.71-68.68-60.09-122.75-128.92-121.09-67.02 1.65-120.34 55.12-122.9 120.94"/><use xlink:href="#B" x="1070.08"/><use xlink:href="#C" x="1070.09"/><use xlink:href="#D" x="1070.09"/><path d="M1950.76 1221.06c.15 6.33-.61 12.51-2.26 18.38-5.43 19.73-20.34 35.69-39.61 42.47-6.03 2.11-12.65 3.47-19.43 3.62s-13.41-.76-19.58-2.56c-19.28-5.73-34.79-20.64-41.42-39.61-2.11-6.03-3.31-12.35-3.46-19.13-.15-6.63.75-13.11 2.56-19.13a63 63 0 0 1 39.91-41.87c6.02-2.11 12.35-3.31 18.98-3.46a61.7 61.7 0 0 1 19.12 2.56 62.6 62.6 0 0 1 42.17 40.66c1.81 5.57 2.87 11.75 3.02 18.07"/><path d="M1824.99 1220.61c.15-5.42 1.05-10.54 2.56-15.51a63 63 0 0 1 39.91-41.87 61.3 61.3 0 0 1 18.98-3.46c6.63-.15 13.1.75 19.13 2.56 19.88 5.72 35.69 20.93 42.17 40.66 1.81 5.57 3.01 11.6 3.16 17.77a59 59 0 0 1-2.26 14.76c-5.42 19.73-20.33 35.7-39.61 42.48-6.17 2.1-12.65 3.46-19.43 3.61s-13.4-.75-19.58-2.56a63.2 63.2 0 0 1-41.42-39.61c-2.25-6.18-3.46-12.35-3.61-18.83"/><path d="M1925.9 1221.66a38.5 38.5 0 0 1-1.35 11.15c-3.32 11.9-12.35 21.54-24.1 25.75a34.4 34.4 0 0 1-11.75 2.11 35.2 35.2 0 0 1-11.9-1.65c-11.74-3.47-21.08-12.5-25.15-24.1a41.8 41.8 0 0 1-2.11-11.6 36.5 36.5 0 0 1 1.51-11.6c3.46-11.89 12.5-21.38 24.1-25.3a41.7 41.7 0 0 1 11.44-2.11c4.07-.15 7.99.45 11.6 1.51 12.05 3.46 21.54 12.65 25.45 24.55a30.1 30.1 0 0 1 2.26 11.29"/><use xlink:href="#E" x="1070.09"/><path d="M1871.98 1221.06a21.1 21.1 0 0 1 .6-3.01 16.6 16.6 0 0 1 10.09-10.7c1.51-.45 3.17-.9 4.82-.9 1.66 0 3.32.15 4.82.6 5.12 1.51 9.04 5.42 10.7 10.39a23.6 23.6 0 0 1 .75 3.47l-.45 2.71c-1.36 4.97-5.12 9.04-10.09 10.84-1.51.61-3.17.91-4.97.91-1.81 0-3.47-.15-4.97-.61-4.97-1.5-8.89-5.27-10.55-10.09a9.1 9.1 0 0 1-.75-3.61"/></g><path d="M1950.75 1221.06h0zm-125.76 3.16h0v-1.65 1.65h0z"/><g class="B"><path d="M1886.59 1159.77h1.2-1.2zm18.37 2.26h-.15.15 0zm.31.15h-.15.15z"/><use xlink:href="#F" x="1070.09"/><path d="M1860.99 1175.89c2.11-1.21 4.82-.46 6.03 1.65 1.2 2.11.45 4.82-1.66 6.03-2.11 1.2-4.82.45-6.03-1.66-1.2-1.96-.45-4.67 1.66-6.02m-19.73 19.87a4.4 4.4 0 0 1 6.02-1.65c2.11 1.2 2.86 3.91 1.66 6.02-1.21 2.11-3.92 2.86-6.03 1.66-2.26-1.36-3.01-3.92-1.65-6.03"/><use xlink:href="#G" x="1070.09"/><use xlink:href="#H" x="1070.08"/><path d="M1860.99 1269.41c-2.11-1.21-2.86-3.92-1.66-6.03 1.21-2.11 3.92-2.86 6.03-1.65 2.11 1.2 2.86 3.91 1.66 6.02-1.21 2.11-3.92 2.86-6.03 1.66"/><use xlink:href="#I" x="1070.09"/><path d="M1914.91 1269.41c-2.11 1.2-4.82.45-6.02-1.66a4.4 4.4 0 0 1 1.65-6.02c2.11-1.21 4.82-.46 6.03 1.65 1.2 2.11.45 4.67-1.66 6.03"/><use xlink:href="#J" x="1070.09"/><path d="M1941.87 1222.72c0 2.41-1.96 4.37-4.37 4.37s-4.37-1.96-4.37-4.37 1.96-4.37 4.37-4.37 4.37 1.81 4.37 4.37m-7.23-26.96c1.2 2.11.45 4.82-1.66 6.03-2.11 1.2-4.82.45-6.02-1.66a4.4 4.4 0 0 1 1.65-6.02c2.11-1.21 4.67-.6 6.03 1.65"/><use xlink:href="#K" x="1070.09"/></g><path d="M1216.68 1054.49h276.82v17.02h-276.82v-17.02z"/><path d="M1313.37 1181.45c0 12.35-10.1 22.59-22.6 22.59h-252.12c-12.35 0-22.59-10.09-22.59-22.59v-90.67c0-12.35 10.09-22.59 22.59-22.59h252.12c12.35 0 22.6 10.09 22.6 22.59v90.67z"/><g class="B"><path d="M1016.21 1170.3v-79.52c0-12.35 10.09-22.59 22.59-22.59h252.12c12.35 0 22.6 10.09 22.6 22.59v79.52a22.7 22.7 0 0 1-22.6 22.6h-252.27c-12.35-.16-22.44-10.25-22.44-22.6"/><path d="M1016.21 1170.31v-68.23c0-12.35 10.09-22.59 22.59-22.59h252.12c12.35 0 22.6 10.09 22.6 22.59v68.38c0 12.35-10.1 22.59-22.6 22.59h-252.27c-12.35-.3-22.44-10.39-22.44-22.74"/></g><path d="M1071.04 1068.19h12.8v135.85h-12.8v-135.85zm174.55 0h12.8v135.85h-12.8v-135.85zM1038.96 539.4H2159.5v515.09H1038.96V539.4z"/><path d="M1038.96 571.78H2159.5v482.56H1038.96V571.78zm1059.24 552.59h-54.22a6.7 6.7 0 0 0-6.63 6.63v29.37a6.7 6.7 0 0 0 6.63 6.62h54.22v-42.62z"/><path d="M2064.62 1124.37h-20.48a6.7 6.7 0 0 0-6.63 6.63v29.37a6.7 6.7 0 0 0 6.63 6.62h20.48v-42.62z"/><g class="B"><use xlink:href="#L"/><use xlink:href="#L" x="524.12"/><use xlink:href="#L" x="1048.25"/><use xlink:href="#L" y="480.6"/><use xlink:href="#L" x="524.12" y="480.6"/><use xlink:href="#L" x="1048.25" y="480.6"/></g><path d="M1360.81 685.34h-.15.15 0zm251.52 0h-.3.15.15zm132.69 0h-.15.15 0z"/></g></g><g class="D H"><path d="M308.84 554.82h51.72v23.51h-51.72zm-72.88-98.74h197.48v47.02H235.96z"/><path d="M260.64 500.75v-42.32m145.76 42.32v-42.32" class="C"/><path d="M268.87 536.01h131.65v23.51H268.87z"/><path d="M227.73 503.1h213.94v35.26H227.73z"/></g><path d="M328.84 734.26v6.09 3.04h0c3.04 46.42 25.11 88.26 59.35 116.42 29.67 38.8 76.85 63.15 128.59 63.15 70.76 0 131.63-45.65 153.69-108.81 19.03-26.63 30.44-59.35 30.44-95.11 0-3.04 0-6.84-.76-9.89h0V563.06h-15.22v88.26c-25.11-55.54-81.41-94.35-146.85-94.35-25.11 0-48.7 6.09-70 15.98-54.78 8.37-101.2 43.37-124.02 92.07v-86.74h-15.22v149.89 6.09zm143.8-146.85c6.09-.76 12.94-1.52 19.79-1.52a146.9 146.9 0 0 1 68.48 16.74c-13.7-3.81-28.16-6.09-43.37-6.09-35 0-67.72 11.41-94.35 30.44 13.69-15.98 30.43-29.68 49.45-39.57zm44.9 25.11c35 0 67.72 12.17 92.82 32.72 19.03 25.11 29.68 55.54 29.68 89.02 0 57.83-33.48 108.05-82.18 132.39-6.08.77-12.93 1.53-19.78 1.53-81.41 0-148.37-66.2-148.37-148.38 0-16.74 3.04-31.95 7.61-47.17a149.5 149.5 0 0 1 120.22-60.11zm140 194.79c-13.7 19.02-31.96 34.24-53.26 44.89 31.19-29.68 50.98-71.52 50.98-117.94 0-12.93-1.53-25.11-4.57-37.28 9.13 19.02 14.46 40.32 14.46 63.15 0 16.74-2.28 32.72-7.61 47.18zm-146.09 73.8c-6.09.76-12.94 1.52-19.02 1.52-35 0-67.72-12.17-92.83-32.71-19.02-25.11-29.68-55.55-29.68-89.03 0-14.46 2.29-28.15 6.09-41.09v.76c-.76 80.66 57.83 147.62 135.44 160.55zm6.09 27.39a146.9 146.9 0 0 1-68.48-16.74c13.69 3.81 28.15 6.09 43.37 6.09 25.11 0 48.69-6.09 70-15.98 25.87-3.8 49.46-13.69 70-28.15-27.39 33.48-68.48 54.78-114.89 54.78zm168.91-187.94a145.1 145.1 0 0 1-6.08 41.09v-.76c0-50.98-23.59-95.87-59.35-126.31-24.35-31.95-60.87-54.02-101.96-60.87 6.09-.76 12.93-1.52 19.02-1.52a148.1 148.1 0 0 1 148.37 148.37zM426.23 601.87a162.3 162.3 0 0 0-41.09 63.91 162.9 162.9 0 0 0-30.43 95.11 151.7 151.7 0 0 0 4.56 37.28c-8.37-17.49-12.93-36.52-13.69-57.06v-12.94c.76-55.54 33.48-102.72 80.65-126.3z" fill="#3d85c6" class="E F"/><g class="D H"><rect height="30.5" rx="2" width="152.49" x="614.71" y="544.78"/><rect height="385.25" rx="2" width="337.09" x="522.41" y="99.5"/><rect height="72.23" rx="2" width="288.94" x="546.49" y="484.75"/><rect height="227.14" rx="2" width="288.94" x="546.49" y="162.1"/><circle cx="569.76" cy="428.89" r="15.25"/><circle cx="615.51" cy="428.89" r="15.25"/><circle cx="658.21" cy="428.89" r="15.25"/><rect height="30.5" rx="2" width="137.24" x="694.81" y="413.64"/></g><g class="D I"><circle cx="580.42" cy="363.33" r="16.76" class="C"/><circle cx="580.42" cy="363.33" r="16.76" class="J"/></g><path d="M591.3 355.05c-1.12-.88-2.72-.68-3.6.42l-9.18 11.62-5.21-5.42c-.98-1.02-2.61-1.06-3.63-.07-1.02.98-1.06 2.61-.07 3.63l6.23 6.5a3.7 3.7 0 0 0 2.78 1.28h.04c1.12-.01 2.17-.53 2.88-1.44l10.19-12.9c.87-1.13.69-2.75-.43-3.62z" class="E F K"/><path d="M618.56 358.74h182.99m-182.99 12.2h172.32" class="C D G"/><g stroke="#f90" class="D"><circle cx="580.42" cy="192.51" fill-opacity=".7" r="16.76"/><circle cx="580.42" cy="192.51" r="16.76" class="C"/></g><g fill="#f90" class="E"><circle cx="580.42" cy="202.7" r="3.49"/><rect height="16.76" rx="10" width="5.59" x="577.63" y="179.94"/></g><path d="M618.56 184.9h182.99m-182.99 12.2h122" class="C D G"/><g class="D I"><circle cx="580.42" cy="277.92" r="16.76" class="C"/><circle cx="580.42" cy="277.92" r="16.76" class="J"/></g><use xlink:href="#M" class="E F K"/><path d="M618.56 271.82h182.99m-182.99 12.2h122" class="C D G"/><g class="D I"><circle cx="580.42" cy="320.62" r="16.76" class="C"/><circle cx="580.42" cy="320.62" r="16.76" class="J"/></g><use xlink:href="#M" y="42.7" class="E F K"/><path d="M618.56 315.28H755.8m-137.24 12.2h122" class="C D G"/><g stroke="#f90" class="D"><circle cx="580.42" cy="235.21" fill-opacity=".7" r="16.76"/><circle cx="580.42" cy="235.21" r="16.76" class="C"/></g><g fill="#f90" class="E"><circle cx="580.42" cy="245.4" r="3.49"/><rect height="16.76" rx="10" width="5.59" x="577.63" y="222.64"/></g><path d="M618.56 228.35h182.99m-182.99 12.2h39.65" class="C D G"/><g stroke-width="10" class="H"><circle cx="575.47" cy="215.24" fill-opacity=".37" r="76.47"/><path d="M513.28 260.1l-132.55 91.76" class="C"/></g><g stroke="#838383" stroke-width="2" class="C L"><use xlink:href="#N"/><path d="M1883.67 940.91l2.79 8.35-7.16-5.17-6.76 5.17 2.38-8.35-6.76-4.77h8.35l2.79-7.96 2.78 7.96 8.36-.4zm69.22-39.77l2.79 8.35-7.16-5.57-6.76 5.17 2.38-7.95-6.76-4.78 8.35-.39 2.79-7.96 2.78 7.96h8.36z"/><use xlink:href="#N" x="79.96"/><path d="M1814.46 901.14l2.79 8.35-7.16-5.57-6.76 5.17 2.38-7.95-6.76-4.78 8.35-.39 2.79-7.96 2.38 7.96h8.76zm-10.74-39.78l2.79 7.95-7.16-5.17-7.16 5.17 2.78-8.35-6.76-4.77h8.35l2.79-7.96 2.38 7.96h8.76z"/><use xlink:href="#O"/><path d="M1814.46 821.18l2.79 8.35-7.16-5.57-6.76 5.17 2.38-7.95-6.76-5.17h8.35l2.79-7.96 2.38 7.96h8.76zm69.21-40.18l2.79 8.35-7.16-5.57-6.76 5.17 2.38-7.95-6.76-5.17h8.35l2.79-7.96 2.78 7.96h8.36z"/><use xlink:href="#O" x="79.96"/><path d="M1964.03 861.36l2.39 7.95-6.76-5.17-7.16 5.17 2.78-8.35-6.76-4.77h8.35l2.79-7.96 2.38 7.96h8.36zm-11.14-40.18l2.79 8.35-7.16-5.57-6.76 5.17 2.38-7.95-6.76-5.17h8.35l2.79-7.96 2.78 7.96h8.36z"/><path d="M1699.5 739.63h360V979.5h-360z"/></g><defs ><path id="B" d="M942.27 1222.12c-5.42-66.12-61.6-117.18-128.62-115.52-65.07 1.51-117.33 52.11-122.6 115.52a126 126 0 0 0 128.62 115.52c65.07-1.51 117.33-52.12 122.6-115.52"/><path id="C" d="M816.65 1146.81h-1.8c-41.87 1.05-75.01 35.84-73.95 77.71 1.05 41.27 34.79 74.1 75.75 74.1h1.81c41.87-1.05 75.01-35.84 73.95-77.71a75.9 75.9 0 0 0-75.76-74.1m0 163.56a88 88 0 0 1-87.8-85.7c-1.21-48.34 37.2-88.7 85.7-89.91h2.1a88 88 0 0 1 87.81 85.7c1.2 48.34-37.2 88.71-85.7 89.91h-2.11z"/><path id="D" d="M818.46 1298.48a76 76 0 0 1-77.72-73.95 76 76 0 0 1 73.95-77.72 76 76 0 0 1 77.72 73.95 75.9 75.9 0 0 1-73.95 77.72"/><path id="E" d="M833.82 1222.27a15.9 15.9 0 0 1-.6 4.67c-1.36 4.97-5.12 9.04-10.09 10.85-1.51.6-3.17.9-4.97.9-1.81 0-3.47-.15-4.97-.6-4.97-1.51-8.89-5.27-10.55-10.09-.6-1.51-.9-3.17-.9-4.82 0-1.66.15-3.32.6-4.82a16.6 16.6 0 0 1 10.09-10.7c1.51-.45 3.17-.9 4.82-.9 1.66 0 3.32.15 4.82.6 5.12 1.51 9.04 5.42 10.7 10.39.75 1.36 1.05 2.87 1.05 4.52"/><path id="F" d="M817.86 1168.8c2.41 0 4.36 1.96 4.36 4.37s-1.95 4.37-4.36 4.37-4.37-1.96-4.37-4.37c-.15-2.41 1.81-4.37 4.37-4.37"/><path id="G" d="M763.94 1222.72c0-2.41 1.96-4.37 4.37-4.37s4.37 1.96 4.37 4.37-1.96 4.37-4.37 4.37-4.37-1.96-4.37-4.37"/><path id="H" d="M771.18 1249.68a4.4 4.4 0 0 1 1.65-6.02c2.11-1.21 4.82-.46 6.03 1.65 1.2 2.11.45 4.82-1.66 6.03-2.11 1.05-4.82.45-6.02-1.66"/><path id="I" d="M817.86 1276.49c-2.41 0-4.37-1.96-4.37-4.37s1.96-4.37 4.37-4.37 4.37 1.96 4.37 4.37-1.96 4.37-4.37 4.37"/><path id="J" d="M864.55 1249.68c-1.21 2.11-3.92 2.86-6.03 1.66-2.11-1.21-2.86-3.92-1.65-6.03a4.4 4.4 0 0 1 6.02-1.65c2.11 1.2 2.86 3.76 1.66 6.02"/><path id="K" d="M844.82 1175.89c2.11 1.2 2.86 3.91 1.66 6.02-1.21 2.11-3.92 2.86-6.03 1.66-2.11-1.21-2.86-3.92-1.65-6.03a4.4 4.4 0 0 1 6.02-1.65"/><path id="L" d="M1058.39 549.64h33.58c2.11 0 3.77 1.66 3.77 3.77v6.47c0 2.11-1.66 3.77-3.77 3.77h-33.58c-2.11 0-3.77-1.66-3.77-3.77v-6.47c0-2.11 1.66-3.77 3.77-3.77"/><path id="M" d="M591.3 269.64c-1.12-.88-2.72-.68-3.6.42l-9.18 11.62-5.21-5.42c-.98-1.02-2.61-1.06-3.63-.07-1.02.98-1.06 2.61-.07 3.63l6.23 6.5a3.7 3.7 0 0 0 2.78 1.28h.04a3.7 3.7 0 0 0 2.88-1.44l10.19-12.9c.87-1.13.69-2.75-.43-3.62z"/><path id="N" d="M1843.5 930.57l2.78 7.95-6.76-5.17-7.16 5.17 2.78-8.35-6.76-4.77h8.35l2.79-7.96 2.38 7.96h8.36z"/><path id="O" d="M1843.5 792.14l2.78 8.35-6.76-5.57-7.16 5.17 2.78-7.95-6.76-5.17h8.35l2.79-7.96 2.38 7.96h8.36z"/></defs></svg>