<svg xmlns="http://www.w3.org/2000/svg" xmlns:xlink="http://www.w3.org/1999/xlink" width="800" height="600" stroke="#000" stroke-linecap="round" stroke-linejoin="round" fill="#fff" fill-rule="evenodd"><style><![CDATA[.B{fill:none}.C{stroke-width:2}.D{stroke:none}.E{stroke:#3d85c6}.F{fill:#3d85c6}.G{stroke-width:3}.H{stroke:#434343}.I{fill-rule:nonzero}]]></style><defs><path d="M0 0l4 5h-8z" id="A" class="D"/><path id="B" d="M349.14 524.82c0 22.84-18.52 41.36-41.36 41.36s-41.36-18.52-41.36-41.36 18.52-41.36 41.36-41.36 41.36 18.52 41.36 41.36z"/><path id="C" d="M327.84 524.82a20.1 20.1 0 0 1-20.06 20.06c-5.33 0-10.43-2.11-14.19-5.87-3.77-3.77-5.88-8.87-5.88-14.19a20 20 0 0 1 20.07-20.07c5.32 0 10.42 2.11 14.19 5.88 3.76 3.76 5.87 8.86 5.87 14.19z"/><path id="D" d="M323.56 524.82c0 4.18-1.67 8.2-4.63 11.15-2.95 2.96-6.97 4.63-11.15 4.63a15.8 15.8 0 0 1-11.16-4.63c-2.96-2.95-4.62-6.97-4.62-11.15 0-4.19 1.66-8.2 4.62-11.16s6.97-4.62 11.16-4.62c4.18 0 8.2 1.66 11.15 4.62a15.8 15.8 0 0 1 4.63 11.16z"/><path id="E" d="M310.08 524.82a2.3 2.3 0 1 1-4.6 0 2.3 2.3 0 1 1 4.6 0z"/><path id="F" d="M308.7 514.71c0 .24-.1.48-.27.65s-.41.27-.65.27-.48-.1-.65-.27-.27-.41-.27-.65.1-.48.27-.65.41-.27.65-.27.48.1.65.27.27.41.27.65z"/><path id="G" d="M314.21 517.01c-.31.31-.31.92 0 1.23.31.3.92.3 1.23 0 .3-.31.3-.92 0-1.23-.31-.31-.77-.31-1.23 0z"/><path id="H" d="M316.97 524.82c0 .46.46.92.92.92s.92-.46.92-.92-.46-.92-.92-.92c-.61 0-.92.46-.92.92z"/><path id="I" d="M299.97 517.01c-.31.31-.31.92 0 1.23.31.3.92.3 1.23 0 .3-.31.3-.92 0-1.23-.31-.31-.92-.31-1.23 0z"/><path id="J" d="M339.95 554.69l1.07-7.05-11.03 10.88 7.05-.92z"/><path id="K" d="M322.79 566.18l4.14-5.82-14.71 4.6 6.74 2.45z"/><path id="L" d="M269.18 545.96l6.28 3.22-6.74-13.79-1.38 6.89z"/><path id="M" d="M278.83 496.64l12.56-8.73-7.05-.31-3.37 2.3z"/><path id="N" d="M343.78 382.21c-.77 0-1.38.61-1.38 1.38 0 .76.61 1.38 1.38 1.38h13.94c.76 0 1.38-.62 1.38-1.38 0-.77-.62-1.38-1.38-1.38h-13.94z"/><path id="O" d="M553.02 531.25c-.31.31-.31.92 0 1.23.31.3.92.3 1.23 0 .3-.31.3-.92 0-1.23-.46-.31-.92-.31-1.23 0z"/><path id="P" d="M531.73 496.64l12.71-8.73-7.2-.31-3.21 2.3z"/></defs><g class="E"><g class="C"><path d="M212.32 188.55H329.5v70.93H212.32zm13.57-24.05h33.92v11.1h-33.92z"/><path d="M226.51 175.6h12.33v12.33h-12.33zm-.81 83.88h40.09v6.17H225.7zm50.33 0h40.09v6.17h-40.09z"/></g><circle cx="270.61" cy="204.99" r="4.79"/><circle cx="280.04" cy="216.98" r="7.19"/><circle cx="261.35" cy="228.01" r="10.87"/></g><path d="M188.97 265.71H39.5V396h149.47v-15.47l16.35-39.62-16.35-.19v-75.01" stroke="#f90" class="C"/><g transform="matrix(0 1 -1 0 77.25 276.89)"><path d="M0 0h101.03" class="B E G"/><use transform="matrix(0 1.5 -1.5 0 107.775 -107.775)" x="71.85" xlink:href="#A" class="F"/></g><circle cx="36.25" cy="36.25" transform="matrix(0 1 -1 0 185.54 290.6)" r="36.25" class="D"/><g transform="matrix(0 -1 1 0 143.29 381.26)"><path d="M0 0h101.03" class="B E G"/><use transform="matrix(0 1.5 -1.5 0 107.775 -107.775)" x="71.85" xlink:href="#A" class="F"/></g><circle cx="36.25" cy="36.25" transform="matrix(0 -1 1 0 107.35 364.27)" r="36.25" class="D"/><path d="M159.84 314.72a4.1 4.1 0 0 0-5.73.66l-14.59 18.48-8.28-8.62c-1.55-1.62-4.15-1.68-5.77-.11a4.1 4.1 0 0 0-.12 5.78l9.91 10.32a5.9 5.9 0 0 0 4.42 2.05h.07a5.9 5.9 0 0 0 4.57-2.29l16.21-20.52a4.1 4.1 0 0 0-.69-5.75z" fill="#11d0ae" class="D I"/><circle cx="142.54" cy="327.89" stroke="#11d0ae" r="26.65" class="B G"/><circle cx="36.25" cy="36.25" transform="matrix(0 -1 1 0 41.02 364.27)" r="36.25" class="D"/><g stroke="#f90" class="G"><circle cx="77.4" cy="327.89" fill-opacity=".7" r="26.65"/><circle cx="77.4" cy="327.89" r="26.65" class="B"/></g><g fill="#f90" class="D"><circle cx="77.4" cy="344.1" r="5.55"/><rect height="26.65" rx="10" width="8.88" x="72.96" y="307.9"/></g><ellipse cx="470.23" cy="565.74" fill="#e0e0e0" rx="275.73" ry="7.66" stroke-opacity=".02"/><g stroke-linejoin="miter" class="H I"><path d="M703.3 488.67l4.29 4.29 14.7-68.93h-14.7l-4.29 46.57z"/><path d="M328.92 340.39h19.91l29.26 29.26 28.49 120.7h294.88l20.83-119.02h20.68v-22.36L374.72 314.5h-45.8z"/><path d="M413.93 494.8h4.44l-12.4-149.2h-4.6zm39.98-.01h4.44l-12.56-146.44h-4.44zm39.83 0h4.44l-12.56-143.53h-4.44zm39.83 0h4.6l-12.56-140.77h-4.6zm39.98 0h4.44l-12.56-137.86h-4.44zm39.83.01h4.44l-12.56-135.11h-4.44zm39.83 0h4.59l-12.56-132.2h-4.44zm39.98 0h4.44l-12.56-129.44h-4.44zm-334.1 5.05h321.68v10.42H359.09v-10.42z"/><path d="M352.2 486.98v17.31h365.65c0-14.25-11.64-17.31-11.64-17.31H352.2z"/><use xlink:href="#B"/><use xlink:href="#C"/><use xlink:href="#D"/><path d="M314.52 524.82c0 3.72-3.02 6.74-6.74 6.74s-6.74-3.02-6.74-6.74c0-1.79.71-3.5 1.97-4.77 1.27-1.26 2.98-1.97 4.77-1.97s3.5.71 4.77 1.97c1.26 1.27 1.97 2.98 1.97 4.77z"/><use xlink:href="#E"/><use xlink:href="#F"/><use xlink:href="#G"/><use xlink:href="#H"/><use xlink:href="#G" y="14.24"/><use xlink:href="#H" x="-10.11" y="10.11"/><use xlink:href="#F" x="-7.2" y="17.31"/><use xlink:href="#H" x="-20.22"/><use xlink:href="#I"/><path d="M300.12 485.15h15.32l-5.67-4.29h-3.98zm18.84.76l13.63 7.05-3.06-6.43-3.52-1.69zm25.43 21.91l.15-7.05-2.3-3.37-6.89-1.99zm3.68 18.54l3.37-6.29-.61-3.98-5.06-4.9zm.76 14.24l1.23-3.83-2.3-6.74-4.75 14.55z"/><use xlink:href="#J"/><use xlink:href="#K"/><path d="M302.26 568.48l6.44-3.22-15.17-2.6 4.75 5.06zm-19.3-7.36h7.2l-12.41-9.19 1.99 6.89z"/><use xlink:href="#L"/><path d="M267.96 531.86l.3-15.47-4.44 5.67v3.98zm1.22-18.99l7.2-13.48-6.44 2.91-1.99 3.52z"/><use xlink:href="#M"/><use xlink:href="#M"/><path d="M264.74 374.85c-3.07 0-5.67 2.6-5.67 5.67 0 3.06 2.6 5.67 5.67 5.67h54.68c3.07 0 5.67-2.61 5.67-5.67 0-3.07-2.6-5.67-5.67-5.67h-54.68zm-49.02 83.49v31.4c0 1.84 1.69 3.37 3.68 3.37s3.67-1.53 3.67-3.37v-31.4c0-1.84-1.68-3.37-3.67-3.37-1.99.15-3.68 1.53-3.68 3.37z"/><path d="M217.25 452.37v41.05a4.3 4.3 0 0 0 4.29 4.29c2.45 0 4.44-1.99 4.44-4.29v-41.05c0-2.45-1.99-4.29-4.44-4.29-2.3-.15-4.29 1.84-4.29 4.29zm113.81-48.1h11.95v72.15h-11.95v-72.15z"/><path d="M257.07 379.45c-10.72 0-36.15 57.29-36.15 57.29v68.93h42.43s17.16-28.49 37.84-28.49h34.62v-83.79s5.21-13.94-13.94-13.94h-64.8z"/><path d="M235.48 441.8v51.77h18.08l.15-.31s19.15-29.71 63.57-29.71h.61v-69.24s0-9.96-6.12-14.86h-2.46c7.2 3.83 7.2 14.86 7.2 14.86v67.86c-41.97.31-61.58 26.96-63.72 30.02h-16.08V441.8h-1.23zm32.01-55.3v44.58h40.13v-32.33s-.92-12.25-9.95-12.25h-30.18z"/><path d="M235.48 445.32h4.6v-14.24h18.68V386.5h-5.2l-18.08 36.92v21.9z"/><path d="M235.48 423.41v22.06h2.3v-15.78l2.91-2.91v-6.44c-.92-1.37-1.69-1.99-2.61-2.14l-2.6 5.21z"/><path d="M237.93 408.25v19.46c0 2.29 1.84 3.98 3.98 3.98 2.3 0 3.99-1.84 3.99-3.98v-19.46c0-2.29-1.84-3.98-3.99-3.98-2.14 0-3.98 1.84-3.98 3.98zm102.32 63.26h-47.79s-11.95 2.6-20.68 13.63l-11.34 14.56h-30.02l-9.35-4.6h-5.21l-5.05 5.06v11.18h55.45s17.77-25.28 34.01-27.12c16.24-1.99 35.54 0 35.54 0s11.95 9.65 11.95 31.1h16.54c-.15-.15-3.37-43.81-24.05-43.81z"/><path d="M340.25 471.51h-47.79s-11.95 2.6-20.68 13.63l-11.34 14.56h-30.02l-9.35-4.6h-5.21l-5.05 5.06v3.21l5.05-5.05h5.21l9.35 4.59h30.02s2.61-3.52 11.34-14.55 20.68-13.63 20.68-13.63h47.79c17.31 0 22.36 30.33 23.59 40.44h.31s-3.22-43.66-23.9-43.66zm-19.91-100.48h13.94l-20.22-11.8h-9.04c0-.15 1.53 11.8 15.32 11.8z"/><path d="M339.49 435.36l-.92 5.51h16.85v-63.11c0-17.15-15.17-21.29-25.28-21.29h-21.6s-1.68 14.25 13.64 14.25c15.16 0 23.59 7.81 23.59 15.16v49.48h-6.28z"/><path d="M328.31 355.4v17.61c0 .77.61 1.38 1.38 1.38.76 0 1.38-.61 1.38-1.38V355.4c0-.77-.62-1.38-1.38-1.38-.77-.15-1.38.61-1.38 1.38z"/><use xlink:href="#N"/><use xlink:href="#N" y="5.97"/><use xlink:href="#N" y="27.42"/><use xlink:href="#N" y="32.93"/><path d="M394.94 502.3a17.4 17.4 0 0 0-17.31 17.31 17.4 17.4 0 0 0 17.31 17.31h98.65a17.4 17.4 0 0 0 17.31-17.31 17.4 17.4 0 0 0-17.31-17.31h-98.65z"/><path d="M493.59 533.7h-98.65c-9.04 0-16.24-6.89-17.16-15.62 0 .61-.15 1.07-.15 1.68a17.4 17.4 0 0 0 17.31 17.31h98.65a17.4 17.4 0 0 0 17.31-17.31c0-.61-.15-1.07-.15-1.68a17.2 17.2 0 0 1-17.16 15.62z"/><path d="M410.41 500h7.51v34.62h-7.51V500zm33.24 0h7.51v34.62h-7.51V500zm33.4 0h7.51v34.62h-7.51V500z"/><use xlink:href="#B" x="252.9"/><path d="M580.75 524.82a20.1 20.1 0 0 1-20.06 20.06c-11.09 0-20.07-8.98-20.07-20.06a20 20 0 0 1 20.07-20.07c5.32 0 10.42 2.11 14.19 5.88 3.76 3.76 5.87 8.86 5.87 14.19z"/><use xlink:href="#D" x="252.91"/><path d="M567.42 524.82c0 1.79-.71 3.5-1.97 4.77-1.27 1.26-2.98 1.97-4.77 1.97-3.72 0-6.74-3.02-6.74-6.74 0-1.79.71-3.5 1.97-4.77 1.27-1.26 2.98-1.97 4.77-1.97s3.5.71 4.77 1.97c1.26 1.27 1.97 2.98 1.97 4.77z"/><use xlink:href="#E" x="252.91"/><use xlink:href="#F" x="252.9"/><use xlink:href="#I" x="267.3"/><use xlink:href="#H" x="253.06"/><use xlink:href="#I" x="267.3" y="14.24"/><use xlink:href="#H" x="242.95" y="10.11"/><use xlink:href="#O"/><use xlink:href="#H" x="232.84"/><use xlink:href="#O" y="-14.24"/><path d="M553.02 485.15h15.47l-5.82-4.29h-3.98zm19 .76l13.63 7.05-3.06-6.43-3.68-1.69zm25.43 21.91l.15-7.05-2.45-3.37-6.74-1.99zm3.68 18.54l3.37-6.29-.61-3.98-5.06-4.9zm.61 14.24l1.38-3.83-2.3-6.74-4.9 14.55z"/><use xlink:href="#J" x="253.06"/><use xlink:href="#K" x="253.06"/><path d="M555.32 568.48l6.29-3.22-15.17-2.6 4.9 5.06zm-19.3-7.36h7.04l-12.25-9.19 1.99 6.89z"/><use xlink:href="#L" x="253.06"/><path d="M520.86 531.86l.3-15.47-4.29 5.67-.15 3.98zm1.22-18.99l7.2-13.48-6.43 2.91-1.84 3.52z"/><use xlink:href="#P"/><use xlink:href="#P"/><path d="M506.3 516.7h19.91l8.12-26.65h52.54l8.28 26.65h19.76l-16.7-37.99H523z"/><use xlink:href="#B" x="355.08"/><use xlink:href="#C" x="355.08"/><use xlink:href="#D" x="355.08"/><path d="M669.6 524.82c0 3.72-3.02 6.74-6.74 6.74-1.79 0-3.5-.71-4.77-1.97-1.26-1.27-1.97-2.98-1.97-4.77s.71-3.5 1.97-4.77c1.27-1.26 2.98-1.97 4.77-1.97s3.5.71 4.77 1.97c1.26 1.27 1.97 2.98 1.97 4.77z"/><use xlink:href="#E" x="355.08"/><use xlink:href="#F" x="355.08"/><use xlink:href="#I" x="369.47"/><use xlink:href="#H" x="355.23"/><use xlink:href="#I" x="369.47" y="14.24"/><use xlink:href="#H" x="345.12" y="10.11"/><use xlink:href="#F" x="348.03" y="17.31"/><use xlink:href="#H" x="335.01"/><use xlink:href="#I" x="355.23"/><path d="M655.2 485.15h15.47l-5.67-4.29h-4.13zm18.99.76l13.63 7.05-3.06-6.43-3.68-1.69zm25.43 21.91l.15-7.05-2.45-3.37-6.74-1.99zm3.68 18.54l3.37-6.29-.62-3.98-5.05-4.9zm.76 14.24l1.23-3.83-2.3-6.74-4.9 14.55z"/><use xlink:href="#J" x="355.23"/><use xlink:href="#K" x="355.23"/><path d="M657.49 568.48l6.29-3.22-15.17-2.6 4.9 5.06zm-19.29-7.36h7.2l-12.41-9.19 1.99 6.89z"/><use xlink:href="#L" x="355.23"/><path d="M623.18 531.86l.15-15.47-4.29 5.67-.15 3.98zm1.07-18.99l7.36-13.48-6.44 2.91-1.99 3.52z"/><use xlink:href="#P" x="102.17"/><use xlink:href="#P" x="102.17"/><path d="M608.63 516.7h19.76l8.12-26.65h52.54l8.27 26.65h19.76l-16.69-37.99h-75.22zM323.86 331.81v8.58h24.97l373.46 36.15h30.18v-10.26h-7.82l-387.24-34.47z"/></g><g transform="translate(424.5 69.5)"><g transform="translate(3.77)"><path d="M0 190.06V5.63" class="B C H"/><use fill="#434343" xlink:href="#A" transform="matrix(1.25 0 0 1.25 0 0)"/></g><g transform="translate(3.77 190.06)"><path d="M0 0h318.6" class="B C H"/><use fill="#434343" transform="matrix(0 1.25 -1.25 0 324.225 -324.225)" x="259.38" xlink:href="#A"/></g><g transform="matrix(-1 0 0 -1 304.7 154.14)" class="E C"><g class="F"><circle cx="300.22" cy="29.12" r="4.48"/><circle cx="275.57" cy="64.97" r="4.48"/><circle cx="250.93" cy="51.53" r="4.48"/><circle cx="226.28" cy="64.97" r="4.48"/><circle cx="201.64" cy="82.9" r="4.48"/><circle cx="176.99" cy="105.3" r="4.48"/><circle cx="152.35" cy="125.46" r="4.48"/><circle cx="127.7" cy="125.46" r="4.48"/><circle cx="103.06" cy="125.46" r="4.48"/><circle cx="78.41" cy="100.82" r="4.48"/><circle cx="53.77" cy="15.68" r="4.48"/><circle cx="29.12" cy="4.48" r="4.48"/><circle cx="4.48" cy="17.92" r="4.48"/></g><path d="M297.67 32.82l-19.56 28.46m-6.47 1.55l-16.77-9.15m-7.88 0l-16.77 9.15m-7.56 4.78l-17.39 12.65m-6.95 5.65l-18.01 16.37m-6.79 5.86l-17.7 14.48m-7.95 2.84h-15.68m-8.97 0h-15.68m-7.65-3.17l-18.3-18.3m-4.42-7.48L55.02 19.99m-5.33-6.16L33.21 6.34m-8.02.29L8.42 15.78" class="B"/></g></g><g transform="translate(239.5 294.5)"><g transform="translate(15)"><path d="M0 5.63V35" class="B C E"/><use xlink:href="#A" transform="matrix(1.25 0 0 1.25 0 0)" class="F"/></g><g transform="rotate(180 0 17.5)"><path d="M0 5.63V35" class="B C E"/><use xlink:href="#A" transform="matrix(1.25 0 0 1.25 0 0)" class="F"/></g></g></svg>