  0
SECTION
  2
HEADER
  9
$ACADVER
  1
AC1009
  9
$INSBASE
 10
0.000000
 20
0.000000
  9
$LIMMIN
 10
-1016.000000
 20
-1016.000000
  9
$LIMMAX
 10
1016.000000
 20
1016.000000
  9
$EXTMIN
 10
-1016.000000
 20
-1016.000000
  9
$EXTMAX
 10
1016.000000
 20
1016.000000
  9
$ATTMODE
 70
0
  9
$LUNITS
 70
2
  9
$LUPREC
 70
3
  9
$THICKNESS
 40
0.264160
  0
ENDSEC
  0
SECTION
  2
TABLES
  0
TABLE
  2
LTYPE
 70
1
  0
LTYPE
  3
Solid Line
  2
CONTINUOUS
 70
0
 72
65
 73
0
 40
0.000000
  0
ENDTAB
  0
TABLE
  2
LAYER
 70
9
  0
LAYER
  2
BG_SILKSCREEN_BOTTOM
 70
0
 62
152
  6
CONTINUOUS
  0
LAYER
  2
BG_SILKSCREEN_TOP
 70
0
 62
7
  6
CONTINUOUS
  0
LAYER
  2
BG_OUTLINE
 70
0
 62
254
  6
CONTINUOUS
  0
LAYER
  2
PG_SILKSCREEN_BOTTOM
 70
0
 62
152
  6
CONTINUOUS
  0
LAYER
  2
PG_SILKSCREEN_TOP
 70
0
 62
7
  6
CONTINUOUS
  0
LAYER
  2
PIN_TOP
 70
0
 62
81
  6
CONTINUOUS
  0
LAYER
  2
PIN_BOTTOM
 70
0
 62
51
  6
CONTINUOUS
  0
LAYER
  2
BW_BOTTOM
 70
0
 62
2
  6
CONTINUOUS
  0
LAYER
  2
BW_TOP
 70
0
 62
2
  6
CONTINUOUS
  0
ENDTAB
  0
TABLE
  2
STYLE
 70
1
  0
STYLE
  2
STANDARD
 70
0
 40
0.000000
 41
1.000000
 50
0.000000
 71
0
 42
0.200000
  3
txt
  0
ENDTAB
  0
ENDSEC
  0
SECTION
  2
BLOCKS
  0
BLOCK
  8
0
  2
FIGURE_CIRCLE
 70
0
 10
0.000000
 20
0.000000
  0
CIRCLE
  8
0
 10
0.000000
 20
0.000000
 40
0.500000
  0
ENDBLK
  0
BLOCK
  8
0
  2
FIGURE_SQUARE
 70
0
 10
0.000000
 20
0.000000
  0
POLYLINE
  8
0
 66
1
 70
1
 40
0.000000
 41
0.000000
 39
0.000000
  0
VERTEX
  8
0
 10
-0.500000
 20
-0.500000
 40
0.000000
 41
0.000000
 42
0.000000
  0
VERTEX
  8
0
 10
-0.500000
 20
0.500000
 40
0.000000
 41
0.000000
 42
0.000000
  0
VERTEX
  8
0
 10
0.500000
 20
0.500000
 40
0.000000
 41
0.000000
 42
0.000000
  0
VERTEX
  8
0
 10
0.500000
 20
-0.500000
 40
0.000000
 41
0.000000
 42
0.000000
  0
SEQEND
  0
ENDBLK
  0
BLOCK
  8
0
  2
FIGURE_HEX
 70
0
 10
0.000000
 20
0.000000
  0
POLYLINE
  8
0
 66
1
 70
1
 40
0.000000
 41
0.000000
 39
0.000000
  0
VERTEX
  8
0
 10
-0.500000
 20
0.000000
 40
0.000000
 41
0.000000
 42
0.000000
  0
VERTEX
  8
0
 10
-0.250000
 20
0.500000
 40
0.000000
 41
0.000000
 42
0.000000
  0
VERTEX
  8
0
 10
0.250000
 20
0.500000
 40
0.000000
 41
0.000000
 42
0.000000
  0
VERTEX
  8
0
 10
0.500000
 20
0.000000
 40
0.000000
 41
0.000000
 42
0.000000
  0
VERTEX
  8
0
 10
0.250000
 20
-0.500000
 40
0.000000
 41
0.000000
 42
0.000000
  0
VERTEX
  8
0
 10
-0.250000
 20
-0.500000
 40
0.000000
 41
0.000000
 42
0.000000
  0
SEQEND
  0
ENDBLK
  0
BLOCK
  8
0
  2
FIGURE_OCT
 70
0
 10
0.000000
 20
0.000000
  0
POLYLINE
  8
0
 66
1
 70
1
 40
0.000000
 41
0.000000
 39
0.000000
  0
VERTEX
  8
0
 10
-0.500000
 20
-0.207100
 40
0.000000
 41
0.000000
 42
0.000000
  0
VERTEX
  8
0
 10
-0.500000
 20
0.207100
 40
0.000000
 41
0.000000
 42
0.000000
  0
VERTEX
  8
0
 10
-0.207100
 20
0.500000
 40
0.000000
 41
0.000000
 42
0.000000
  0
VERTEX
  8
0
 10
0.207100
 20
0.500000
 40
0.000000
 41
0.000000
 42
0.000000
  0
VERTEX
  8
0
 10
0.500000
 20
0.207100
 40
0.000000
 41
0.000000
 42
0.000000
  0
VERTEX
  8
0
 10
0.500000
 20
-0.207100
 40
0.000000
 41
0.000000
 42
0.000000
  0
VERTEX
  8
0
 10
0.207100
 20
-0.500000
 40
0.000000
 41
0.000000
 42
0.000000
  0
VERTEX
  8
0
 10
-0.207100
 20
-0.500000
 40
0.000000
 41
0.000000
 42
0.000000
  0
SEQEND
  0
ENDBLK
  0
BLOCK
  8
0
  2
FIGURE_OBLONG
 70
0
 10
0.000000
 20
0.000000
  0
POLYLINE
  8
0
 66
1
 70
1
 40
0.000000
 41
0.000000
 39
0.000000
  0
VERTEX
  8
0
 10
-0.500000
 20
-0.125000
 40
0.000000
 41
0.000000
 42
0.000000
  0
VERTEX
  8
0
 10
-0.500000
 20
0.125000
 40
0.000000
 41
0.000000
 42
0.000000
  0
VERTEX
  8
0
 10
-0.416000
 20
0.375000
 40
0.000000
 41
0.000000
 42
0.000000
  0
VERTEX
  8
0
 10
-0.250000
 20
0.500000
 40
0.000000
 41
0.000000
 42
0.000000
  0
VERTEX
  8
0
 10
0.250000
 20
0.500000
 40
0.000000
 41
0.000000
 42
0.000000
  0
VERTEX
  8
0
 10
0.416000
 20
0.375000
 40
0.000000
 41
0.000000
 42
0.000000
  0
VERTEX
  8
0
 10
0.500000
 20
0.125000
 40
0.000000
 41
0.000000
 42
0.000000
  0
VERTEX
  8
0
 10
0.500000
 20
-0.125000
 40
0.000000
 41
0.000000
 42
0.000000
  0
VERTEX
  8
0
 10
0.416000
 20
-0.375000
 40
0.000000
 41
0.000000
 42
0.000000
  0
VERTEX
  8
0
 10
0.250000
 20
-0.500000
 40
0.000000
 41
0.000000
 42
0.000000
  0
VERTEX
  8
0
 10
-0.250000
 20
-0.500000
 40
0.000000
 41
0.000000
 42
0.000000
  0
VERTEX
  8
0
 10
-0.416000
 20
-0.375000
 40
0.000000
 41
0.000000
 42
0.000000
  0
SEQEND
  0
ENDBLK
  0
BLOCK
  8
0
  2
FIGURE_TRI
 70
0
 10
0.000000
 20
0.000000
  0
POLYLINE
  8
0
 66
1
 70
1
 40
0.000000
 41
0.000000
 39
0.000000
  0
VERTEX
  8
0
 10
-0.500000
 20
-0.500000
 40
0.000000
 41
0.000000
 42
0.000000
  0
VERTEX
  8
0
 10
0.000000
 20
0.500000
 40
0.000000
 41
0.000000
 42
0.000000
  0
VERTEX
  8
0
 10
0.500000
 20
-0.500000
 40
0.000000
 41
0.000000
 42
0.000000
  0
SEQEND
  0
ENDBLK
  0
BLOCK
  8
0
  2
FIGURE_CROSS
 70
0
 10
0.000000
 20
0.000000
  0
POLYLINE
  8
0
 66
1
 70
0
 40
0.000000
 41
0.000000
 39
0.000000
  0
VERTEX
  8
0
 10
-0.500000
 20
0.000000
 40
0.000000
 41
0.000000
 42
0.000000
  0
VERTEX
  8
0
 10
0.500000
 20
0.000000
 40
0.000000
 41
0.000000
 42
0.000000
  0
SEQEND
  0
POLYLINE
  8
0
 66
1
 70
0
 40
0.000000
 41
0.000000
 39
0.000000
  0
VERTEX
  8
0
 10
0.000000
 20
0.500000
 40
0.000000
 41
0.000000
 42
0.000000
  0
VERTEX
  8
0
 10
0.000000
 20
-0.500000
 40
0.000000
 41
0.000000
 42
0.000000
  0
SEQEND
  0
ENDBLK
  0
BLOCK
  8
0
  2
FIGURE_DIAMOND
 70
0
 10
0.000000
 20
0.000000
  0
POLYLINE
  8
0
 66
1
 70
1
 40
0.000000
 41
0.000000
 39
0.000000
  0
VERTEX
  8
0
 10
-0.500000
 20
0.000000
 40
0.000000
 41
0.000000
 42
0.000000
  0
VERTEX
  8
0
 10
0.000000
 20
0.500000
 40
0.000000
 41
0.000000
 42
0.000000
  0
VERTEX
  8
0
 10
0.500000
 20
0.000000
 40
0.000000
 41
0.000000
 42
0.000000
  0
VERTEX
  8
0
 10
0.000000
 20
-0.500000
 40
0.000000
 41
0.000000
 42
0.000000
  0
SEQEND
  0
ENDBLK
  0
ENDSEC
  0
SECTION
  2
ENTITIES
  0
POLYLINE
  8
PIN_BOTTOM
 66
1
 70
1
 40
0.000000
 41
0.000000
 39
0.000000
  0
VERTEX
  8
PIN_BOTTOM
 10
-19.845604
 20
18.194604
 40
0.000000
 41
0.000000
 42
0.000000
  0
VERTEX
  8
PIN_BOTTOM
 10
-19.845604
 20
22.194596
 40
0.000000
 41
0.000000
 42
0.000000
  0
VERTEX
  8
PIN_BOTTOM
 10
-21.245601
 20
22.194596
 40
0.000000
 41
0.000000
 42
0.000000
  0
VERTEX
  8
PIN_BOTTOM
 10
-21.245601
 20
18.194604
 40
0.000000
 41
0.000000
 42
0.000000
  0
SEQEND
  0
POLYLINE
  8
PIN_BOTTOM
 66
1
 70
1
 40
0.000000
 41
0.000000
 39
0.000000
  0
VERTEX
  8
PIN_BOTTOM
 10
-22.298609
 20
18.194604
 40
0.000000
 41
0.000000
 42
0.000000
  0
VERTEX
  8
PIN_BOTTOM
 10
-22.298609
 20
22.194596
 40
0.000000
 41
0.000000
 42
0.000000
  0
VERTEX
  8
PIN_BOTTOM
 10
-23.698606
 20
22.194596
 40
0.000000
 41
0.000000
 42
0.000000
  0
VERTEX
  8
PIN_BOTTOM
 10
-23.698606
 20
18.194604
 40
0.000000
 41
0.000000
 42
0.000000
  0
SEQEND
  0
POLYLINE
  8
PIN_BOTTOM
 66
1
 70
1
 40
0.000000
 41
0.000000
 39
0.000000
  0
VERTEX
  8
PIN_BOTTOM
 10
-24.899798
 20
18.194604
 40
0.000000
 41
0.000000
 42
0.000000
  0
VERTEX
  8
PIN_BOTTOM
 10
-24.899798
 20
22.394596
 40
0.000000
 41
0.000000
 42
0.000000
  0
VERTEX
  8
PIN_BOTTOM
 10
-26.299795
 20
22.394596
 40
0.000000
 41
0.000000
 42
0.000000
  0
VERTEX
  8
PIN_BOTTOM
 10
-26.299795
 20
18.194604
 40
0.000000
 41
0.000000
 42
0.000000
  0
SEQEND
  0
POLYLINE
  8
PIN_BOTTOM
 66
1
 70
1
 40
0.000000
 41
0.000000
 39
0.000000
  0
VERTEX
  8
PIN_BOTTOM
 10
-27.394992
 20
18.194604
 40
0.000000
 41
0.000000
 42
0.000000
  0
VERTEX
  8
PIN_BOTTOM
 10
-27.394992
 20
22.394596
 40
0.000000
 41
0.000000
 42
0.000000
  0
VERTEX
  8
PIN_BOTTOM
 10
-28.794989
 20
22.394596
 40
0.000000
 41
0.000000
 42
0.000000
  0
VERTEX
  8
PIN_BOTTOM
 10
-28.794989
 20
18.194604
 40
0.000000
 41
0.000000
 42
0.000000
  0
SEQEND
  0
POLYLINE
  8
PIN_BOTTOM
 66
1
 70
1
 40
0.000000
 41
0.000000
 39
0.000000
  0
VERTEX
  8
PIN_BOTTOM
 10
-29.910989
 20
18.194604
 40
0.000000
 41
0.000000
 42
0.000000
  0
VERTEX
  8
PIN_BOTTOM
 10
-29.910989
 20
22.194596
 40
0.000000
 41
0.000000
 42
0.000000
  0
VERTEX
  8
PIN_BOTTOM
 10
-31.310986
 20
22.194596
 40
0.000000
 41
0.000000
 42
0.000000
  0
VERTEX
  8
PIN_BOTTOM
 10
-31.310986
 20
18.194604
 40
0.000000
 41
0.000000
 42
0.000000
  0
SEQEND
  0
POLYLINE
  8
PIN_BOTTOM
 66
1
 70
1
 40
0.000000
 41
0.000000
 39
0.000000
  0
VERTEX
  8
PIN_BOTTOM
 10
-32.449211
 20
18.194604
 40
0.000000
 41
0.000000
 42
0.000000
  0
VERTEX
  8
PIN_BOTTOM
 10
-32.449211
 20
22.194596
 40
0.000000
 41
0.000000
 42
0.000000
  0
VERTEX
  8
PIN_BOTTOM
 10
-33.849208
 20
22.194596
 40
0.000000
 41
0.000000
 42
0.000000
  0
VERTEX
  8
PIN_BOTTOM
 10
-33.849208
 20
18.194604
 40
0.000000
 41
0.000000
 42
0.000000
  0
SEQEND
  0
POLYLINE
  8
PIN_BOTTOM
 66
1
 70
1
 40
0.000000
 41
0.000000
 39
0.000000
  0
VERTEX
  8
PIN_BOTTOM
 10
-35.085985
 20
18.194604
 40
0.000000
 41
0.000000
 42
0.000000
  0
VERTEX
  8
PIN_BOTTOM
 10
-35.085985
 20
22.194596
 40
0.000000
 41
0.000000
 42
0.000000
  0
VERTEX
  8
PIN_BOTTOM
 10
-36.185983
 20
22.194596
 40
0.000000
 41
0.000000
 42
0.000000
  0
VERTEX
  8
PIN_BOTTOM
 10
-36.185983
 20
18.194604
 40
0.000000
 41
0.000000
 42
0.000000
  0
SEQEND
  0
POLYLINE
  8
PIN_BOTTOM
 66
1
 70
1
 40
0.000000
 41
0.000000
 39
0.000000
  0
VERTEX
  8
PIN_BOTTOM
 10
-36.885982
 20
16.194608
 40
0.000000
 41
0.000000
 42
0.000000
  0
VERTEX
  8
PIN_BOTTOM
 10
-36.885982
 20
22.194596
 40
0.000000
 41
0.000000
 42
0.000000
  0
VERTEX
  8
PIN_BOTTOM
 10
-37.785980
 20
22.194596
 40
0.000000
 41
0.000000
 42
0.000000
  0
VERTEX
  8
PIN_BOTTOM
 10
-37.785980
 20
16.194608
 40
0.000000
 41
0.000000
 42
0.000000
  0
SEQEND
  0
POLYLINE
  8
PIN_BOTTOM
 66
1
 70
1
 40
0.000000
 41
0.000000
 39
0.000000
  0
VERTEX
  8
PIN_BOTTOM
 10
-17.285995
 20
15.994609
 40
0.000000
 41
0.000000
 42
0.000000
  0
VERTEX
  8
PIN_BOTTOM
 10
-17.285995
 20
19.794601
 40
0.000000
 41
0.000000
 42
0.000000
  0
VERTEX
  8
PIN_BOTTOM
 10
-18.685993
 20
19.794601
 40
0.000000
 41
0.000000
 42
0.000000
  0
VERTEX
  8
PIN_BOTTOM
 10
-18.685993
 20
15.994609
 40
0.000000
 41
0.000000
 42
0.000000
  0
SEQEND
  0
POLYLINE
  8
PG_SILKSCREEN_BOTTOM
 66
1
 70
0
 40
0.000000
 41
0.000000
 39
0.000000
  0
VERTEX
  8
PG_SILKSCREEN_BOTTOM
 10
-39.051001
 20
8.544611
 40
0.100000
 41
0.100000
 42
0.000000
  0
VERTEX
  8
PG_SILKSCREEN_BOTTOM
 10
-38.100991
 20
8.544611
 40
0.100000
 41
0.100000
 42
0.000000
  0
VERTEX
  8
PG_SILKSCREEN_BOTTOM
 10
-38.100991
 20
12.974599
 40
0.100000
 41
0.100000
 42
0.000000
  0
VERTEX
  8
PG_SILKSCREEN_BOTTOM
 10
-39.040994
 20
12.974599
 40
0.100000
 41
0.100000
 42
0.000000
  0
VERTEX
  8
PG_SILKSCREEN_BOTTOM
 10
-39.040994
 20
23.594593
 40
0.100000
 41
0.100000
 42
0.000000
  0
VERTEX
  8
PG_SILKSCREEN_BOTTOM
 10
-33.471002
 20
23.594593
 40
0.100000
 41
0.100000
 42
0.000000
  0
SEQEND
  0
POLYLINE
  8
PG_SILKSCREEN_BOTTOM
 66
1
 70
0
 40
0.000000
 41
0.000000
 39
0.000000
  0
VERTEX
  8
PG_SILKSCREEN_BOTTOM
 10
-15.050999
 20
13.604596
 40
0.100000
 41
0.100000
 42
0.000000
  0
VERTEX
  8
PG_SILKSCREEN_BOTTOM
 10
-16.161004
 20
13.604596
 40
0.100000
 41
0.100000
 42
0.000000
  0
VERTEX
  8
PG_SILKSCREEN_BOTTOM
 10
-16.161004
 20
11.544605
 40
0.100000
 41
0.100000
 42
0.000000
  0
VERTEX
  8
PG_SILKSCREEN_BOTTOM
 10
-15.050999
 20
11.544605
 40
0.100000
 41
0.100000
 42
0.000000
  0
VERTEX
  8
PG_SILKSCREEN_BOTTOM
 10
-15.050999
 20
-13.405409
 40
0.100000
 41
0.100000
 42
0.000000
  0
SEQEND
  0
POLYLINE
  8
PG_SILKSCREEN_BOTTOM
 66
1
 70
0
 40
0.000000
 41
0.000000
 39
0.000000
  0
VERTEX
  8
PG_SILKSCREEN_BOTTOM
 10
-39.051001
 20
8.544611
 40
0.100000
 41
0.100000
 42
0.000000
  0
VERTEX
  8
PG_SILKSCREEN_BOTTOM
 10
-39.051001
 20
-13.405409
 40
0.100000
 41
0.100000
 42
0.000000
  0
SEQEND
  0
POLYLINE
  8
PG_SILKSCREEN_BOTTOM
 66
1
 70
0
 40
0.000000
 41
0.000000
 39
0.000000
  0
VERTEX
  8
PG_SILKSCREEN_BOTTOM
 10
-39.051001
 20
-8.405393
 40
0.100000
 41
0.100000
 42
0.000000
  0
VERTEX
  8
PG_SILKSCREEN_BOTTOM
 10
-39.051001
 20
-13.405409
 40
0.100000
 41
0.100000
 42
0.000000
  0
VERTEX
  8
PG_SILKSCREEN_BOTTOM
 10
-15.050999
 20
-13.405409
 40
0.100000
 41
0.100000
 42
0.000000
  0
VERTEX
  8
PG_SILKSCREEN_BOTTOM
 10
-15.050999
 20
-8.405393
 40
0.100000
 41
0.100000
 42
0.000000
  0
SEQEND
  0
POLYLINE
  8
PG_SILKSCREEN_BOTTOM
 66
1
 70
0
 40
0.000000
 41
0.000000
 39
0.000000
  0
VERTEX
  8
PG_SILKSCREEN_BOTTOM
 10
-39.040994
 20
12.974599
 40
0.100000
 41
0.100000
 42
0.000000
  0
VERTEX
  8
PG_SILKSCREEN_BOTTOM
 10
-38.100991
 20
12.974599
 40
0.100000
 41
0.100000
 42
0.000000
  0
VERTEX
  8
PG_SILKSCREEN_BOTTOM
 10
-38.100991
 20
8.544611
 40
0.100000
 41
0.100000
 42
0.000000
  0
VERTEX
  8
PG_SILKSCREEN_BOTTOM
 10
-39.051001
 20
8.544611
 40
0.100000
 41
0.100000
 42
0.000000
  0
SEQEND
  0
POLYLINE
  8
PG_SILKSCREEN_BOTTOM
 66
1
 70
0
 40
0.000000
 41
0.000000
 39
0.000000
  0
VERTEX
  8
PG_SILKSCREEN_BOTTOM
 10
-15.050999
 20
13.604596
 40
0.100000
 41
0.100000
 42
0.000000
  0
VERTEX
  8
PG_SILKSCREEN_BOTTOM
 10
-15.050999
 20
19.594601
 40
0.100000
 41
0.100000
 42
0.000000
  0
VERTEX
  8
PG_SILKSCREEN_BOTTOM
 10
-19.050991
 20
23.594593
 40
0.100000
 41
0.100000
 42
0.000000
  0
VERTEX
  8
PG_SILKSCREEN_BOTTOM
 10
-39.051001
 20
23.594593
 40
0.100000
 41
0.100000
 42
0.000000
  0
VERTEX
  8
PG_SILKSCREEN_BOTTOM
 10
-39.051001
 20
23.414609
 40
0.100000
 41
0.100000
 42
0.000000
  0
SEQEND
  0
POLYLINE
  8
PG_SILKSCREEN_BOTTOM
 66
1
 70
0
 40
0.000000
 41
0.000000
 39
0.000000
  0
VERTEX
  8
PG_SILKSCREEN_BOTTOM
 10
-15.050999
 20
11.544605
 40
0.100000
 41
0.100000
 42
0.000000
  0
VERTEX
  8
PG_SILKSCREEN_BOTTOM
 10
-16.161004
 20
11.544605
 40
0.100000
 41
0.100000
 42
0.000000
  0
VERTEX
  8
PG_SILKSCREEN_BOTTOM
 10
-16.161004
 20
13.604596
 40
0.100000
 41
0.100000
 42
0.000000
  0
VERTEX
  8
PG_SILKSCREEN_BOTTOM
 10
-15.050999
 20
13.604596
 40
0.100000
 41
0.100000
 42
0.000000
  0
SEQEND
  0
TEXT
  8
PG_SILKSCREEN_BOTTOM
 10
-37.211000
 20
15.214600
 11
0.000000
 21
0.000000
 40
0.787400
 41
1.000000
 50
0.000000
  7
STANDARD
 71
2
 72
0
  1
8
 73
0
  0
TEXT
  8
PG_SILKSCREEN_BOTTOM
 10
-22.606000
 20
17.119600
 11
0.000000
 21
0.000000
 40
0.787400
 41
1.000000
 50
0.000000
  7
STANDARD
 71
2
 72
0
  1
2
 73
0
  0
TEXT
  8
PG_SILKSCREEN_BOTTOM
 10
-25.146000
 20
17.119600
 11
0.000000
 21
0.000000
 40
0.787400
 41
1.000000
 50
0.000000
  7
STANDARD
 71
2
 72
0
  1
3
 73
0
  0
TEXT
  8
PG_SILKSCREEN_BOTTOM
 10
-27.686000
 20
17.119600
 11
0.000000
 21
0.000000
 40
0.787400
 41
1.000000
 50
0.000000
  7
STANDARD
 71
2
 72
0
  1
4
 73
0
  0
TEXT
  8
PG_SILKSCREEN_BOTTOM
 10
-30.226000
 20
17.119600
 11
0.000000
 21
0.000000
 40
0.787400
 41
1.000000
 50
0.000000
  7
STANDARD
 71
2
 72
0
  1
5
 73
0
  0
TEXT
  8
PG_SILKSCREEN_BOTTOM
 10
-32.766000
 20
17.119600
 11
0.000000
 21
0.000000
 40
0.787400
 41
1.000000
 50
0.000000
  7
STANDARD
 71
2
 72
0
  1
6
 73
0
  0
TEXT
  8
PG_SILKSCREEN_BOTTOM
 10
-35.306000
 20
17.119600
 11
0.000000
 21
0.000000
 40
0.787400
 41
1.000000
 50
0.000000
  7
STANDARD
 71
2
 72
0
  1
7
 73
0
  0
TEXT
  8
PG_SILKSCREEN_BOTTOM
 10
-20.066000
 20
17.119600
 11
0.000000
 21
0.000000
 40
0.787400
 41
1.000000
 50
0.000000
  7
STANDARD
 71
2
 72
0
  1
1
 73
0
  0
TEXT
  8
PG_SILKSCREEN_BOTTOM
 10
-17.526000
 20
14.579600
 11
0.000000
 21
0.000000
 40
0.787400
 41
1.000000
 50
0.000000
  7
STANDARD
 71
2
 72
0
  1
9
 73
0
  0
POLYLINE
  8
PIN_TOP
 66
1
 70
1
 40
0.000000
 41
0.000000
 39
0.000000
  0
VERTEX
  8
PIN_TOP
 10
-35.394900
 20
-21.170900
 40
0.000000
 41
0.000000
 42
0.000000
  0
VERTEX
  8
PIN_TOP
 10
-35.394900
 20
-22.567900
 40
0.000000
 41
0.000000
 42
0.000000
  0
VERTEX
  8
PIN_TOP
 10
-33.997900
 20
-22.567900
 40
0.000000
 41
0.000000
 42
0.000000
  0
VERTEX
  8
PIN_TOP
 10
-33.997900
 20
-21.170900
 40
0.000000
 41
0.000000
 42
0.000000
  0
SEQEND
  0
POLYLINE
  8
PIN_BOTTOM
 66
1
 70
1
 40
0.000000
 41
0.000000
 39
0.000000
  0
VERTEX
  8
PIN_BOTTOM
 10
-35.394900
 20
-21.170900
 40
0.000000
 41
0.000000
 42
0.000000
  0
VERTEX
  8
PIN_BOTTOM
 10
-35.394900
 20
-22.567900
 40
0.000000
 41
0.000000
 42
0.000000
  0
VERTEX
  8
PIN_BOTTOM
 10
-33.997900
 20
-22.567900
 40
0.000000
 41
0.000000
 42
0.000000
  0
VERTEX
  8
PIN_BOTTOM
 10
-33.997900
 20
-21.170900
 40
0.000000
 41
0.000000
 42
0.000000
  0
SEQEND
  0
CIRCLE
  8
PIN_TOP
 10
-32.156400
 20
-21.869400
 40
0.698500
  0
CIRCLE
  8
PIN_BOTTOM
 10
-32.156400
 20
-21.869400
 40
0.698500
  0
CIRCLE
  8
PIN_TOP
 10
-29.616400
 20
-21.869400
 40
0.698500
  0
CIRCLE
  8
PIN_BOTTOM
 10
-29.616400
 20
-21.869400
 40
0.698500
  0
CIRCLE
  8
PIN_TOP
 10
-27.076400
 20
-21.869400
 40
0.698500
  0
CIRCLE
  8
PIN_BOTTOM
 10
-27.076400
 20
-21.869400
 40
0.698500
  0
CIRCLE
  8
PIN_TOP
 10
-24.536400
 20
-21.869400
 40
0.698500
  0
CIRCLE
  8
PIN_BOTTOM
 10
-24.536400
 20
-21.869400
 40
0.698500
  0
CIRCLE
  8
PIN_TOP
 10
-21.996400
 20
-21.869400
 40
0.698500
  0
CIRCLE
  8
PIN_BOTTOM
 10
-21.996400
 20
-21.869400
 40
0.698500
  0
CIRCLE
  8
PIN_TOP
 10
-19.456400
 20
-21.869400
 40
0.698500
  0
CIRCLE
  8
PIN_BOTTOM
 10
-19.456400
 20
-21.869400
 40
0.698500
  0
POLYLINE
  8
PG_SILKSCREEN_BOTTOM
 66
1
 70
0
 40
0.000000
 41
0.000000
 39
0.000000
  0
VERTEX
  8
PG_SILKSCREEN_BOTTOM
 10
-35.966400
 20
-23.139400
 40
0.254000
 41
0.254000
 42
0.000000
  0
VERTEX
  8
PG_SILKSCREEN_BOTTOM
 10
-18.186400
 20
-23.139400
 40
0.254000
 41
0.254000
 42
0.000000
  0
VERTEX
  8
PG_SILKSCREEN_BOTTOM
 10
-18.186400
 20
-20.599400
 40
0.254000
 41
0.254000
 42
0.000000
  0
VERTEX
  8
PG_SILKSCREEN_BOTTOM
 10
-35.966400
 20
-20.599400
 40
0.254000
 41
0.254000
 42
0.000000
  0
VERTEX
  8
PG_SILKSCREEN_BOTTOM
 10
-35.966400
 20
-23.139400
 40
0.254000
 41
0.254000
 42
0.000000
  0
SEQEND
  0
POLYLINE
  8
PG_SILKSCREEN_BOTTOM
 66
1
 70
0
 40
0.000000
 41
0.000000
 39
0.000000
  0
VERTEX
  8
PG_SILKSCREEN_BOTTOM
 10
-33.426400
 20
-23.139400
 40
0.254000
 41
0.254000
 42
0.000000
  0
VERTEX
  8
PG_SILKSCREEN_BOTTOM
 10
-33.426400
 20
-20.599400
 40
0.254000
 41
0.254000
 42
0.000000
  0
SEQEND
  0
POLYLINE
  8
PIN_TOP
 66
1
 70
1
 40
0.000000
 41
0.000000
 39
0.000000
  0
VERTEX
  8
PIN_TOP
 10
-35.394900
 20
-23.710900
 40
0.000000
 41
0.000000
 42
0.000000
  0
VERTEX
  8
PIN_TOP
 10
-35.394900
 20
-25.107900
 40
0.000000
 41
0.000000
 42
0.000000
  0
VERTEX
  8
PIN_TOP
 10
-33.997900
 20
-25.107900
 40
0.000000
 41
0.000000
 42
0.000000
  0
VERTEX
  8
PIN_TOP
 10
-33.997900
 20
-23.710900
 40
0.000000
 41
0.000000
 42
0.000000
  0
SEQEND
  0
POLYLINE
  8
PIN_BOTTOM
 66
1
 70
1
 40
0.000000
 41
0.000000
 39
0.000000
  0
VERTEX
  8
PIN_BOTTOM
 10
-35.394900
 20
-23.710900
 40
0.000000
 41
0.000000
 42
0.000000
  0
VERTEX
  8
PIN_BOTTOM
 10
-35.394900
 20
-25.107900
 40
0.000000
 41
0.000000
 42
0.000000
  0
VERTEX
  8
PIN_BOTTOM
 10
-33.997900
 20
-25.107900
 40
0.000000
 41
0.000000
 42
0.000000
  0
VERTEX
  8
PIN_BOTTOM
 10
-33.997900
 20
-23.710900
 40
0.000000
 41
0.000000
 42
0.000000
  0
SEQEND
  0
CIRCLE
  8
PIN_TOP
 10
-32.156400
 20
-24.409400
 40
0.698500
  0
CIRCLE
  8
PIN_BOTTOM
 10
-32.156400
 20
-24.409400
 40
0.698500
  0
CIRCLE
  8
PIN_TOP
 10
-29.616400
 20
-24.409400
 40
0.698500
  0
CIRCLE
  8
PIN_BOTTOM
 10
-29.616400
 20
-24.409400
 40
0.698500
  0
CIRCLE
  8
PIN_TOP
 10
-27.076400
 20
-24.409400
 40
0.698500
  0
CIRCLE
  8
PIN_BOTTOM
 10
-27.076400
 20
-24.409400
 40
0.698500
  0
CIRCLE
  8
PIN_TOP
 10
-24.536400
 20
-24.409400
 40
0.698500
  0
CIRCLE
  8
PIN_BOTTOM
 10
-24.536400
 20
-24.409400
 40
0.698500
  0
CIRCLE
  8
PIN_TOP
 10
-21.996400
 20
-24.409400
 40
0.698500
  0
CIRCLE
  8
PIN_BOTTOM
 10
-21.996400
 20
-24.409400
 40
0.698500
  0
CIRCLE
  8
PIN_TOP
 10
-19.456400
 20
-24.409400
 40
0.698500
  0
CIRCLE
  8
PIN_BOTTOM
 10
-19.456400
 20
-24.409400
 40
0.698500
  0
POLYLINE
  8
PG_SILKSCREEN_BOTTOM
 66
1
 70
0
 40
0.000000
 41
0.000000
 39
0.000000
  0
VERTEX
  8
PG_SILKSCREEN_BOTTOM
 10
-35.966400
 20
-25.679400
 40
0.254000
 41
0.254000
 42
0.000000
  0
VERTEX
  8
PG_SILKSCREEN_BOTTOM
 10
-18.186400
 20
-25.679400
 40
0.254000
 41
0.254000
 42
0.000000
  0
VERTEX
  8
PG_SILKSCREEN_BOTTOM
 10
-18.186400
 20
-23.139400
 40
0.254000
 41
0.254000
 42
0.000000
  0
VERTEX
  8
PG_SILKSCREEN_BOTTOM
 10
-35.966400
 20
-23.139400
 40
0.254000
 41
0.254000
 42
0.000000
  0
VERTEX
  8
PG_SILKSCREEN_BOTTOM
 10
-35.966400
 20
-25.679400
 40
0.254000
 41
0.254000
 42
0.000000
  0
SEQEND
  0
POLYLINE
  8
PG_SILKSCREEN_BOTTOM
 66
1
 70
0
 40
0.000000
 41
0.000000
 39
0.000000
  0
VERTEX
  8
PG_SILKSCREEN_BOTTOM
 10
-33.426400
 20
-25.679400
 40
0.254000
 41
0.254000
 42
0.000000
  0
VERTEX
  8
PG_SILKSCREEN_BOTTOM
 10
-33.426400
 20
-23.139400
 40
0.254000
 41
0.254000
 42
0.000000
  0
SEQEND
  0
POLYLINE
  8
BG_OUTLINE
 66
1
 70
0
 40
0.000000
 41
0.000000
 39
0.000000
  0
VERTEX
  8
BG_OUTLINE
 10
-34.874200
 20
23.596600
 40
0.152400
 41
0.152400
 42
0.000000
  0
VERTEX
  8
BG_OUTLINE
 10
-39.039800
 20
23.596600
 40
0.152400
 41
0.152400
 42
0.000000
  0
VERTEX
  8
BG_OUTLINE
 10
-39.039800
 20
12.979400
 40
0.152400
 41
0.152400
 42
0.000000
  0
VERTEX
  8
BG_OUTLINE
 10
-38.100000
 20
12.979400
 40
0.152400
 41
0.152400
 42
0.000000
  0
VERTEX
  8
BG_OUTLINE
 10
-38.100000
 20
8.534400
 40
0.152400
 41
0.152400
 42
0.000000
  0
VERTEX
  8
BG_OUTLINE
 10
-39.039800
 20
8.534400
 40
0.152400
 41
0.152400
 42
0.000000
  0
VERTEX
  8
BG_OUTLINE
 10
-39.039800
 20
-27.559000
 40
0.152400
 41
0.152400
 42
0.000000
  0
VERTEX
  8
BG_OUTLINE
 10
-15.062200
 20
-27.559000
 40
0.152400
 41
0.152400
 42
0.000000
  0
VERTEX
  8
BG_OUTLINE
 10
-15.062200
 20
11.531600
 40
0.152400
 41
0.152400
 42
0.000000
  0
VERTEX
  8
BG_OUTLINE
 10
-16.154400
 20
11.531600
 40
0.152400
 41
0.152400
 42
0.000000
  0
VERTEX
  8
BG_OUTLINE
 10
-16.154400
 20
13.614400
 40
0.152400
 41
0.152400
 42
0.000000
  0
VERTEX
  8
BG_OUTLINE
 10
-15.062200
 20
13.614400
 40
0.152400
 41
0.152400
 42
0.000000
  0
VERTEX
  8
BG_OUTLINE
 10
-15.062200
 20
19.608800
 40
0.152400
 41
0.152400
 42
0.000000
  0
VERTEX
  8
BG_OUTLINE
 10
-19.050000
 20
23.596600
 40
0.152400
 41
0.152400
 42
0.000000
  0
VERTEX
  8
BG_OUTLINE
 10
-34.874200
 20
23.596600
 40
0.152400
 41
0.152400
 42
0.000000
  0
SEQEND
  0
ENDSEC
  0
EOF
