<svg xmlns="http://www.w3.org/2000/svg" xmlns:xlink="http://www.w3.org/1999/xlink" width="800" height="300" stroke="#000" stroke-linecap="round" stroke-linejoin="round" fill="#fff" fill-rule="evenodd"><defs><linearGradient id="A" x1="50%" y1="100%" x2="50%" y2="0%"><stop offset="0%" stop-color="#fff"/><stop offset="100%" stop-color="#fff" stop-opacity="0"/></linearGradient><path id="B" d="M126.5 224.42c-.66 31.27 24.15 57.15 55.42 57.82 31.27.66 57.15-24.15 57.82-55.42.66-31.27-24.15-57.15-55.42-57.82-31.27-.66-57.15 24.15-57.82 55.42"/></defs><ellipse cx="397.73" cy="276.21" fill="#e0e0e0" rx="359.18" ry="8.3" stroke-opacity=".02"/><g fill-rule="nonzero" stroke="#434343" stroke-linejoin="miter"><g stroke-linecap="butt"><path d="M560.3 153l.8.8c.7.68.9 1.73.56 2.64l-.17.43 1.88.28 1.94-2.16-.06-.1-1.43-1.88h-3.52m-.72 1.77l-.68-.01.8.1-.1-.1m-18.23.92c.26.33.63.5 1.04.52l2.87.06-3.9-.58M75.5 139.4c-3.75 1.84-10.02 2.5-10.02 2.5l-3.66 4.5s11.4.1 16.96-.8 15.34-13.8 15.34-13.8l-11.57-2.56s-3.32 8.3-7.05 10.16"/><path d="M65.5 144.63c3.7-.05 9.58-.2 13-.77 3.04-.5 8.7-6.3 12.52-10.96l-7.44-1.65c-1.2 2.62-3.97 8.03-7.3 9.7-3.25 1.6-8.06 2.35-9.9 2.58l-.9 1.1m13.3.95c5.55-.9 15.34-13.8 15.34-13.8l-11.57-2.56s-3.32 8.3-7.05 10.15c-3.75 1.85-10.02 2.5-10.02 2.5l-3.66 4.5s11.4.1 16.96-.8zm-23.94-16.35c5.04-1.03 4.94-6.96 7.36-8.32 2.45-1.38 41.08 8.16 41.02 10.46-.05 2.3-6.12 11-9.6 15.3-1.12 1.4-2.03 2.32-2.95 2.98-1.96 1.4-4.05 1.7-8.64 2.76-6.8 1.6-25.18 4.92-25.18 4.92-1.86-5.04-.12-15.48-.03-19.4.07-3.46-1.43-4.24-2-8.7m88.5 47.2c9.4-7.3 22.52-12 40.76-11.62 45.52.96 58 30.33 60.92 54.5 1.8 14.73.06 27.55.1 30.85l-124.85-6.2s-5.33-45.53 23.08-67.53"/><path d="M243.55 246.3c.38-5.46 1.08-15.63-.27-26.74-4.17-34.42-24.1-52.24-59.24-52.98l-2.02-.02c-15.32 0-27.98 3.8-37.63 11.28-24.5 18.97-23.13 56.6-22.55 64.47l121.58 6.05.13-2.06m436.4-68.7a51.7 51.7 0 0 0-10.27-6.23c-7.9-3.67-17.63-5.93-29.54-6.18-55.36-1.17-65.45 43.53-66.64 69.5-.5 10.6.5 18.1.5 18.1l121.1-.68c3.7.96 6.86 2.5 6.86 2.5s5.23-28.55-4.7-53.4c-3.53-8.83-8.97-17.2-17.28-23.64"/><path d="M700.56 252.1c.95-7.1 3.13-30.07-4.94-50.23-3.82-9.56-9.44-17.27-16.72-22.9-3.02-2.35-6.36-4.38-9.94-6.02-8.13-3.77-17.83-5.8-28.85-6.02l-2.07-.02c-51.93 0-61.62 42.52-62.78 67.87-.36 7.56.06 13.56.3 16.25l102.4-.96c16.2 0 17.08.23 17.56.35 1.94.5 3.73 1.16 5.03 1.7m-18.75-76.88l-1.85 2.36c8.3 6.43 13.75 14.8 17.27 23.64l4.07.07c-6.95-17.7-19.5-26.07-19.5-26.07"/><path d="M698.66 199.52a59.9 59.9 0 0 0-3.79-7.21 62.5 62.5 0 0 1 3.54 7.2l.25.01m-496.3-87.68c9.02.7 44.16 1.18 95.98 2.75l29 .93c67.58 2.3 187.4 10.07 187.4 10.07-20.03-15.95-43.36-32.9-64.05-44.78-9.46-5.44-18.37-9.82-26.14-12.54C392.72 56.53 357 54.63 312.9 56.55l-8.94.5c-4.27.3-8.42.68-12.42 1.12-73.3 8.06-102.22 38.38-102.3 41.17-.05 3.06 2.54 11.7 13.13 12.5zm335.2 41.5c.42.78 1.57 2.32 2.4 3.38.58.75 1.45 1.2 2.4 1.2l18.37.4c.2-.16.47-.77.75-1.43l1.9.28 1.93-2.17-.05-.08-1.43-1.9-3.52-.02-2.66-2.68a4.3 4.3 0 0 0-2.72-1.26l-12.3-.96s-5 3.96-5.22 4.75l-3.24-.02zM737.9 181.3c1.9-.54 1.8-2.73 3.35-3.5s4.08-.65 4.08-.65-5.5-13.64-8.25-14.86a73.9 73.9 0 0 0-5.03-1.96c-5.1-1.83-12.72-4.22-18.68-4.94-8.7-1.06-26.17-.55-26.17-.55a36.8 36.8 0 0 0-7.7 5.14c18.76 12.32 56.6 21.8 58.4 21.3zM37.3 204.26l.5-23.77 1.36-2.6c2.9-13 17.67-20.57 17.67-20.57L82 152.4c4.6-1.06 6.68-1.36 8.64-2.75.92-.67 1.83-1.6 2.94-3 3.48-4.3 9.55-13 9.6-15.28.05-2.3-38.58-11.85-41.02-10.47-2.42 1.36-2.32 7.3-7.36 8.32-.07-.6-.14-1.3-.18-2.06-.3-6.33 1.96-20 1.96-20 17.3 6.04 51 .65 66.4-4.27 15.38-4.9 81.47-35.8 95.53-40.73 2.37-.83 5.9-1.86 10.4-3 2.42-5.63 2.84-10.54 2.84-10.54 15.32-2.33 25.58 1.12 30.85 3.8 22.8-3.63 51.4-6.56 80.16-5.95 49.93 1.07 86.52 12.48 93.24 14.7-1.26.94-2.24 2-2.15 2.93.17 1.78 8.48 6.07 19.37 12.35a355.2 355.2 0 0 1 13.64 8.27c16.8 10.84 50.2 33.83 50.2 33.83a560.8 560.8 0 0 1 17.12-.73l2.1-.07c110.5 5.18 166.64 22.47 192.33 33.9 1.25.54 2.44 1.1 3.55 1.63 11.07 5.23 15.22 8.88 15.22 8.88.2 10.83 6.5 29.3 6.5 29.3s6.56 5.8 5.63 7.84c-.14.3-.35 1.06-.6 2.12a296.6 296.6 0 0 0-2.48 12.4l-2.47 14.87c-1.03 7.67 1.24 10.78 1.36 11.5s-2.48 3.3-2.48 3.3.73 6.7-.16 7.76c-.8.98-7.12 1.66-13.96 1.66a80 80 0 0 1-2.2-.04c-7.64-.15-34.58 1.75-34.58 1.75s5.23-28.54-4.7-53.4l4.06.07c-6.94-17.7-19.5-26.07-19.5-26.07l-1.85 2.36a51.1 51.1 0 0 0-10.27-6.23c-7.9-3.67-17.63-5.93-29.54-6.18-55.36-1.17-65.45 43.54-66.64 69.5-.5 10.6.5 18.1.5 18.1-6.4.14-96.52-1.76-141.3-2.7-44.77-.96-125.97 1.4-148.36.93l-39.25-.84c-.04-3.3 1.7-16.12-.1-30.85-2.93-24.18-15.4-53.54-60.93-54.5-18.23-.4-31.35 4.32-40.76 11.62-28.4 22-23.08 67.52-23.08 67.52L66.1 234.5c-8.7-1.27-21.3-3.28-26.65-9.07-5.32-5.78-2.16-21.2-2.16-21.2"/><path d="M37.3 204.26l.5-23.77 1.36-2.6c2.9-13 17.67-20.57 17.67-20.57L82 152.4c4.6-1.06 6.68-1.36 8.64-2.76.92-.66 1.83-1.58 2.94-2.98 3.48-4.3 9.55-13 9.6-15.28v-.01l.87.02 163.75 11.7c-18.9 1.15-92.18 2.7-120.23 14.03-23.22 9.37-37.4 34.4-37.4 62.7-.01 9.25 1.17 17.16 5.16 23.26l-49.25-8.56c-8.7-1.28-21.3-3.28-26.65-9.08-5.32-5.77-2.16-21.2-2.16-21.2m218.76 18.68l-.01-1.64v-1.1c-.28-17.9-7.05-34.28-18.08-46.86 23.6 10.34 32.67 16.24 66.66 34.17 39.56 20.86 217.02 18.78 246.88 19.13 1.8.02 2.8-2.13 1.58-3.46a27.5 27.5 0 0 0-18.14-8.86c-14.68-1.3-235.6-6.8-240.93-45.36-3.4-24.67 16.8-25.35 30.35-25.75 0 0 7.93-.23 0 0l216.63 6.26c-1.48 1.23-3.43 2.92-3.56 3.4l-3.25-.01 3.4.5c.42.8 1.57 2.32 2.4 3.4a3.1 3.1 0 0 0 2.4 1.2l18.37.38c.2-.15.48-.76.75-1.43l1.9.28 1.94-2.16-.06-.1-1.43-1.88-3.52-.02-2.65-2.7c-.3-.28-.6-.5-.95-.7 35.65-1.94 57.9-2.2 89.1.94 12.66 1.28 26.08 6.15 34.7 8.6-.34.27-.7.54-1.02.82 18.76 12.32 56.6 21.8 58.4 21.3 1.9-.54 1.82-2.72 3.35-3.5 1.55-.76 4.08-.64 4.08-.64l-.34-.84c1.45-.1 1.44 1.3 3 1.12 1.9 8.17 5.94 14 5.94 14s6.56 5.8 5.63 7.83c-.14.32-.35 1.07-.6 2.13-.64 2.7-1.57 7.45-2.47 12.4L754 228.63c-1.03 7.68 1.24 10.78 1.36 11.52.12.73-2.48 3.3-2.48 3.3s.73 6.7-.16 7.77c-.8.98-7.1 1.66-13.95 1.66-.74 0-1.5-.02-2.22-.04-4.6-.1-16.16.56-24.65 1.1v-25.2c.02-.56 0-1.1 0-1.66V226h-.01c-.62-39.26-32.36-71.3-72.14-72.15-40.7-.86-74.4 31.3-75.27 71.8v.35h-.02v26.7l-131.77-2.6c-44.77-.96-125.97 1.4-148.36.92l-13.95-.3-20.23-.2s5.88-12.8 5.86-27.46c0-.04.01-.1.01-.14"/><path d="M543.6 184.25c4.8-5.46 23.2-25.28 23.28-28.18.01-.7-.25-1.47-.8-2.34-1.92-3.14-7.15-6.96-9.28-8.05-.33-.15-1.08-.54-25.77-2.63.04.07.1.14.12.2l.14.3-.02.26c.02.2.04.52.07 1 21 1.8 22.74 3.54 23.18 3.68 1.52.77 6.64 4.5 6.5 6.58-.13 1.8-17.4 29.16-17.4 29.16"/><use xlink:href="#B"/><path d="M138.28 224.67a44.9 44.9 0 0 0 43.89 45.8 44.9 44.9 0 0 0 45.8-43.9c.52-24.76-19.13-45.26-43.9-45.8-24.76-.53-45.27 19.13-45.8 43.9"/><path d="M167.7 225.3l-25.04-11.33c-1 3.43-1.56 7.03-1.64 10.76s.34 7.36 1.18 10.83zm-17.92 26l25.92-16.55a7.4 7.4 0 0 0-4.27-7.77l-.05-.02L143.56 240a42.1 42.1 0 0 0 6.23 11.31zm21.48 14.7l3.86-27.2-22.3 16a42 42 0 0 0 18.45 11.2zm10.96 1.7a40.7 40.7 0 0 0 6.47-.36l-1.33-30.7-.05-.04c-2.58-2.02-6.2-2.1-8.85-.18l-.05.03-2.63 30.63c2.1.37 4.25.6 6.44.63zm29.94-11.64l-21.62-16.94 2.7 27.35c7.2-1.8 13.7-5.43 18.9-10.4zm9.88-14.42l-27.3-14.18a7.4 7.4 0 0 0-4.59 7.58v.06l25.2 17.58c2.77-3.3 5.04-7 6.7-11.04zm3.17-15.14a41.7 41.7 0 0 0-1.18-10.83l-25.5 10.26 25.05 11.33c.98-3.42 1.55-7.03 1.63-10.76zm-8.76-26.57l-25.92 16.55a7.4 7.4 0 0 0 4.27 7.76l.05.03 27.83-13.04c-1.5-4.1-3.6-7.9-6.23-11.3zm-21.48-14.72l-3.86 27.2 22.3-16a42 42 0 0 0-18.45-11.2zm-10.96-1.7a41.9 41.9 0 0 0-6.47.36l1.38 30.75a7.4 7.4 0 0 0 8.86.19l.04-.04 2.63-30.63c-2.1-.37-4.25-.6-6.44-.63zm-29.94 11.64l21.62 16.94-2.7-27.35c-7.2 1.8-13.7 5.43-18.9 10.4zm-9.88 14.42l27.3 14.18c3.05-1.23 4.92-4.3 4.6-7.58v-.05l-25.2-17.6c-2.77 3.3-5.04 7-6.7 11.04zm-4.66 2.96c.46-1.55 1-3.06 1.63-4.54 1.75-4.16 4.1-8 6.94-11.4 1.03-1.24 2.12-2.43 3.27-3.55 5.82-5.67 13.13-9.8 21.27-11.72 1.56-.37 3.14-.65 4.75-.86 2.2-.27 4.42-.4 6.7-.35a45.8 45.8 0 0 1 6.67.64 45.9 45.9 0 0 1 4.71 1.05 45.5 45.5 0 0 1 20.76 12.62c1.1 1.17 2.14 2.4 3.1 3.68 2.7 3.53 4.88 7.47 6.45 11.7a44.8 44.8 0 0 1 1.44 4.61c1 3.9 1.5 7.97 1.4 12.18a45.6 45.6 0 0 1-1.91 12.11 46.2 46.2 0 0 1-1.64 4.54 45.5 45.5 0 0 1-6.93 11.41c-1.03 1.24-2.12 2.43-3.28 3.55a45.5 45.5 0 0 1-21.27 11.73 46.2 46.2 0 0 1-4.75.85 44.9 44.9 0 0 1-6.69.35c-2.27-.05-4.5-.27-6.66-.63-1.6-.27-3.18-.63-4.72-1.06a45.5 45.5 0 0 1-20.75-12.61 43.8 43.8 0 0 1-3.12-3.69 45.3 45.3 0 0 1-6.45-11.69 44.8 44.8 0 0 1-1.44-4.61c-1-3.9-1.5-7.97-1.4-12.18a45.3 45.3 0 0 1 1.92-12.11"/><path d="M177.1 225.5a6 6 0 1 0 12.04.26 6 6 0 1 0-12.04-.26"/><use xlink:href="#B" x="456.66" y="1.05"/><path d="M594.94 225.72a44.9 44.9 0 0 0 43.89 45.8 44.9 44.9 0 0 0 45.8-43.9c.52-24.76-19.13-45.27-43.9-45.8-24.76-.53-45.26 19.13-45.8 43.9"/><path d="M624.36 226.34L599.32 215c-1 3.43-1.56 7.03-1.64 10.76s.34 7.36 1.18 10.83zm-17.92 26l25.92-16.56a7.4 7.4 0 0 0-4.27-7.76l-.05-.02-27.83 13.03a42.1 42.1 0 0 0 6.23 11.31zm21.48 14.7l3.86-27.2-22.3 16a42 42 0 0 0 18.45 11.2zm10.96 1.7a41.9 41.9 0 0 0 6.47-.35l-1.33-30.72-.05-.04a7.4 7.4 0 0 0-8.85-.19l-.05.04-2.63 30.63c2.1.37 4.25.6 6.44.63zm29.94-11.64l-21.62-16.94 2.7 27.35c7.2-1.8 13.7-5.43 18.9-10.4zm9.88-14.42l-27.3-14.18a7.4 7.4 0 0 0-4.59 7.58v.06l25.2 17.58a42.1 42.1 0 0 0 6.71-11.04zm3.17-15.14a41.7 41.7 0 0 0-1.18-10.83L655.2 227l25.05 11.33a41.9 41.9 0 0 0 1.63-10.76zm-8.76-26.58l-25.92 16.56a7.4 7.4 0 0 0 4.27 7.76l.05.03 27.83-13.04a42 42 0 0 0-6.23-11.31zm-21.48-14.7l-3.86 27.2 22.3-16a42 42 0 0 0-18.45-11.2zm-10.96-1.7a41.9 41.9 0 0 0-6.47.36l1.38 30.75a7.4 7.4 0 0 0 8.86.19l.04-.04 2.63-30.63c-2.1-.37-4.25-.6-6.44-.63zm-29.94 11.64l21.62 16.94-2.7-27.35c-7.2 1.8-13.7 5.43-18.9 10.4zm-9.88 14.42l27.3 14.18c3.05-1.23 4.92-4.3 4.6-7.58v-.05l-25.2-17.58c-2.77 3.28-5.04 7-6.7 11.03zm-4.66 2.96c.46-1.55 1-3.06 1.63-4.54 1.75-4.16 4.1-8 6.94-11.4 1.03-1.24 2.12-2.43 3.27-3.55 5.82-5.67 13.13-9.8 21.27-11.72 1.56-.37 3.14-.65 4.75-.86 2.2-.27 4.42-.4 6.7-.35a45.8 45.8 0 0 1 6.67.64 45.9 45.9 0 0 1 4.71 1.05 45.5 45.5 0 0 1 20.76 12.62c1.1 1.17 2.14 2.4 3.1 3.68 2.7 3.53 4.88 7.47 6.45 11.7a45.6 45.6 0 0 1 1.44 4.61 45.4 45.4 0 0 1 1.4 12.18 45.6 45.6 0 0 1-1.91 12.11 46.2 46.2 0 0 1-1.64 4.54 45.5 45.5 0 0 1-6.93 11.41c-1.03 1.24-2.12 2.43-3.28 3.55a45.4 45.4 0 0 1-21.27 11.72 44.1 44.1 0 0 1-4.75.86c-2.2.27-4.42.4-6.7.35s-4.5-.27-6.66-.63a46.1 46.1 0 0 1-4.72-1.06 45.5 45.5 0 0 1-20.75-12.61 43.8 43.8 0 0 1-3.12-3.69c-2.7-3.53-4.88-7.47-6.45-11.7a44.8 44.8 0 0 1-1.44-4.61c-1-3.9-1.5-7.97-1.4-12.18a45.3 45.3 0 0 1 1.92-12.11"/><path d="M633.76 226.54c-.07 3.32 2.57 6.08 5.9 6.15a6.02 6.02 0 0 0 .26-12.04 6 6 0 0 0-6.15 5.89M88.85 151.6l.8 4.85 50.67 21.77 1.76-1.6.42-.3-51.2-21.6-.87-4.14-.52.4a7.1 7.1 0 0 1-1.05.63m198.7 93.9c6.28-2.4 211.9.57 255.78 1.5 1.62.04 2.05-2.2.54-2.78l-3.1-1.2c-5.52-2.1-11.33-3.3-17.24-3.5-41.38-1.5-213.38-7.26-237.8-1.34-7.77 1.9-13.64 11.06-15.02 13a3.3 3.3 0 0 0 .45.02l5.7.03c2.13-1.18 4.62-3.42 10.68-5.72M164.8 137.55h.6c8.72 0 16.03-4.36 17.25-10.1a7.4 7.4 0 0 0 .16-.96 4.9 4.9 0 0 0 .04-.56v-.22c-.02-3.08-1.77-5.97-4.93-8.26-3.33-2.4-7.8-3.78-12.63-3.9h-.54c-9.52 0-17.4 5.22-17.52 11.6 0 .08 0 .2.02.27-.02.27 0 .53.04.8a5.2 5.2 0 0 0 .17.96c1.3 5.7 8.67 10.2 17.33 10.36zm-.04-25.75l.58.02c5.16.1 10 1.6 13.62 4.22 3.65 2.62 5.64 6.05 5.64 9.68l124.18 1.64c.2.02.38.02.57.02.44.02.87.02 1.33.04 55.32 1.25 168.96 9.36 219.66 13.6.55.05 1.07.08 1.6.14a7.8 7.8 0 0 1 .56.05c24.7 2.1 25.44 2.48 25.77 2.63 2.13 1.1 7.36 4.9 9.28 8.05.56.87.82 1.64.8 2.34-.07 2.9-22.03 27-22.03 27 9.65-11 20.07-25.3 20.28-27.07 0-.22-.07-.64-.54-1.36a13.2 13.2 0 0 0-1.7-2.13 32.4 32.4 0 0 0-6.82-5.25c-.44-.14-3.72-.64-24.72-2.44-.34-.04-.67-.05-1.02-.1-.24-.02-.5-.03-.75-.07-50.4-4.2-165.3-12.44-220.76-13.68-.34 0-.65-.01-.96-.01-.27 0-.53-.02-.8-.02l-124.05-1.66c-1.15 6.8-9.16 11.87-19.05 11.87h-.65c-9.8-.2-17.83-5.38-19.1-12.1-.05-.25-.08-.5-.12-.75a10.8 10.8 0 0 1-.05-1v-.3c.14-7.5 8.6-13.35 19.26-13.35"/><path d="M164.8 140.1h.6c8.72 0 16.03-4.36 17.25-10.1a7.4 7.4 0 0 0 .16-.96 4.9 4.9 0 0 0 .04-.56v-.22c-.02-3.08-1.77-5.97-4.93-8.26-3.33-2.4-7.8-3.78-12.63-3.9h-.54c-9.52 0-17.4 5.22-17.52 11.6 0 .08 0 .2.02.27-.02.27 0 .53.04.8a5.2 5.2 0 0 0 .17.96c1.3 5.7 8.67 10.2 17.33 10.36zm-.04-25.75l.58.02c5.16.1 10 1.6 13.62 4.22 3.65 2.62 5.64 6.05 5.64 9.68l124.18 1.64c.2.02.38.02.57.02.44.02.87.02 1.33.04 55.32 1.25 168.96 9.36 219.66 13.6.55.05 1.07.08 1.6.14a7.8 7.8 0 0 1 .56.05c24.7 2.1 25.44 2.48 25.77 2.63 2.13 1.1 7.36 4.9 9.28 8.05.56.87.82 1.64.8 2.34-.07 2.9-22.03 25.6-22.03 25.6 9.65-11 20.07-23.88 20.28-25.66 0-.22-.07-.64-.54-1.36a13.2 13.2 0 0 0-1.7-2.13 32.4 32.4 0 0 0-6.82-5.25c-.44-.14-3.72-.64-24.72-2.44-.34-.04-.67-.05-1.02-.1-.24-.02-.5-.03-.75-.07-50.4-4.2-165.3-12.44-220.76-13.68-.34 0-.65-.01-.96-.01-.27 0-.53-.02-.8-.02L184.45 130c-1.15 6.8-9.16 11.87-19.05 11.87l-.65-.02c-9.8-.2-17.83-5.38-19.1-12.1-.05-.25-.08-.5-.12-.75a10.8 10.8 0 0 1-.05-1v-.3c.14-7.5 8.6-13.35 19.26-13.35m165.7 115.15l1.46.07 48.4 1.8c60.16 1.7 121.9 1.76 146.34 1.7h1.8l16.52-.12c14.4-.2 24.63 1.32 27.72 1.86-.01.33-.03.67-.05 1-.02.26-.02.5-.03.75-2.74-.5-12.97-2.1-27.6-1.87l-17.7.12c-23.52.06-83.94 0-143.54-1.6l-51.93-1.9c-.22-.02-.45-.02-.66-.04-45.66-2.22-74.27-5.4-85.14-9.46-.04-.47-.1-.96-.16-1.44a6.7 6.7 0 0 0-.07-.5c9.9 4.12 38.38 7.36 84.64 9.63m414.85-16.78l-14.36-9.4s19.87-3.22 25.56 9.62l-11.2-.22m10.66 1.86s-12.13 1.32-14.42 2.57c0 0-5.82 13.6-5.82 17.82 0 4.2 15.74 7.58 15.74 7.58s-5.1-4.1-6.14-5.56c-1.02-1.45 8.28-3.34 8.28-3.34l2.36-19.07M730.93 242l13.55.55 8.3 3.38s.92 4.2-.44 5.56c-1.35 1.36-13.92 1.42-13.92 1.42s-6.96-5.84-7.48-10.9m22.16-50.28l-14.97-9.6-22.32-6.36 21.08 19.05s17.25 1.38 18.86 2.47a24.9 24.9 0 0 0 3.8 1.99s-.4-3.68-6.45-7.56m-216.8-73.97s-68.03-42.88-99.15-56.2l-1.12-.38c-1.26.94-2.23 2-2.14 2.93.17 1.78 8.47 6.07 19.36 12.36a335.2 335.2 0 0 1 13.65 8.26c16.8 10.84 50.2 33.84 50.2 33.84 4.38-.32 13.1-.6 17.12-.74l2.1-.07m-347.08-18.4c-.05 3.05 2.53 11.7 13.12 12.5 9.02.7 44.16 1.2 95.98 2.76l-6.8-56.43c-73.32 8.06-102.23 38.4-102.3 41.18m325.5 26.24c-20.03-15.95-43.36-32.9-64.05-44.77-9.46-5.44-18.38-9.82-26.14-12.55-31.84-11.74-67.58-13.64-111.67-11.72l-8.93.5 18.15 58.3 5.25.17c67.57 2.3 187.4 10.07 187.4 10.07m-46.54-42.1l-.4-.25c-4.07-2.62-8.56-5.33-13.7-8.3l-6.18-3.53c-5.4-3.06-10.96-6.22-12.22-7.56a4.3 4.3 0 0 1 .66-.72c.05.02.1.03.1.03 9.97 4.26 23.85 11.65 38.06 19.68l-6.3.66m-175.3.9c-28.64-1.9-51.23-4.48-68.93-7.2 15.67-7.03 37.34-13.8 66-17.12l2.93 24.3m13.35-25.74l6.7-.35a616.9 616.9 0 0 1 27.22-.65c34.93 0 60.76 3.78 83.8 12.28 7.27 2.54 15.96 6.72 25.84 12.4l4.17 2.44c-29.58 2.32-69.44 3.6-121.18 1.67l-18.1-.78-8.42-27.02"/><path d="M291.54 58.17l6.8 56.42 23.78.74-18.17-58.28c-4.27.3-8.42.68-12.42 1.12"/><path d="M296.5 84.63l-3-24.92 9.22-.82 8.3 26.58-14.5-.84m238.8 33.15l.96-.03c80.67 3.78 132.34 14.02 164.37 23.7-9.47 1.63-47.04-9.88-89.84-13.8l-71.8-5.7-3.7-4.16m-27.6 15.95s-78.23-9.3-162.7-13.27c-45.73-2.15-93.14-.7-131.3 0l294 13.27"/><path d="M309.6 129.34c.07-.2.15-.37.24-.56 2.9-6.7 7.5-10.68 10.37-12.67l3.17.1c-1.22.62-6.2 4.72-10.03 12.97-.16.34-1.92.3-2.06.63.02.16.02.4.05.74.5 7.8 12.75 101.37 35.76 98.55-.2 0-13.93-.7-14.1-.7l-1.46-.07c-17.27-35.38-21.46-90.5-21.95-97.83a15.5 15.5 0 0 1-.05-.8l-.02-.2.1-.17m-72.97 50.47s-28.8-34.85-83.1-15.88c0 0 18.76-18.12 53.65-8.6 21.72 5.92 29.45 24.5 29.45 24.5m442.85-6.37s-25.84-22.9-71.95-5.3c0 0 17.32-14.47 45.56-9.14 18.9 3.56 26.4 14.43 26.4 14.43"/><path d="M737.65 181.73c.66-.2.98-.68 1.4-1.45.4-.72.86-1.52 1.8-2a9.3 9.3 0 0 1 3.18-.72c-2.3-5.42-5.76-12.52-7.3-13.2a74.7 74.7 0 0 0-4.98-1.94c-3.35-1.2-11.88-4.1-18.5-4.9-8.06-1-23.94-.6-25.86-.55-2.18 1.08-4.34 2.5-6.44 4.18 18.88 11.88 54.4 20.82 56.7 20.56zm-59.58-20.38l1.36-1.17a36.5 36.5 0 0 1 7.38-4.85l.36-.1c.72-.02 17.63-.5 26.3.56 5.9.7 13.05 2.97 17.52 4.52l1.36.47c.15.05.3.12.47.17 2.16.8 3.82 1.45 4.6 1.8 2.92 1.3 7.77 13.02 8.7 15.34l.52 1.27-1.36-.07c-.64-.03-2.54 0-3.66.56-.45.23-.73.7-1.05 1.27-.47.84-1.06 1.9-2.46 2.27-.1.04-.2.04-.38.04-4.8 0-40.13-9.5-58.17-21.1a50.2 50.2 0 0 0-6.67 7.19c-.9 1.2-1.57 2.15-1.95 2.74l-.9-.42-.7-.3a50.7 50.7 0 0 1 8.71-10.19"/><path d="M687.18 154.84a36.7 36.7 0 0 0-7.7 5.15c18.76 12.32 56.58 21.8 58.4 21.3 1.9-.54 1.8-2.72 3.35-3.5 1.55-.77 4.08-.64 4.08-.64s-5.5-13.65-8.25-14.87a75.4 75.4 0 0 0-5.03-1.95c-5.1-1.84-12.72-4.23-18.68-4.94-8.7-1.07-26.18-.56-26.18-.56M126.4 101.7c19.9-7.4 78.95-34.9 92.15-39.54 2.37-.83 5.9-1.86 10.4-3 2.43-5.63 2.84-10.54 2.84-10.54 15.32-2.33 25.58 1.12 30.85 3.8 22.8-3.63 51.4-6.56 80.16-5.95 37.88.8 68.07 7.57 83.37 11.76-.8 1.4-3.94 3.78-16.27.5-16.43-4.36-50.53-8.2-81.57-7.23-31.05.98-81.13 5.25-114.58 20.08-33.44 14.83-68.25 30.84-81.7 32.08-2.3.2-4.16-.72-5.64-1.96"/><path d="M231.77 49.86s4 6.2 28.8 2v.84l-31.62 6.45 2.83-9.3M54.65 128.38l.35 1.7a5.2 5.2 0 0 0 .8-.21l-.1-.75-.1-1.03a10.5 10.5 0 0 1-.94.28m3 28.66a8.2 8.2 0 0 1-.23-.7l-.62.12-1.16-.1.14.56-1.76 1.04 2.84.25.13-.02c.01 0 .07-.02.2-.04l.02-.01c.01-.02.03-.02.03-.02l.68-.37-.26-.7m32.22-7.1l.23 1.05a9.3 9.3 0 0 0 1.04-.63c.18-.12.35-.26.53-.4l-.1-.37-1.7.35"/><path d="M90.13 151l.9 4.36 50.6 21.34 1.15-.94.42-.3-50.63-21.36-.87-4.14-.52.4a7.1 7.1 0 0 1-1.05.63m-11.23-4.55c5.83-.95 15.48-13.58 15.9-14.12l.82-1.08-.28-.05v-.02L82 128.22l-.26.68c-.9 2.23-3.82 8.3-6.63 9.7-3.58 1.76-9.67 2.4-9.72 2.4l-.37.03-5.02 6.2 2.9.02c3.3 0 11.5-.07 16-.82zm13.66-14.08c-3.2 4-10.06 11.72-13.94 12.37-4.13.66-11.8.76-14.98.78l2.28-2.8c1.4-.15 6.58-.87 9.95-2.53 3.36-1.7 6.28-7.85 7.2-9.93l9.5 2.12"/><path d="M94.3 147.2c2.58-3.2 9.72-12.9 9.8-15.8.01-.68-.58-1.12-1.08-1.43-4.8-2.88-38.37-11.4-41.25-9.82-1.17.66-1.8 2.02-2.48 3.47-.84 1.8-1.7 3.68-3.68 4.48l.1 1.03c.03.26.06.52.1.75 2.93-.94 4.12-3.47 5.06-5.53.54-1.2 1.06-2.28 1.74-2.67 2.17-.7 22.42 4.05 33.2 7.4 3.35 1.05 5.8 1.95 6.5 2.5-.4 2.1-5.32 9.53-9.37 14.54a14.3 14.3 0 0 1-2.78 2.8c-1.5 1.1-3.14 1.45-6.36 2.2l-1.96.43c-5.93 1.4-20.9 4.14-24.4 4.78.07.25.14.47.23.7l.26.72-.68.36s-.02 0-.04.02l26.96-5.32c2.7-.6 4.43-1 5.95-1.82l-.23-1.04 1.7-.35.1.36c.8-.66 1.62-1.53 2.6-2.75"/><path d="M36.44 204.24c-.12.5-3.16 15.77 2.4 21.8 5.3 5.72 16.78 7.82 27.16 9.33 8.6 1.28 53.64 9.37 54.1 9.44l.13.02.06-1.75.77.04c-.5-5.88-2.9-45.64 22.42-65.67l-1.83-.77c-24.7 20.33-22.94 59.02-22.37 66.2l-53.02-9.23c-7.28-1.08-20.82-3.05-26.12-8.8-4.97-5.37-2-20.27-1.95-20.43l.52-23.7 1.34-2.64c2.7-12.1 16.18-19.43 17.17-19.94-.12.02-.17.04-.2.04l-.12.01-2.85-.24c-4.4 2.77-13.4 9.54-15.68 19.65l-1.42 2.67v.2l-.5 23.77"/><path d="M120.27 243.1l-.07 1.75 1 .05-.1-1.03c0-.04-.04-.28-.07-.73l-.77-.04"/></g><path d="M120.2 244.84l1.03.2-.02-.14z"/><g stroke-linecap="butt"><path d="M142.78 175.75l-1.15.94 1.83.77c.12-.13.26-.23.4-.34l1.2-.88-1.87-.8-.42.3m2.73-48.88a10.6 10.6 0 0 0 .05.99l.12.76h1.8a5.2 5.2 0 0 1-.17-.96c-.04-.27-.06-.53-.04-.8h-1.76"/><path d="M145.66 128.6c1.26 6.73 9.28 11.9 19.1 12.1l.64.02c9.9 0 17.9-5.06 19.06-11.87h-1.8c-1.22 5.74-8.53 10.1-17.26 10.1h-.6c-8.65-.17-16-4.67-17.32-10.36h-1.8m19.07-15.37c-10.66 0-19.12 5.86-19.26 13.35v.3h1.76c-.02-.08-.02-.2-.02-.27.13-6.4 8-11.6 17.52-11.6h.54c4.82.1 9.3 1.5 12.63 3.9 3.16 2.3 4.9 5.18 4.93 8.26h.83l.9.01c0-3.63-2-7.06-5.64-9.68-3.62-2.62-8.46-4.12-13.62-4.22l-.58-.02"/><path d="M184.55 128.08l.04-.72v-.22l-.9-.02h-.84v.23c0 .2-.02.38-.03.56a9.4 9.4 0 0 1-.16.95h1.8c.05-.26.08-.52.1-.78m33.68-66.74c-6.37 2.24-23.43 9.8-41.5 17.82-21.37 9.47-45.62 20.22-54 22.9-10.4 3.33-29.2 6.9-45.9 6.9-8.24 0-14.96-.87-19.95-2.62l-1-.35-.16 1.03c-.1.56-2.28 13.84-1.97 20.2.04.8.1 1.5.17 2.13.28 2.2.8 3.54 1.23 4.73.43 1.22.8 2.18.76 3.83-.01.96-.15 2.38-.3 4-.42 4.47-.94 10.42.01 14.45l1.16.1c.12-.02.33-.07.62-.12-.68-2.43-.66-5.92-.47-9.28.1-1.75.26-3.46.4-5 .16-1.66.3-3.1.32-4.12a10.7 10.7 0 0 0-.9-4.5c-.35-.94-.73-1.98-1-3.57a5.2 5.2 0 0 1-.8.21l-.35-1.7a8 8 0 0 0 .94-.28 14.1 14.1 0 0 1-.06-.96c-.27-5.18 1.27-15.56 1.77-18.83 5.06 1.6 11.63 2.4 19.55 2.4 16.87 0 35.9-3.6 46.42-6.98 8.48-2.7 31.72-13 54.2-22.98L218.8 63a131.2 131.2 0 0 1 8.56-2.54c.28-.58.53-1.12.74-1.63l.15-.38a125.5 125.5 0 0 0-10.05 2.9"/><path d="M228.73 58.32l-.44.1-.16.38-.73 1.62 2.16-.54.18-.4.64-1.57-1.65.4m-44.67 107.4c35.12.73 55.26 18.3 59.87 52.23l1.43.6c.14.07.3.12.45.2-3.1-24.58-16.38-53.8-61.7-54.77-16.68-.35-30.4 3.5-40.9 11.5l1.87.8c10.06-7.33 23.1-10.88 39-10.54"/></g><path d="M244.22 251.02v.02l.82.02z"/><g stroke-linecap="butt"><path d="M244.24 249.25l-.02.94v.82l.84.04.07-1.75-.9-.05m.45-29.1l1.36.54c-.03-.47-.1-.96-.16-1.45-.01-.17-.03-.33-.07-.5l-.45-.2-1.43-.6.2 1.5.05.5.5.2M232.56 49.4c12.7-1.8 21.76.46 27.08 2.64.95-.18 1.9-.32 2.85-.47l.3-.06c-5-2.47-15.5-6.12-31.14-3.73l-.66.1-.07.7a37 37 0 0 1-2.62 9.88c.14-.04.3-.07.44-.1l1.65-.4c1.47-3.85 2-7.15 2.18-8.53"/><path d="M229.57 59.9c9.4-2.34 21.04-4.66 32.9-6.58-.07-.05-.16-.1-.23-.12a33.3 33.3 0 0 0-2.58-1.17 389.1 389.1 0 0 0-29.26 5.9l-.65 1.57c-.05.14-.1.26-.17.4"/><path d="M262.8 51.5l-3.14.52 2.58 1.17c.07.04.16.07.23.12.1-.01.2-.03.3-.05l2.48-.38a20.9 20.9 0 0 0-2.22-1.26c-.07-.03-.15-.07-.24-.12m6.9 198.73l1.43.98c.02-.02.37-.52.96-1.33l-1.66-.03c-.15 0-.3 0-.45-.02l-.28.4"/><path d="M190.12 99.36c.68-2.84 28.6-32.1 100.65-40.22l-.2-1.74c-70.9 8-102.08 37.72-102.2 41.93-.07 4 3.25 12.56 13.92 13.38 5.08.38 18.2.7 38.04 1.2l57.23 1.54-.2-1.76-94.92-2.73c-10.38-.78-12.35-9.35-12.3-11.6m79.82 150.47l-23.97-.5.17-2.86c.37-5.3 1.05-15-.12-25.8-.5-.17-.94-.35-1.36-.54l-.5-.2c1.3 11 .6 21.03.23 26.42l-.18 2.9.9.05-.07 1.75h.02l26.03.56v-.4l-1.43-.97c.04-.04.12-.18.28-.4"/><path d="M290.57 57.4l.1.88.1.87.85-.1.9-.08-.2-1.75-.85.1-.9.1"/><path d="M290.77 59.14l6.58 54.54 1 .04.77.02-6.6-54.8-.9.1-.85.1"/><path d="M298.36 113.73l-1-.04.2 1.76 1.78.06-.2-1.77c-.26 0-.5-.01-.77-.01m4.43-57.47a297.5 297.5 0 0 0-10.49.94l.2 1.75a280.2 280.2 0 0 1 10.82-.98l-.54-1.7"/><path d="M304.6 56.13l-.7.05-1.1.1.53 1.7.68-.05c.37-.04.73-.05 1.12-.07l-.53-1.73m4.17 72.64l-124.18-1.4-.03.7c-.02.26-.06.53-.1.8l123.98.64.1-.17c.07-.2.16-.37.25-.56"/><path d="M308.45 129.72c0 .04.01.32.05.8l.8.01.96.02-.05-.73.45-1-1.32-.03c-.2 0-.4 0-.58-.02l-.24.56-.1.17.02.2m12.5-15.26l-21.8-.7.2 1.76 19.8.6a21.8 21.8 0 0 1 1.95-1.22l-.14-.45"/><path d="M310.66 128.83c3.84-8.25 10.42-12 11.64-12.6h-.23l-2.95-.1a29.9 29.9 0 0 0-10.36 12.67 11.2 11.2 0 0 0 .58.01c.43.02.87.02 1.32.04m-2.16 1.67c.5 7.33 4.68 62.45 21.95 97.83l1.47.07c.17 0 .34.02.54.02-17.4-34.97-21.7-90.07-22.2-97.9-.33 0-.64-.01-.96-.01-.26 0-.52-.02-.8-.02m13.65-16.04l.64.02-17.65-56.64-1.8.12 17.6 56.46 1.2.04"/><path d="M321.08 114.9l-1.95 1.22 3.18.1.2-.1.22-.17.4-.37-.14-.52-.18-.58-1.85-.05.14.45m-75.06 105.8c10.87 4.07 39.48 7.25 85.14 9.46l.02-.26-.1-.2-.64-1.33c-46.25-2.27-74.73-5.5-84.64-9.63a8.6 8.6 0 0 1 .07.5l.16 1.44"/><path d="M331.92 228.42l-1.47-.07.75 1.53 1.62-.68-.08-.16a4 4 0 0 1-.28-.59c-.2 0-.37-.02-.54-.02m-46.32 10.04c7-2.7 99.2-2.72 101.1-2.6 0 0-89.8-3.3-101.74.97-7.53 2.7-13.64 11.06-15.02 13a3.3 3.3 0 0 0 .45.02l1.66.03c2.13-2.75 7.5-9.1 13.54-11.4m57.18-191.16c46.85 1 81.95 11.13 91.5 14.2.34-.33.75-.68 1.23-1.05l.36-.26c-7.87-2.58-44.1-13.58-93.06-14.62l-7.72-.1c-28.47 0-54.97 3.26-72.3 6 .1.05.17.1.24.12.88.44 1.6.88 2.22 1.26 7.42-1.13 16.33-2.34 26.24-3.33a437.1 437.1 0 0 1 43.6-2.31l7.68.1"/><path d="M435.5 60.47l-1.22 1.05 1.47.47a2.9 2.9 0 0 1 .45.16 3.3 3.3 0 0 1 .35-.28 14.5 14.5 0 0 1 1.38-.93l-.44-.2a22.5 22.5 0 0 0-1.2-.4l-.43-.14-.37.26m73.5 63.9l-185.9-8.76-.38.37-.23.17c-.02.02-.08.04-.2.1l5.04.17c65.52 2.24 181.65 9.7 187.16 10.05-.05-.02-.06-.03-.06-.03l-5.43-2.06M469.67 91.5a366 366 0 0 0-18.53-11.44c-10.02-5.78-18.86-10.02-26.28-12.62-23.3-8.58-49.4-12.42-84.66-12.42a621.7 621.7 0 0 0-27.34.65l-8.25.45.52 1.73 7.8-.44c10.02-.44 18.93-.64 27.27-.64 35.04 0 60.97 3.8 84.07 12.3 7.32 2.57 16.07 6.77 26 12.48 21.06 12.07 43.27 28.47 59.5 41.2l5.4 2.06c-12.1-9.65-28.5-22.12-45.5-33.3"/><path d="M515.17 124.82l-5.4-2.06 2.27 1.78-3.02-.2 5.43 2.06s.01.01.07.03c.1.02.17.02.2.02l2.77.17-2.18-1.72c-.02-.02-.03-.04-.05-.06-.04-.01-.05-.03-.07-.03m11.46 107.12l-.17.63 1.67.5.3-1.12h-1.8"/><path d="M534.4 116.95l-6.4-3.33 5.4 3.35 1.02-.02m-19.12 7.95l2.18 1.73-2.78-.18c-.02 0-.08 0-.2-.01.82.47 9.53 5.56 15.82 15.98l2.15.2c-6.7-11.76-16.26-17.22-17.24-17.76.02.02.04.03.06.05"/><path d="M530.33 142.42c-50.7-4.22-164.34-12.33-219.67-13.6l-.45 1c.02.16.02.4.05.74 55.45 1.24 170.38 9.47 220.77 13.68-.04-.32-.04-.55-.05-.68v-.04l-.65-1.1M471.5 88.76l45.66 30.66c4.62-.33 14.04-.65 16.7-.73-.07-.06-.12-.13-.17-.16l-2.85-1.48-13.52.6L467.36 84a344.9 344.9 0 0 0-13.68-8.29l-6.17-3.52c-6.1-3.47-12.4-7.05-12.77-8.2-.02-.28.34-.94 1.46-1.83a4.5 4.5 0 0 0-.45-.16l-1.47-.47c-.92.94-1.34 1.8-1.27 2.67.17 1.8 4.06 4.08 13.64 9.5l6.16 3.5 18.68 11.55"/><path d="M531.03 144.24l.47 8.72c.87 19.82 1.38 56.3-4.85 78.97h1.8c6.1-22.6 5.67-58.24 4.83-78.2-.02-.28-.02-.56-.03-.84l-.46-8.5c-.33-.04-.66-.05-1-.1-.24-.02-.5-.03-.75-.07"/><path d="M530.98 143.52v.03l.05.68c.24.04.5.06.75.07l1 .1-.07-1 .02-.26-.14-.3c-.04-.07-.1-.14-.12-.2l-2.15-.2.65 1.1m-94.13-81.17c24.4 10.44 72.2 39.5 91.05 51.17l.1.07 6.4 3.34 1.64-.07.24-.16c-6.1-3.84-68.7-42.97-98.35-55.78a18.4 18.4 0 0 0-1.38.92c-.12.1-.25.2-.35.28a11.4 11.4 0 0 1 .64.23"/><path d="M530.86 117.06l2.84 1.48c.06.04.1.1.18.16h.36l2.03-.07-.25-.02-.2-.12c-.07-.05-.92-.58-2.44-1.52l-2.53.1m5.7-.17c-.07-.05-.17-.1-.28-.17l-.24.16-1.64.07.2.1.2.14a25.4 25.4 0 0 0 1.66 1.43h.08l2.46-1.6-2.46-.13"/><path d="M536.48 118.62l-1.66-1.43-.2-.14-.2-.1h-.22l-.8.02 2.63 1.64.25.01h.2"/><path d="M536.32 118.62c.05 0 .12 0 .17.02 0-.02-.01-.02-.01-.02h-.16m-9.67 113.3c-24.45.05-86.18-.02-146.34-1.7l-47.86-1.78c.1.2.18.4.28.6l.1.16-1.62.68v.26c.2.02.44.02.66.04l51.93 1.9c59.6 1.6 120.02 1.66 143.54 1.6l17.7-.12c14.64-.24 24.87 1.38 27.6 1.87.02-.25.02-.5.04-.75l.05-1c-3.1-.54-13.3-2.07-27.72-1.86l-16.53.12c-.08.37-.2.75-.3 1.12l-1.68-.5c.05-.2.12-.42.18-.63"/><path d="M568.33 155.63c.02-.7-.24-1.47-.8-2.34-1.92-3.14-7.15-6.96-9.28-8.05-.33-.15-1.08-.54-25.77-2.63.03.07.1.14.12.2l.14.3-.02.26c.02.2.04.52.07 1l24.73 2.44a32.4 32.4 0 0 1 6.82 5.25c.7.74 1.3 1.45 1.7 2.13.47.72.54 1.14.54 1.36-.2 1.78-10.63 14.66-20.28 25.66 0 0 21.95-22.7 22.02-25.6m4.33 79.06l-.04.75.6.12 1.1.6.07-1.4c0-.18.02-.34.03-.5l-.73-.4c-.01 0-.35-.06-1-.17l-.05 1"/><path d="M516.44 250.95L406.84 249 292 250.22c-3 0-5.56-.04-7.64-.07l-12.3-.27-.96 1.33v.4l20.9.35 143.35-.94 138.66 2.65-.03-1.74.8-.02c-.23-2.04-.73-7.98-.47-15.77l-1.1-.6c-.12-.01-.33-.07-.6-.12a117.4 117.4 0 0 0 .42 16.51c-5.73 0-29.12-.44-56.6-.98"/><path d="M574 251.93l.03 1.74.98-.02-.12-.97c0-.02-.04-.28-.1-.77l-.8.02m-26.25-124.8c4.28 1.55 18.25 2.5 35.93 3.68 16.68 1.13 35.57 2.4 52.3 4.55 32.14 3.5 97.65 19 91.63 18.34-54.64-16.7-91.1-20.05-91.46-20.08-16.7-2.15-35.64-3.42-52.36-4.54-16.84-1.13-31.4-2.13-35.44-3.6a42.6 42.6 0 0 1-11.84-6.84c-.06-.02-.12-.02-.18-.02h-.05a62.4 62.4 0 0 0-2.02.07h-.37a44.5 44.5 0 0 0 13.87 8.43m92.4 37.2c-55.27-1.17-66.04 42.63-67.47 69.36.65.1.98.17 1 .17l.74.4c1.27-26.05 11.6-69.4 65.7-68.17 10.8.22 20.4 2.16 28.47 5.77l.33-.9c.04-.06.16-.28.42-.67-8.3-3.7-18.13-5.72-29.2-5.95"/><path d="M669.36 170.27l-.42.66-.33.9.72.3.87.42.3-.9.44-.67-.9-.42-.7-.3"/><path d="M670.5 171.66l-.3.9c3.05 1.47 5.9 3.2 8.53 5.18l1.08-1.38a51.5 51.5 0 0 0-8.86-5.37l-.44.66"/><path d="M679.8 176.38l-1.08 1.38.7.52.68.54 1.08-1.38-.68-.54-.7-.52"/><path d="M680.1 178.82c7.08 5.7 12.56 13.33 16.33 22.75.05.14.1.28.16.42l.03-1.64 1.2.02c-3.84-9.46-9.46-17.15-16.63-22.93l-1.08 1.38M696.6 202v.1h.04c0-.04-.02-.07-.04-.1"/><path d="M696.63 200.35l-.04 1.64c.02.04.04.07.04.1l1.86.03-.45-1.22-.23-.54-1.18-.02"/><path d="M702.13 201c-6.98-17.76-19.3-26.13-19.82-26.48l-.7-.44-1.8 2.3.7.53.68.54.8-1c2.57 1.92 12.1 9.8 18 23.98l-2.18-.06c.08.18.15.37.22.55a22 22 0 0 1 .46 1.22l4.1.07-.47-1.2m.2 52.83c-.03-.02-.42-.2-1.06-.5l-.18 1.12-.12.66.6.28.77-1.57"/><path d="M536.5 118.64c112.45 5.3 168.32 23.4 191.66 33.76.04.02.1.04.12.06a52.3 52.3 0 0 1 2.76 1.24c.14-.48.3-.77.44-.93l.36-.6a79.2 79.2 0 0 0-2.86-1.31c-23.2-10.33-78.64-28.4-189.95-33.83l-2.46 1.6h-.1s.02 0 .02.02M729.2 235.7l.02 1.55.8.42.92-1.77v-.2l-.02-3.44-1.73 3.23v.2"/><path d="M731.04 153.7c-.27.9-.44 2.53-.06 5.36l1.84.64c-.46-2.93-.34-4.48-.18-5.23l-1.6-.77"/><path d="M730.98 159.05l.2 1.45 1.7-.32c-.04-.17-.05-.33-.1-.5l-.47-.17-1.36-.47m1.4-6.64l-.53-.24-.36.6c-.13.16-.3.46-.44.93l.8.36.82.4c.1-.45.2-.62.2-.62l.55-.95-1.03-.5m-3.15 84.87l.2 5c.35 2.9 3.7 6.67 7.02 9.75h.12l2.53.04c-4.8-4.2-7.66-7.85-7.92-10.02-.14-.97-.2-3.12-.2-6.12l-.1.2-.82 1.57-.8-.42m-26.92 16.6l-.76 1.57c-.02-.02-.23-.1-.6-.28l-.08.44 1.13-.07c.25-.02 26.98-1.9 34.5-1.75l1.9.04c-.07-.07-.16-.14-.25-.2l-1.74-1.57c-.28 0-.58-.02-.9-.02-7.63 0-27.64 1.34-32.56 1.7.82-5.42 3.8-29.8-4.48-51.56l-1.87-.03c8.37 21.43 5.46 45.78 4.64 51.26.65.28 1.03.47 1.06.5"/><path d="M738.16 253.58l.25.2h.33l2.34-.04-2-1.7h-.33c-.73 0-1.46-.01-2.2-.03h-.12l1.74 1.57m-50.77-97.86c1.92-.06 17.8-.44 25.86.55 6.6.8 15.14 3.7 18.5 4.9a74.7 74.7 0 0 1 4.98 1.94c1.55.68 5.02 7.78 7.3 13.2a9.3 9.3 0 0 0-3.18.72c-.94.47-1.4 1.27-1.8 2-.43.77-.75 1.26-1.4 1.45-2.28.26-37.8-8.67-56.7-20.56 2.1-1.7 4.26-3.1 6.44-4.18zm-7.83 5.35c18.04 11.6 53.37 21.1 58.17 21.1.17 0 .3 0 .38-.04 1.4-.38 2-1.43 2.46-2.27.32-.55.6-1.04 1.05-1.27 1.12-.56 3.02-.6 3.66-.56l1.36.07-.52-1.27c-.94-2.32-5.8-14.03-8.7-15.34-.78-.35-2.44-1-4.6-1.8.03.16.05.32.08.5l-1.7.32a25.4 25.4 0 0 1-.21-1.45c-4.47-1.55-11.62-3.8-17.52-4.52-8.67-1.05-25.58-.58-26.3-.56l-.36.1a36.5 36.5 0 0 0-7.38 4.85l-1.36 1.17a50.7 50.7 0 0 0-8.71 10.19l.7.3.9.42c.38-.6 1.05-1.55 1.95-2.74a50.2 50.2 0 0 1 6.67-7.19m65.7 51.64c-3.1 0-9.23 10-14.36 19.5l.02 3.68c7.4-14.08 12.8-21.44 14.34-21.44a390 390 0 0 1 10.14.2c.05-.33.1-.68.17-1l.14-.73-10.45-.2m-13.7-15.86c-1.9 4.12-2.5 28.76-2.4 38.62l.1-.2 1.63-3.07c.03-13.07.85-31.6 2.25-34.6.35-.75 1.38-1.35 3-1.73 5.58-1.34 15.77.26 18.88 2.4a5.1 5.1 0 0 1-.13 2.4c-.45 1.85-2 7.2-2 7.2 1.93-2.4 3.17-4.66 3.7-6.77.57-2.3.03-3.6-.02-3.73l-.1-.2-.17-.12c-3.44-2.7-14.8-4.3-20.6-2.88-2.18.52-3.58 1.43-4.15 2.68"/><path d="M756.42 214.7l.07-1.74c-.01 0-.3 0-.75-.02l-.14.73-.17 1.02 1 .01"/><path d="M760.35 199.63c1.04-2.28-3.5-6.7-5.7-8.7-.7-2.1-6.2-18.86-6.4-28.8v-.4l-.3-.26c-.18-.14-4.17-3.6-14.6-8.6l-.54.94s-.1.18-.2.63c8.65 4.15 12.82 7.28 13.9 8.1.34 10.9 6.28 28.4 6.54 29.16l.07.23.17.14a30.6 30.6 0 0 1 4.57 4.93c.67.93.98 1.6.86 1.9-.12.24-.3.73-.68 2.28-.68 2.92-1.62 7.84-2.34 11.73l.75.02-.07 1.74c-.02 0-.38-.02-1-.02-1 5.34-1.9 10.72-2.32 13.9-.88 6.58.57 9.95 1.2 11.38.05.12.1.22.14.3-.2.45-1.2 1.62-2.2 2.62l-.3.3.04.42c.33 2.95.42 6.53.03 7.14-.6.54-5.5 1.3-12.94 1.33.1.07.15.14.24.2l1.76 1.5c3.86-.1 11.08-.46 12.3-1.94.92-1.12.66-5.32.38-8 2.62-2.63 2.48-3.44 2.42-3.75-.03-.25-.14-.47-.27-.82-.58-1.3-1.9-4.35-1.07-10.43.45-3.37 1.43-9.2 2.46-14.84a304.5 304.5 0 0 1 2.48-12.35 14.7 14.7 0 0 1 .56-2m-607-77.83c0 2.16 5.27 3.9 11.77 3.9s11.77-1.74 11.77-3.9c0-2.15-5.27-3.9-11.77-3.9s-11.77 1.75-11.77 3.9"/><path d="M686.07 160.07l22.6 9.2s-14.46-7.03-14.18-8.2 11.56-.15 11.56-.15l1.16 5.38.78.36-1.17-5.63s11.74 1.54 15.08 3.2 1.6 3.77 1.6 3.77 4.07 1.08 3.93 3.4c-.15 2.32-2.33 3.3-3.93 2.95l7.42 3.07a75.1 75.1 0 0 0 6.1 1.37l.1-.62a4.2 4.2 0 0 1 3.78-3.51h.04s-2.87-7.84-5.24-9.52c-2.36-1.67-13.56-5.87-29.84-7.32s-19.8 2.23-19.8 2.23m-125.76-7.03l3.52.02 1.43 1.88.05.1-1.93 2.16-29.2-4.33a3263.7 3263.7 0 0 1 26.14.18"/><path d="M542.64 148.1l12.3.96a4.3 4.3 0 0 1 2.72 1.26l2.65 2.68-22.9-.16c.2-.78 5.22-4.74 5.22-4.74m18.1 10.2l-18.37-.38a3.1 3.1 0 0 1-2.4-1.2c-.84-1.07-2-2.6-2.4-3.4l23.92 3.54c-.28.67-.56 1.28-.75 1.43"/></g><path d="M565.3 155l-31.14-2.16 29.66.2z"/><path d="M57.62 133.15c-.3-.8-.6-1.6-.83-2.72 2.77-1.2 3.96-3.77 4.86-5.72.4-.86.85-1.82 1.26-2.2h.23c5.5 0 30.52 6.2 37.2 9.03-2.06 1.13-4.13 2.14-6.2 3l1.35-1.7 1.65-2.16-15.68-3.48-.55 1.38c-1.2 2.96-3.93 8.1-6.2 9.23-3.42 1.7-9.36 2.32-9.42 2.33l-.72.07-.28.34c-2.1.04-4.08 0-5.9-.08a50.1 50.1 0 0 0 .16-2.52c.04-2.15-.46-3.5-.94-4.8" stroke-linecap="butt"/></g><path fill="url(#A)" stroke="none" d="M5.5 125.5h780v175H5.5z"/><g fill-opacity=".84" stroke="#3d85c6" stroke-width="4"><path d="M357.67 95.5h43.47v43.47h-43.47zm161.48 0h43.47v43.47h-43.47zm-242.2 116.73h43.47v43.47h-43.47zm161.46 0h43.47v43.47H438.4z"/><path d="M109.98 176.35H670.4M196.2 95.5h43.47v43.47H196.2z"/><path d="M217.75 141.86v32.33m161.65-32.33v32.33m161.67-32.33v32.33m-243.57 3.9v32.33m161.66-32.33v32.33"/></g></svg>