<svg xmlns="http://www.w3.org/2000/svg" xmlns:xlink="http://www.w3.org/1999/xlink" width="2560" height="1440" stroke="#000" stroke-linecap="round" stroke-linejoin="round" fill="#fff" fill-rule="evenodd"><g stroke="#3d85c6" fill="none" stroke-linejoin="miter" stroke-width="10"><path d="M1723.41 413.08a76.5 76.5 0 0 0 5.74-28.41c0-40.32-32.69-73.01-73.01-73.01H482.51c-40.32 0-73.01 32.69-73.01 73.01.12 10.05 2.13 19.79 5.74 28.41l109.52 318.3c6.28 16.35 22.6 25.88 39.03 25.87h1011.06c18.95.33 33.64-10.46 39.04-25.87z"/><path d="M969.34 757.25v55.19h199.96v-55.19" stroke-linecap="butt"/><path d="M646.62 500.73h845.41v67.45H646.62z"/><use xlink:href="#B"/><use xlink:href="#B" x="110.75"/><use xlink:href="#B" x="221.49"/><use xlink:href="#B" x="332.24"/><use xlink:href="#B" x="442.98"/><use xlink:href="#B" x="553.73" stroke="#f90"/><use xlink:href="#B" x="664.48"/><use xlink:href="#B" x="775.22"/><use xlink:href="#B" y="278.13"/><use xlink:href="#B" x="110.75" y="278.13"/><use xlink:href="#B" x="221.49" y="278.13"/><use xlink:href="#B" x="332.24" y="278.13"/><use xlink:href="#B" x="442.98" y="278.13"/><use xlink:href="#B" x="553.73" y="278.13" stroke="#f90"/><use xlink:href="#B" x="664.48" y="278.13"/><use xlink:href="#B" x="775.22" y="278.13"/></g><g fill-opacity=".71" stroke="#f90" stroke-width="8"><path d="M1601.88 862.1h91.42v91.42h-91.42zm339.56 0h91.42v91.42h-91.42zm-509.35 234.29h91.42v91.42h-91.42zm339.57 0h91.42v91.42h-91.42z"/><path d="M1081 1023.84h1178.5M1262.31 862.1h91.42v91.42h-91.42z"/><path d="M1307.63 955.45v67.99m339.96-67.99v67.99m339.95-67.99v67.99m-512.2 1.19v67.99m339.96-67.99v67.99"/></g><circle cx="1627.3" cy="857.96" fill-opacity=".67" stroke="#f65856" r="341.44" stroke-width="9"/><path d="M1805.13 679.85c-20.77-19.92-54.06-19.07-73.98 1.7l-106.41 111.83-106.14-112.11a52.2 52.2 0 0 0-73.97-1.99c-21.06 19.91-21.91 52.92-2 73.98l109.83 116.09-110.11 115.8a52.5 52.5 0 0 0 1.71 73.98c10.24 9.67 23.04 14.51 35.85 14.51 13.94 0 27.6-5.4 37.84-16.22l106.42-111.82 106.13 112.11c10.24 10.81 24.18 16.22 37.84 16.22a53.8 53.8 0 0 0 36.14-14.23c21.05-19.92 21.9-52.92 1.99-73.98l-109.83-116.09 110.11-115.8c20.2-21.06 19.63-54.07-1.42-73.98z" fill="#f65856" fill-rule="nonzero" stroke="none"/><circle cx="1627.3" cy="857.96" fill="none" stroke="#f65856" r="341.44" stroke-width="9"/><defs ><path id="B" d="M646.62 369.87h70.18v51.04h-70.18z"/></defs></svg>