<svg xmlns="http://www.w3.org/2000/svg" xmlns:xlink="http://www.w3.org/1999/xlink" width="800" height="600" stroke="#000" stroke-linecap="round" stroke-linejoin="round" fill="#fff" fill-rule="evenodd"><style><![CDATA[.B{stroke-width:2}.C{stroke:none}.D{fill:none}.E{stroke:#3d85c6}.F{fill:#3d85c6}.G{fill-rule:nonzero}]]></style><defs><path d="M0 0l4 5h-8z" id="A" class="C"/></defs><ellipse cx="397" cy="565.78" fill="#e0e0e0" rx="387.5" ry="6.8" stroke-opacity=".02"/><g stroke="#434343" stroke-linejoin="miter" stroke-linecap="butt" class="B G"><path d="M70.58 519.09s16.22 12.28 17.23 11.57c.99-.71-.77-4.97 0-5.72.75-.75 11.31-3.36 11.31-3.36l107.97 6.45s15.69 1.45 18.63.12c2.94-1.32 310.75-10.18 310.75-10.18l3.48 3.75s8.98-2.83 14.51 4.25c5.52 7.11 132.16-7.82 134.82-4.25 2.68 3.56-7.12-99.57-7.12-99.57l-258.2 13.76-298.47-14.87s-65.46 48.8-54.91 98.05m268.03-219.93s12.74-10.33 28.18-11.77c15.45-1.43 216.42-5.89 263.07.32 46.67 6.21-133.91 53.5-133.91 53.5l-157.34-42.05"/><path d="M204.2 380.39s111.95-76.28 120.23-77.55c8.27-1.27 12.41 6.06 12.41 6.06l-126.43 81.69-6.21-10.2"/><path d="M222.07 380.36s64.27-50.84 105.24-76.66l-9.66 2.09s16.17-19.53 142.19-15.54l211.74 4.83s5.01-.95 5.46 10.5c0 0-12.82 6.09-12.39 9.46.41 3.36-59.02 58.4-59.02 58.4L355.24 387.5l-133.17-7.14m492.75 94.73l1.63-32.2s8.65 1.35 9.85 7.45c1.18 6.12 8.04 38.63 0 42.33-8.06 3.71-.46 13.71-.46 13.71l-10.58 12.83s-11.33-37.41-.44-44.12m-663.48-27.1s-9.08 1.17-10.54 14.04-3.22 38.04 2.05 52.37c5.26 14.33 9.66 2.81 9.66 2.81l-1.17-69.22"/><path d="M42.43 497.56c.48 7.72.06 14.05-.93 14.11-1 .05-2.21-6.16-2.68-13.88-.49-7.74-.08-14.05.92-14.11s2.2 6.15 2.69 13.88m653.08-137.12s4.81-2.2 5.64 0c.83 2.22-2.48 4.63-4.16 4.85-1.69.23-1.48-4.85-1.48-4.85"/><path d="M677.36 303.04s-11.21-3.45-14.51 13.79c-3.31 17.24-2.45 61.62-2.45 61.62l23.13 34.19 22.99 6.91s-2.45-3.77-3.45-14.24c0 0-1.3-1.73-1.3-5.18s-5.31-31.46-2.88-32.18c0 0-7.03-35.18-21.53-64.91M77.13 400.2s-9.89 5.12-10.92 7.19c-1.02 2.07-9.19 15.39-7.34 28.82 1.87 13.44 19.51 6.06 19.51 6.06l22.76-13.01 33.78-33.44s-48.5-2.93-57.79 4.38"/><path d="M674.75 311.31l6.41 13.37s-3.27 3.87-2.09 9.23c1.18 5.35 8.02 37.6 9.96 40.72 1.93 3.12 6.99 8.32 7.14 10.56.15 2.22 1.78 17.68 1.78 17.68s-20.66-15.01-23.2-21.85c-2.52-6.84-7.72-57.67-5.93-62.42 1.78-4.75 5.93-7.29 5.93-7.29m8.45 20.66s-1.75 1.63-.71 5.8c1.05 4.16 6.55 32.98 8.48 35.07 1.93 2.08 2.68 3.86 3.11 2.83.45-1.05-7.67-38.3-10.88-43.7m16.2 54.83s-2.84-18.58-1.45-19.32c1.38-.73 4.77 8.08 6.01 19.55 1.24 11.45.96 18.13-.66 18.43-1.62.28-3.09-12.41-3.9-18.66m-549.18 39.54c76.95 0 87.77 82.81 87.77 82.81l284.68-2.93s3.52-84.06 96.26-84.06c64.47 0 82.23 71.77 82.23 71.77l14.29-.76c-.3-.02-.51.02-.51.02-.49-1 .76-13.82 1.5-16.04.72-2.21 1.47-13.56 1.47-13.56s.74-4.44 0-19.49c-.74-15.04-7.9-18.99-8.64-19.97-.74-.99-3.93-6.62-3.93-6.62l-26.88-21.73c-11.36-9.38-12.35-16.29-13.58-26.65s-1.55-54.52-1.55-54.52l-40.62-1.95c3.46 4.2-17 36.75-21.69 44.63-4.69 7.89-17.27 7.4-17.27 7.4l-157.59 5.42-179.54 7.06s-35.03 2.32-43.41 1.34c-8.37-1-54.25 5.92-89.26 10.84-35.02 4.93-45.14 15.3-45.14 15.3s-7.15 6.65 2.21-.74c9.38-7.4 43.91-7.15 48.09-6.9 4.2.24 6.41 3.44 6.41 3.44-5.16 1.49-33.28 23.43-40.94 28.12-7.64 4.69-14.54 6.92-20.46 6.92s-5.43-4.07-5.43-4.07c-6.41 9.23-8.4 5.22-11.59 13.62-3.22 8.38.7 57.85.7 57.85l22.86.85s2.61-77.4 79.56-77.4"/><path d="M721.07 493.65c0 7.45 1.46 13.48 3.24 13.48 1.8 0 3.27-6.03 3.27-13.48 0-7.46-1.47-13.49-3.27-13.49-1.78 0-3.24 6.03-3.24 13.49m-437-121.16l128.15-4.63 15.66-59.43h-85.72s-57.21 39.96-60.33 45.8c-3.13 5.82 2.24 18.26 2.24 18.26"/><path d="M450.38 309.01l-8.33 57.18 124.18-3.82 3.33-32.45-8.96-18.61-110.22-2.3m119.18 2.31l21.25 48.14s1.05 2.14 5.84-3.48c4.78-5.63 20.83-34.37 20.83-34.37s2.29-3.33 0-6.26c-2.29-2.91-9.79-2.49-9.79-2.49l-38.13-1.54m-374.01 83.92s4.07 10.53 16.47 10.15c12.41-.39 20.71-1.36 20.71-1.36s2.13-10.14 2.95-11.45l-40.13 2.66"/><path d="M238.22 509.3c-11.79-35.55-5.85-101.81-5.65-103.92-.05-1.08-.55-14.82 12.96-29.28 13.64-14.62 93.72-72.4 94.52-72.99l.15-.11h.2l203.2 2.51c2.55-.02 63.23-.36 73.65 1.95 3.29.73 5.6 2.27 6.85 4.57 2.07 3.79.47 8.25.42 8.43l-1.12-.4c.02-.04 1.48-4.16-.33-7.48-1.08-1.99-3.14-3.32-6.07-3.97-10.29-2.29-72.78-1.94-73.42-1.94l-202.99-2.5c-4.02 2.9-80.92 58.5-94.2 72.72-13.41 14.36-12.66 28.32-12.64 28.45v.06.03c-.07.68-6.26 67.79 5.59 103.5l-1.12.37"/><path d="M125.59 401.03l-.1-1.17L235.65 392l.08 1.17-110.14 7.86m104.8-4.11h-26.92s-.58 4.65 5.67 6.44c0 0 20.02-.03 21.25-1.2 1.23-1.16 0-5.24 0-5.24m52.23-48.67l2.7-2.35h3.59s2.14.95 2.36 11.99c.22 11.03-1.24 13.8-4.33 14.35-3.08.54-4.32-23.99-4.32-23.99"/><path d="M262.72 364.13s2.63 8.5 7.75 9.13c5.08.64 15.7-.53 17.18-1.26 1.5-.75 1.48-15.85.63-18.48-.83-2.65-14.43-.64-14.43-.64l-5.63 3.62-1.27 5.42s-4.13.41-4.23 2.21"/><path d="M267.9 361.5s.45.99 1.81 0c1.39-.98 5.17-3.63 19.1-3l-.45-4.33s-23.23-2.83-20.46 7.33"/><path d="M266.21 362.32s.53-14.53 12.63-15.82l7.01-.63s1.81-1.59 2.54 9.04c0 0-14.11 0-16.77 1.05-2.65 1.07-3.82 2.34-3.71 4.99.1 2.66-1.7 1.37-1.7 1.37m152.43 146c-.93-3.39-1.6-23.23-2.04-36.37l-.33-9.01c-.36-8.31 1.91-63.34 3.52-72.46 1.5-8.43 7.11-22.19 7.52-23.19l11.6-62.48 1.15.22-11.61 62.59-.04.05c-.05.15-5.93 14.43-7.46 23.01-1.5 8.33-3.92 62.69-3.49 72.2l.31 9.03c.41 12.29 1.11 32.84 1.99 36.1l-1.12.31"/><path d="M238 509.08s-10.83-82.77-87.78-82.77-79.55 77.41-79.55 77.41l-22.87-.83c-5.48-.4-4.39 2.87-4.39 3.85s-1.48 2.71-2.46 3.96c-1 1.23-2.96-1.48-4.69 7.88-1.73 9.37 30.09 10.12 30.09 10.12.75 1.48 3.94 1.98 3.94 1.98 13.83 2.21 17.52 0 17.52 0-19-26.9 9.86-96.5 66.83-88.12 72.73 10.7 66.97 85.48 66.97 85.48h321.94c-1.69-5.18-2.01-12.94-.82-21.96h-20.06l-284.67 3"/><path d="M728.76 511.93c-1.73-1.73-2.47-10.62-2.47-10.62s-1.98 7.41-3.93 7.16c-1.99-.25-3.7-8.39-4.12-12.07-.31-2.74-1.96-3.19-2.79-3.23l-14.3.76s-17.73-71.85-82.21-71.85c-92.76 0-96.27 84-96.27 84h20.07c4.08-29.07 25.95-67.44 73.56-62.68 80.24 8.02 68.31 82.54 68.31 82.54s25.16-2.2 35.76-4.42c10.61-2.21 10.12-7.86 8.39-9.59"/><path d="M533.31 507.17l-1.18-.07c3.09-41.29 30.83-59.12 47.43-69.77l6.27-4.15c11.58-8.27 11.69-32.23 11.76-46.55l.07-6.04c.39-12.38-9.94-18.87-10.05-18.92l-.16-.11-.07-.17-24.4-54.66 1.07-.49 24.33 54.52c1.34.91 10.83 7.67 10.47 19.87-.06 1.71-.08 3.69-.09 6-.06 14.54-.19 38.88-12.26 47.5-1.78 1.27-3.89 2.62-6.32 4.2-16.4 10.52-43.85 28.14-46.87 68.84m-307.59 11.82c.12 2.58 2.53 5.16 5.48 5.16h300.91c2.95 0 5.36-2.58 5.48-5.16H225.72"/><path d="M400.72 401.94c.31 5.22-3.17 9.53-7.77 9.8l-5.54.34c-4.6.27-8.57-3.58-8.89-8.8-.31-5.24 3.17-9.53 7.77-9.82l5.54-.32c4.6-.29 8.57 3.56 8.89 8.8"/><path d="M414.13 401.5c.05 1.72-1.21 3.13-2.83 3.18l-40.94 1.28c-1.62.05-2.97-1.29-3.02-3.01-.05-1.71 1.21-3.14 2.83-3.19l40.94-1.28c1.62-.03 2.97 1.31 3.02 3.02m159.21-6.59c.32 5.22-3.16 9.53-7.75 9.8l-5.55.34c-4.6.27-8.58-3.57-8.89-8.81-.32-5.23 3.15-9.53 7.77-9.8l5.53-.35c4.62-.27 8.58 3.59 8.89 8.82"/><path d="M586.74 394.49c.05 1.71-1.22 3.14-2.83 3.19l-40.95 1.27c-1.61.05-2.95-1.31-3.02-3.01-.04-1.72 1.21-3.15 2.84-3.18l40.95-1.29c1.61-.05 2.95 1.3 3.01 3.02M213.75 510.34a59.7 59.7 0 0 1-59.69 59.71 59.7 59.7 0 1 1 0-119.41 59.7 59.7 0 0 1 59.69 59.7"/><path d="M109.08 510.33c0 24.92 20.21 45.11 45.11 45.11a45.1 45.1 0 1 0 0-90.2 45.1 45.1 0 0 0-45.11 45.09"/><path d="M138.54 480.11l10.43 11.85s1.82 2.85 4.28 2.85c2.47 0 4.27-1.99 4.27-1.99l10.91-12.71s1.53-1.82 0-3.04c-1.51-1.24-6.84-3.04-14.24-3.04s-18.31 1.99-15.65 6.08m0 60.47l10.43-11.85s1.8-2.85 4.27-2.85c2.48 0 4.27 2 4.27 2l10.91 12.7s1.53 1.81 0 3.04c-1.51 1.23-6.84 3.04-14.23 3.04s-18.3-1.99-15.65-6.08m46.26-45.31l-11.86 10.44s-2.84 1.8-2.84 4.26c0 2.48 1.99 4.28 1.99 4.28l12.71 10.92s1.81 1.51 3.04 0c1.23-1.52 3.03-6.86 3.03-14.25s-1.99-18.31-6.07-15.65m-60.48 0l11.86 10.44s2.85 1.8 2.85 4.26c0 2.48-1.99 4.28-1.99 4.28l-12.72 10.92s-1.8 1.51-3.03 0c-1.25-1.52-3.05-6.86-3.05-14.25s2.01-18.31 6.08-15.65m545.91 15.08a59.7 59.7 0 1 1-119.41 0 59.7 59.7 0 1 1 119.41 0"/><path d="M565.57 510.34a45.1 45.1 0 1 0 90.2 0 45.1 45.1 0 1 0-90.2 0"/><path d="M595.03 480.11l10.44 11.85s1.8 2.87 4.27 2.87c2.46 0 4.28-2 4.28-2l10.89-12.72s1.53-1.81 0-3.04c-1.5-1.23-6.84-3.03-14.23-3.03-7.4 0-18.31 1.98-15.65 6.07m0 60.46l10.44-11.85s1.8-2.86 4.27-2.86c2.46 0 4.28 2 4.28 2l10.89 12.71s1.53 1.8 0 3.05c-1.5 1.23-6.84 3.03-14.23 3.03-7.4 0-18.31-1.99-15.65-6.08m46.26-45.31l-11.86 10.44s-2.85 1.81-2.85 4.26c0 2.48 2 4.27 2 4.27l12.71 10.92s1.81 1.51 3.03 0c1.23-1.51 3.04-6.84 3.04-14.24 0-7.39-1.99-18.31-6.07-15.65m-60.48.01l11.86 10.42s2.85 1.82 2.85 4.29-2 4.26-2 4.26l-12.71 10.92s-1.8 1.52-3.03 0c-1.23-1.53-3.05-6.85-3.05-14.24 0-7.41 2-18.32 6.08-15.65"/></g><g class="E"><path d="M289.5 139.5h68v41.16h-68z" class="B"/><path d="M297.27 180.66h23.26v3.58h-23.26zm29.2 0h23.26v3.58h-23.26z" class="B"/><circle cx="323.32" cy="149.04" r="2.78"/><circle cx="328.79" cy="155.99" r="4.17"/><circle cx="317.95" cy="162.4" r="6.31"/></g><g transform="translate(331.2 202.54)" class="E"><path d="M0 5.63V35" class="B D"/><use stroke-width="1.6" transform="matrix(1.25 0 0 1.25 0 0)" xlink:href="#A" class="F"/></g><g transform="matrix(-1 0 0 -1 316.2 239.54)" class="E"><path d="M0 5.63V35" class="B D"/><use stroke-width="1.6" transform="matrix(1.25 0 0 1.25 0 0)" xlink:href="#A" class="F"/></g><path d="M262.72 119.5H63.59v180h199.13v-21.36l21.78-54.75-21.78-.25V119.5" stroke="#f90" class="B"/><g transform="matrix(0 -1 1 0 211.8 279.15)" class="E"><path d="M0 0h142.16" stroke-width="3" class="D"/><use transform="matrix(0 1.5 -1.5 0 148.905 -148.905)" x="99.27" xlink:href="#A" class="B F"/></g><circle cx="50.09" cy="50.09" transform="matrix(0 -1 1 0 110.37 260.2)" r="50.09" class="C"/><g transform="translate(65.91 134.94)"><g transform="matrix(0 1 -1 0 48.73 0)" class="E"><path d="M0 0h142.16" stroke-width="3" class="D"/><use transform="matrix(0 1.5 -1.5 0 148.905 -148.905)" x="99.27" xlink:href="#A" class="B F"/></g><circle cx="50.09" cy="50.09" r="50.09" transform="matrix(0 1 -1 0 100.18 18.95)" class="C"/><g stroke="#f90" stroke-width="4"><circle cx="49.09" cy="71.06" fill-opacity=".7" r="37.5"/><circle cx="49.09" cy="71.06" r="37.5" class="D"/></g><g fill="#f90" class="C"><circle cx="49.09" cy="93.87" r="7.81"/><rect height="37.5" rx="10" width="12.5" x="42.84" y="42.94"/></g></g><circle cx="50.09" cy="50.09" transform="matrix(0 1 -1 0 262.09 153.89)" r="50.09" class="C"/><path d="M234.67 187.21c-2.45-1.93-5.98-1.5-7.92.92l-20.15 25.53-11.45-11.9c-2.15-2.24-5.74-2.34-7.98-.16-2.23 2.15-2.33 5.74-.15 7.98l13.69 14.27c1.56 1.78 3.77 2.82 6.1 2.82h.09c2.46-.03 4.76-1.17 6.32-3.16l22.4-28.35a5.7 5.7 0 0 0-.95-7.95z" fill="#11d0ae" class="C G"/><circle cx="210.77" cy="205.41" stroke="#11d0ae" r="36.82" stroke-width="4" class="D"/></svg>