<svg xmlns="http://www.w3.org/2000/svg" xmlns:xlink="http://www.w3.org/1999/xlink" width="800" height="600" stroke="#000" stroke-linecap="round" stroke-linejoin="round" fill="#fff" fill-rule="evenodd"><style><![CDATA[.B{stroke-width:2}.C{fill:none}.D{stroke:none}.E{fill-rule:nonzero}.F{stroke:#f90}.G{stroke:#f65856}.H{stroke:#3d85c6}.I{fill:#3d85c6}.J{stroke:#434343}.K{stroke:#11d0ae}.L{fill:#11d0ae}.M{fill-opacity:.67}.N{fill:#f65856}.O{fill:#434343}.P{stroke-opacity:.02}.Q{stroke-linejoin:miter}]]></style><defs><linearGradient id="A" x1="50%" y1="100%" x2="50%" y2="0%"><stop offset="0%" stop-color="#fff"/><stop offset="100%" stop-color="#fff" stop-opacity="0"/></linearGradient><path d="M0 0l4 5h-8z" id="B" class="D"/><path id="C" d="M388.94 75.23c-.76-.59-1.84-.46-2.44.29l-6.2 7.85-3.52-3.66c-.66-.69-1.77-.72-2.46-.05-.69.66-.71 1.77-.04 2.45l4.21 4.39a2.5 2.5 0 0 0 1.88.87h.02c.76-.01 1.47-.36 1.95-.97l6.89-8.72c.58-.77.46-1.86-.29-2.45z"/><path id="D" d="M387.39 105.33c-.7-.67-1.82-.64-2.49.06l-3.58 3.77-3.58-3.78c-.67-.71-1.78-.74-2.49-.07-.71.68-.74 1.79-.06 2.5l3.69 3.91-3.7 3.9c-.68.71-.65 1.82.05 2.49a1.8 1.8 0 0 0 1.21.49c.47 0 .93-.18 1.28-.55l3.58-3.77 3.57 3.78a1.8 1.8 0 0 0 1.28.55c.43 0 .87-.17 1.22-.48.7-.67.73-1.78.06-2.49l-3.7-3.91 3.71-3.9c.68-.71.66-1.83-.05-2.5z"/></defs><g class="H"><g class="B"><path d="M162.48 241.05h55.87v33.82h-55.87z"/><path d="M168.86 274.87h19.11v2.94h-19.11zm24 0h19.11v2.94h-19.11z"/></g><circle cx="190.28" cy="248.89" r="2.29"/><circle cx="194.78" cy="254.6" r="3.43"/><circle cx="185.86" cy="259.86" r="5.18"/></g><path d="M146.6 341.31H57.72v-94.49h88.88v49.87l9.72 27.92-9.72.95v15.75" class="B F"/><path d="M138.38 265.83h-6.99v-6.99h-16.3v6.99h-6.99c-1.29 0-2.33 1.04-2.33 2.33v4.66c0 1.28 1.04 2.33 2.33 2.33v16.3c0 1.29 1.04 2.33 2.33 2.33h2.33c1.28 0 2.33-1.04 2.33-2.33v-6.99h2.33v1.17a3.5 3.5 0 0 0 2.33 3.28v7.2h2.33v15.14c0 5.48-2.55 10.38-6.51 13.58 1.16-1.93 1.85-4.18 1.85-6.59 0-7.06-5.75-12.81-12.81-12.81-7.07 0-12.82 5.75-12.82 12.81 0 2.41.69 4.66 1.85 6.59-3.96-3.2-6.5-8.1-6.5-13.58v-15.14h2.32v-7.2a3.5 3.5 0 0 0 2.33-3.28v-1.17h2.33v6.99c0 1.29 1.05 2.33 2.33 2.33h2.33c1.29 0 2.33-1.04 2.33-2.33v-16.3c1.29 0 2.33-1.05 2.33-2.33v-4.66c0-1.29-1.04-2.33-2.33-2.33h-6.99v-6.99h-16.3v6.99h-6.99c-1.29 0-2.33 1.04-2.33 2.33v4.66c0 1.28 1.04 2.33 2.33 2.33v16.3c0 1.29 1.04 2.33 2.33 2.33h2.33c1.28 0 2.33-1.04 2.33-2.33v-6.99h2.33v1.17a3.5 3.5 0 0 0 2.33 3.28v7.2h2.33v15.14a19.8 19.8 0 0 0 18.49 19.73c.43.05.86.07 1.31.07a11.2 11.2 0 0 0 1.3-.07 19.8 19.8 0 0 0 18.5-19.73v-15.14h2.32v-7.2a3.5 3.5 0 0 0 2.33-3.28v-1.17h2.33v6.99c0 1.29 1.05 2.33 2.33 2.33h2.33c1.29 0 2.33-1.04 2.33-2.33v-16.3c1.29 0 2.33-1.05 2.33-2.33v-4.66c0-1.29-1.04-2.33-2.33-2.33zm-53.57 27.95v-4.66h2.33v4.66h-2.33zm11.64-2.33v-9.32h2.33v9.32h-2.33zm2.33-11.65h-2.33v-4.65h2.33v4.65zm-18.63-18.63h11.64v4.66H80.15v-4.66zm-9.32 6.99h0 30.28v4.66H70.83v-4.66zm4.66 6.99v4.65h-2.33v-4.65h2.33zm-2.33 16.3v-9.32h2.33v9.32h-2.33zm4.66-9.32v-6.98h16.3v6.98h-4.66v3.5c0 .64-.52 1.16-1.16 1.16h-4.66c-.64 0-1.16-.52-1.16-1.16v-3.5h-4.66zm16.3 36.11a10.5 10.5 0 0 1 10.49-10.48 10.5 10.5 0 0 1 10.48 10.48 10.5 10.5 0 0 1-10.48 10.48 10.5 10.5 0 0 1-10.49-10.48zm23.3-57.07h11.64v4.66h-11.64v-4.66zm-4.66 13.98v4.65h-2.33v-4.65h2.33zm-2.33 16.3v-9.32h2.33v9.32h-2.33zm11.65 2.33v-4.66h2.33v4.66h-2.33zm4.65-11.65v3.5c0 .64-.52 1.16-1.16 1.16h-4.66c-.64 0-1.16-.52-1.16-1.16v-3.5h-4.66v-6.98h16.3v6.98h-4.66zm6.99 9.32v-9.32h2.33v9.32h-2.33zm2.33-11.65h-2.33v-4.65h2.33v4.65zm2.33-6.98H108.1v-4.66h0 30.28v4.66zm-20.96 4.65h11.65v2.33h-11.65z" class="D E I"/><path d="M68.5 255.91h35.22v46.96H68.5z" class="D"/><g class="H"><path d="M81.75 303.11h9.04v4.11h-9.04z" class="B"/><circle cx="107.01" cy="322.83" stroke-width="3" r="12.32" class="C"/><path d="M69.02 285.86h34.51v8.22H69.02z" class="B"/><path d="M73.33 293.66v-7.39m25.47 7.39v-7.39" class="C"/><g class="B"><path d="M74.77 299.83h23.01v4.11H74.77z"/><path d="M67.58 294.07h37.39v6.16H67.58z"/></g></g><path d="M193.29 140.02h69.84v75.67h-37.15l-24.93 14.71v-14.71h-7.76v-75.67" class="B F"/><path d="M252.82 148.24h-39.37c-1.18 0-2.14.96-2.14 2.14v18.19l-4.96 4.44a2.1 2.1 0 0 0-.71 1.62v4.16h3.7v3.43l-1.7.74c-1.24.55-2.03 1.75-2.03 3.1v16.44c0 1.86 1.51 3.34 3.34 3.34h42.61c1.87 0 3.35-1.51 3.35-3.34v-52.15c.05-1.15-.91-2.11-2.09-2.11zm-33.43 18.36h-3.75v-14h3.75v14zm6.33 0h-3.75v-14h3.75v14zm6.33 0h-3.75v-15.21h3.75v15.21zm6.33 0h-3.75v-14h3.75v14zm6.31 0h-3.76v-15.21h3.76v15.21zm6.33 0h-3.76v-14h3.76v14z" class="D E I"/><ellipse cx="271.44" cy="522.91" fill="#e0e0e0" rx="221.94" ry="1.58" class="P"/><g stroke-linecap="butt" class="B E J Q"><path d="M84.49 493.86s9.29 7.03 9.87 6.62c.57-.4-.44-2.84 0-3.27.43-.43 6.47-1.92 6.47-1.92l61.84 3.69s8.99.83 10.68.07c1.68-.76 177.98-5.84 177.98-5.84l1.99 2.15s5.15-1.62 8.31 2.44c3.16 4.07 75.7-4.48 77.22-2.44 1.54 2.04-4.08-57.03-4.08-57.03l-147.88 7.89-170.95-8.52s-37.5 27.95-31.45 56.16M238 367.9s7.3-5.92 16.14-6.74c8.85-.83 123.95-3.38 150.67.18 26.73 3.56-76.69 30.64-76.69 30.64L238 367.9"/><path d="M161.02 414.42s64.12-43.69 68.86-44.42c4.74-.72 7.11 3.47 7.11 3.47l-72.41 46.79-3.56-5.84"/><path d="M171.25 414.41s36.81-29.12 60.28-43.91l-5.54 1.2s9.27-11.19 81.45-8.9l121.26 2.77s2.88-.55 3.14 6.01c0 0-7.35 3.49-7.1 5.42.24 1.92-33.81 33.44-33.81 33.44l-143.41 8.06-76.27-4.09m282.22 54.25l.94-18.44s4.95.77 5.63 4.27 4.61 22.12 0 24.24c-4.61 2.13-.26 7.85-.26 7.85l-6.06 7.35s-6.49-21.42-.25-25.27m-380-15.52s-5.2.67-6.04 8.04c-.84 7.38-1.84 21.79 1.18 30 3.01 8.21 5.53 1.61 5.53 1.61l-.67-39.65"/><path d="M68.37 481.53c.27 4.42.03 8.05-.54 8.08s-1.26-3.53-1.53-7.95c-.28-4.43-.05-8.04.53-8.08.57-.04 1.26 3.52 1.54 7.95m374.04-78.54s2.76-1.26 3.24 0c.47 1.27-1.43 2.65-2.38 2.78-.97.13-.86-2.78-.86-2.78"/><path d="M432.02 370.12s-6.42-1.97-8.31 7.9c-1.9 9.87-1.4 35.29-1.4 35.29l13.25 19.58 13.16 3.96s-1.4-2.16-1.97-8.16c0 0-.75-.99-.75-2.96 0-1.98-3.04-18.02-1.65-18.43 0 0-4.02-20.15-12.33-37.18M88.24 425.77s-5.66 2.93-6.25 4.12c-.59 1.18-5.27 8.81-4.2 16.51 1.07 7.69 11.17 3.47 11.17 3.47l13.03-7.46 19.35-19.15s-27.78-1.68-33.1 2.51"/><path d="M430.53 374.86l3.67 7.66s-1.87 2.22-1.2 5.28c.68 3.07 4.6 21.54 5.71 23.33 1.1 1.78 4 4.76 4.08 6.04.09 1.27 1.03 10.13 1.03 10.13s-11.84-8.6-13.29-12.51c-1.44-3.92-4.42-33.03-3.4-35.76 1.02-2.72 3.4-4.17 3.4-4.17m4.84 11.83s-1 .94-.41 3.32c.6 2.39 3.75 18.89 4.85 20.09 1.11 1.19 1.54 2.21 1.79 1.62.26-.6-4.4-21.93-6.23-25.03m9.28 31.41s-1.63-10.64-.83-11.07c.79-.42 2.73 4.63 3.44 11.2.71 6.56.55 10.38-.38 10.56-.92.16-1.77-7.11-2.23-10.69M130.1 440.74c44.07 0 50.27 47.43 50.27 47.43l163.05-1.68s2.01-48.14 55.13-48.14c36.93 0 47.1 41.1 47.1 41.1l8.19-.43c-.18-.01-.3.01-.3.01-.28-.58.44-7.92.86-9.19.41-1.26.84-7.76.84-7.76s.43-2.55 0-11.17c-.42-8.61-4.52-10.88-4.94-11.44-.43-.56-2.26-3.79-2.26-3.79l-15.39-12.45c-6.51-5.37-7.07-9.32-7.78-15.26-.7-5.93-.89-31.22-.89-31.22l-23.26-1.12c1.98 2.4-9.74 21.05-12.43 25.56-2.68 4.52-9.88 4.24-9.88 4.24l-90.26 3.11-102.84 4.04s-20.06 1.33-24.86.77c-4.8-.58-31.07 3.39-51.12 6.2-20.06 2.83-25.86 8.77-25.86 8.77s-4.09 3.81 1.27-.43c5.37-4.23 25.15-4.09 27.54-3.95 2.41.14 3.67 1.97 3.67 1.97-2.95.86-19.06 13.42-23.45 16.11-4.37 2.68-8.33 3.96-11.72 3.96s-3.1-2.33-3.1-2.33c-3.68 5.29-4.81 2.99-6.64 7.8-1.85 4.8.4 33.14.4 33.14l13.09.48s1.5-44.33 45.57-44.33"/><path d="M457.06 479.28c0 4.27.84 7.73 1.86 7.73 1.03 0 1.87-3.46 1.87-7.73s-.84-7.72-1.87-7.72c-1.02 0-1.86 3.45-1.86 7.72M206.77 409.9l73.39-2.65 8.97-34.04h-49.1s-32.76 22.89-34.55 26.23 1.29 10.46 1.29 10.46"/><path d="M302.02 373.54l-4.77 32.75 71.12-2.19 1.91-18.58-5.13-10.66-63.13-1.32m68.26 1.32l12.17 27.57s.6 1.23 3.35-1.99c2.73-3.23 11.93-19.69 11.93-19.69s1.31-1.91 0-3.58-5.61-1.43-5.61-1.43l-21.84-.88m-214.22 48.06s2.33 6.04 9.44 5.82c7.1-.23 11.86-.78 11.86-.78s1.22-5.81 1.69-6.56l-22.99 1.52"/><path d="M180.51 488.26c-6.76-20.36-3.36-58.31-3.24-59.52-.03-.62-.32-8.49 7.42-16.77 7.81-8.37 53.68-41.47 54.14-41.81l.08-.06h.12l116.38 1.44c1.46-.01 36.22-.21 42.18 1.11 1.88.42 3.21 1.31 3.92 2.62 1.19 2.17.28 4.73.24 4.83l-.64-.23c.01-.02.85-2.38-.19-4.29-.62-1.13-1.79-1.9-3.47-2.27-5.9-1.31-41.68-1.11-42.05-1.11l-116.27-1.43c-2.3 1.66-46.34 33.51-53.95 41.65-7.68 8.23-7.25 16.22-7.24 16.3v.03.02c-.04.39-3.58 38.82 3.21 59.28l-.64.21"/><path d="M115.99 426.24l-.06-.67 63.09-4.5.05.67-63.08 4.5m60.02-2.35H160.6s-.34 2.66 3.24 3.69c0 0 11.47-.02 12.17-.69.71-.66 0-3 0-3m29.92-27.88l1.55-1.35h2.05s1.23.55 1.35 6.87c.13 6.32-.7 7.9-2.47 8.22-1.77.3-2.48-13.74-2.48-13.74"/><path d="M194.54 405.1s1.51 4.87 4.44 5.23a34 34 0 0 0 9.84-.72c.86-.43.85-9.08.36-10.59-.48-1.51-8.26-.36-8.26-.36l-3.23 2.07-.73 3.1s-2.36.24-2.42 1.27"/><path d="M197.5 403.61s.26.56 1.04 0c.79-.57 2.96-2.08 10.94-1.72l-.26-2.48s-13.3-1.62-11.72 4.2"/><path d="M196.53 404.07s.31-8.32 7.23-9.06l4.02-.36s1.03-.91 1.46 5.18c0 0-8.09 0-9.61.6-1.52.61-2.19 1.34-2.12 2.86.05 1.52-.98.78-.98.78m87.31 83.62c-.53-1.94-.91-13.3-1.17-20.83l-.19-5.16c-.21-4.76 1.1-36.28 2.02-41.5.86-4.83 4.07-12.71 4.31-13.28l6.64-35.79.66.13-6.65 35.84-.02.03c-.03.09-3.4 8.27-4.28 13.18-.86 4.77-2.24 35.91-2 41.36l.18 5.17c.24 7.03.64 18.81 1.14 20.67l-.64.18"/><path d="M180.38 488.12s-6.21-47.4-50.28-47.4-45.56 44.34-45.56 44.34l-13.1-.48c-3.14-.23-2.51 1.64-2.51 2.21 0 .56-.85 1.55-1.41 2.26-.58.71-1.7-.84-2.69 4.52s17.23 5.79 17.23 5.79c.43.85 2.26 1.14 2.26 1.14 7.92 1.26 10.03 0 10.03 0-10.88-15.41 5.65-55.27 38.29-50.47 41.65 6.13 38.35 48.95 38.35 48.95h184.39c-.97-2.96-1.15-7.4-.47-12.57h-11.49l-163.04 1.71"/><path d="M461.46 489.76c-.99-.99-1.42-6.08-1.42-6.08s-1.13 4.24-2.25 4.1c-1.14-.14-2.12-4.81-2.36-6.92-.17-1.56-1.12-1.82-1.6-1.84l-8.19.43s-10.15-41.15-47.08-41.15c-53.13 0-55.14 48.11-55.14 48.11h11.49c2.34-16.65 14.87-38.63 42.13-35.9 45.96 4.59 39.13 47.28 39.13 47.28s14.41-1.27 20.48-2.54c6.08-1.26 5.8-4.5 4.81-5.49"/><path d="M349.52 487.03l-.68-.04c1.77-23.64 17.66-33.86 27.16-39.96 1.39-.88 2.59-1.65 3.6-2.37 6.63-4.74 6.69-18.46 6.73-26.67l.05-3.46c.21-7.09-5.7-10.8-5.76-10.83l-.1-.07-.04-.09-13.97-31.31.61-.28 13.93 31.23c.78.52 6.21 4.39 6 11.38l-.05 3.43c-.03 8.33-.1 22.27-7.02 27.21-1.02.73-2.23 1.5-3.62 2.4-9.39 6.03-25.11 16.12-26.84 39.43m-176.18 6.77c.07 1.48 1.45 2.96 3.14 2.96h172.34c1.7 0 3.07-1.48 3.14-2.96H173.34"/><path d="M273.58 426.76c.17 2.99-1.82 5.46-4.45 5.62l-3.18.19c-2.63.16-4.9-2.05-5.09-5.04-.17-3 1.82-5.46 4.45-5.63l3.18-.18c2.63-.17 4.9 2.04 5.09 5.04"/><path d="M281.26 426.51c.03.98-.7 1.79-1.62 1.82l-23.45.74c-.93.02-1.7-.75-1.73-1.73s.69-1.8 1.62-1.83l23.45-.73c.93-.02 1.7.75 1.73 1.73m91.18-3.77c.18 2.99-1.81 5.46-4.44 5.61l-3.18.2c-2.63.15-4.91-2.05-5.09-5.05-.18-2.99 1.81-5.46 4.45-5.62l3.17-.19c2.64-.16 4.91 2.05 5.09 5.05"/><path d="M380.11 422.5c.03.98-.69 1.8-1.62 1.83l-23.45.72c-.92.03-1.69-.74-1.73-1.72-.02-.98.7-1.8 1.63-1.82l23.45-.74c.92-.03 1.69.75 1.72 1.73m-213.63 66.35a34.2 34.2 0 0 1-34.19 34.2 34.2 34.2 0 0 1-34.19-34.2 34.2 34.2 0 0 1 34.19-34.19 34.2 34.2 0 0 1 34.19 34.19"/><path d="M106.54 488.85c0 14.27 11.57 25.83 25.84 25.83a25.8 25.8 0 0 0 25.82-25.83c0-14.26-11.55-25.83-25.82-25.83s-25.84 11.57-25.84 25.83"/><path d="M123.41 471.53l5.98 6.79s1.04 1.63 2.45 1.63 2.44-1.14 2.44-1.14l6.25-7.28s.88-1.04 0-1.74c-.86-.71-3.91-1.74-8.15-1.74s-10.49 1.14-8.97 3.48m0 34.64l5.98-6.79s1.03-1.63 2.44-1.63a3.7 3.7 0 0 1 2.45 1.14l6.25 7.28s.88 1.04 0 1.74c-.87.71-3.92 1.74-8.15 1.74s-10.49-1.14-8.97-3.48m26.49-25.96l-6.79 5.98s-1.63 1.03-1.63 2.45a3.7 3.7 0 0 0 1.14 2.45l7.28 6.25s1.03.87 1.74 0c.7-.87 1.74-3.93 1.74-8.16 0-4.24-1.14-10.49-3.48-8.97m-34.63 0l6.8 5.98s1.62 1.03 1.62 2.45-1.13 2.45-1.13 2.45l-7.29 6.25s-1.03.87-1.73 0c-.72-.87-1.75-3.93-1.75-8.16 0-4.24 1.15-10.49 3.48-8.97m312.67 8.64a34.2 34.2 0 0 1-34.2 34.19 34.2 34.2 0 0 1-34.19-34.19 34.2 34.2 0 0 1 34.19-34.19 34.2 34.2 0 0 1 34.2 34.19"/><path d="M367.99 488.86c0 14.27 11.57 25.83 25.84 25.83 14.26 0 25.82-11.56 25.82-25.83 0-14.26-11.56-25.83-25.82-25.83-14.27 0-25.84 11.57-25.84 25.83"/><path d="M384.86 471.54l5.98 6.79s1.03 1.64 2.45 1.64c1.41 0 2.45-1.15 2.45-1.15l6.24-7.28s.87-1.04 0-1.75c-.86-.7-3.92-1.73-8.15-1.73-4.24 0-10.49 1.13-8.97 3.48m0 34.63l5.98-6.79s1.03-1.64 2.45-1.64c1.41 0 2.45 1.15 2.45 1.15l6.24 7.28s.87 1.03 0 1.74c-.86.71-3.92 1.74-8.15 1.74-4.24 0-10.49-1.14-8.97-3.48m26.49-25.96l-6.79 5.98s-1.63 1.04-1.63 2.45 1.14 2.44 1.14 2.44l7.28 6.25s1.04.87 1.74 0c.71-.86 1.74-3.91 1.74-8.15s-1.14-10.49-3.48-8.97m-34.63.02l6.79 5.96s1.64 1.04 1.64 2.46c0 1.41-1.15 2.44-1.15 2.44l-7.28 6.25s-1.03.88-1.73 0c-.71-.87-1.75-3.92-1.75-8.15 0-4.24 1.14-10.49 3.48-8.96"/></g><g transform="translate(172.75 296.13)"><g transform="translate(12.32)"><path d="M0 5.63v23.13" class="B C H"/><use xlink:href="#B" transform="matrix(1.25 0 0 1.25 0 0)" class="I"/></g><g transform="matrix(-1 0 0 -1 0 28.76)"><path d="M0 5.63v23.13" class="B C H"/><use xlink:href="#B" transform="matrix(1.25 0 0 1.25 0 0)" class="I"/></g></g><g transform="translate(213.83 283.81)"><path d="M6.89 0h62.95v56.91H6.89v-6.76L0 32.84l6.89-.08V0" class="F"/><g transform="matrix(0 -1 1 0 23.35 51.96)"><path d="M47.08 0H4.5" class="C H"/><use xlink:href="#B" transform="matrix(0 -1 1 0 0 0)" class="I"/></g><circle cx="15.83" cy="15.83" r="15.83" transform="matrix(0 -1 1 0 7.09 42.53)" class="D"/><g transform="matrix(0 1 -1 0 52.7 3.39)"><path d="M47.08 0H4.5" class="C H"/><use xlink:href="#B" transform="matrix(0 -1 1 0 0 0)" class="I"/></g><g class="D"><circle cx="15.83" cy="15.83" r="15.83" transform="matrix(0 1 -1 0 68.95 12.81)"/><path d="M60.58 21.4c-.77-.61-1.89-.47-2.5.29l-6.37 8.07L48.09 26c-.68-.71-1.81-.74-2.52-.05-.71.68-.74 1.82-.05 2.52l4.33 4.52c.49.56 1.19.89 1.93.89h.03c.77-.01 1.5-.37 1.99-1l7.08-8.96c.61-.79.48-1.92-.3-2.52z" class="E L"/></g><circle cx="53.03" cy="27.16" r="11.64" class="C K"/><g class="F"><circle cx="22.87" cy="27.05" fill-opacity=".7" r="11.35"/><circle cx="22.87" cy="27.05" r="11.35" class="C"/></g><g fill="#f90" class="D"><circle cx="22.86" cy="33.95" r="2.36"/><rect x="20.98" y="18.54" width="3.78" height="11.35" rx="10"/></g></g><path fill="url(#A)" d="M44.5 364.5h525v205h-525z" class="D"/><ellipse cx="606.49" cy="574.2" fill="#e0e0e0" rx="113.48" ry="5.61" class="P"/><g class="J Q"><path d="M616.95 527.91c7.66 24.7 7.66 27.34 8.01 29.85.45 3.78.22 9.15-4.47 12.58-7.66 5.84-53.76 6.07-53.76 6.07l-78.01-3.66-.11-1.95c0-.68 1.6-.57 2.4-.57l4.35-.34c19.44-1.26 58.79-2.98 63.14-4.81 6.06-2.51 9.95-6.86 8.23-17.61l-3.31-20.02 53.53.46z"/><path d="M613.52 526.65l7.66 24.71s4.23 11.09-3.43 16.81c-7.67 5.84-53.76 6.07-53.76 6.07l-75.61-3.78s61.2-5.03 67.26-7.55c6.06-2.51 9.95-6.86 8.23-17.61l-3.31-20.02 52.96 1.37z"/><path d="M716.8 257.5l-242.6 77.56c-10.3 3.31-16.25 4.11-17.28 14.87l-16.81 173.52c-1.37 13.95-1.49 13.26 11.44 12.69l252.67-11.44c17.04-.8 18.65 2.41 19.9-14.06l18.99-231.06c.23-2.97.35-5.95.69-8.92 2.74-23.45-1.83-21.28-27-13.16h0z"/><path d="M717.37 259.1l9.38-2.97 7.09-1.95c1.83-.45 5.49-1.14 7.21.12 1.26.91 1.6 3.09 1.72 4.57a36.7 36.7 0 0 1 0 4.92l-.58 6.64-.8 8.92-18.98 231.05c-.23 2.63-.46 5.61-1.03 8.12-.23 1.03-.69 2.41-1.61 3.09-1.14.92-3.31 1.03-4.68 1.03h-4.58l-6.29.12-252.68 11.43c-1.37 0-2.86.12-4.23.23-1.03 0-2.06.12-3.09 0-.57 0-2.05-.11-2.51-.57s-.46-1.94-.46-2.52l.11-3.2.46-4.57 16.82-173.52c.23-2.86 1.03-5.95 3.2-8.01 1.37-1.37 3.2-2.17 5.03-2.86 2.52-1.03 5.26-1.72 7.89-2.52l242.61-77.55h0z"/><path d="M671.05 273.98l-196.4 62.8-7.89 2.51c-1.83.69-3.66 1.49-5.03 2.86-2.17 2.06-2.86 5.04-3.2 8.01l-16.82 173.52-.46 4.58c-.11 1.02-.11 2.17-.11 3.2 0 .57 0 2.06.46 2.51.46.46 1.83.58 2.51.58h3.09c1.37 0 2.86-.12 4.23-.23l70.69-3.21 148.93-257.13z" opacity=".3" class="E"/><path d="M728.01 267.68l-261.02 78.35c-.69.23-1.15.8-1.26 1.49l-16.36 175.12c0 .57.11 1.03.46 1.37.34.35.8.58 1.37.58l257.71-13.62c.91 0 1.6-.8 1.71-1.6l19.79-239.98c0-.57-.23-1.14-.69-1.48-.57-.35-1.14-.46-1.71-.23h0z"/><path d="M728.48 269.4l-19.79 239.86-257.71 13.61 16.36-175.12 261.14-78.35z"/><g class="E"><path d="M621.18 551.35l-3.67-11.78h-54.44l.91 5.83c1.72 10.76-2.17 15.1-8.23 17.62-2.29.91-12.13 2.17-23.68 3.43h87.5c5.04-5.95 1.61-15.1 1.61-15.1z" opacity=".3"/><path d="M662.24 289.3l-194.79 58.45-16.36 175.12 78.24-4.12L662.24 289.3z" opacity=".6"/><path d="M478.08 343.29l-.34-1.14 241.12-73.32.23 1.03zm-20.47 181.99l-.11-1.15 243.18-13.15v1.14zm106.38 49.53l-68.63-4.24.11-1.14 68.63 4.23z"/></g></g><g class="B"><path d="M654.5 54.5h-305v180h216.04l55.07 35v-35h33.89v-180" class="F"/><path d="M404.24 77.05h86.85m-86.85 61h64.19" stroke="#10cba9" class="C"/></g><g class="K"><circle cx="381.59" cy="80.83" r="11.33" class="C"/><circle cx="381.59" cy="80.83" r="11.33" class="M"/></g><use xlink:href="#C" class="D E L"/><circle cx="381.4" cy="111.33" r="11.5" class="G M"/><use xlink:href="#D" class="D E N"/><g class="C"><circle cx="381.4" cy="111.33" r="11.5" class="G"/><circle cx="381.59" cy="141.83" r="11.33" class="K"/></g><circle cx="381.59" cy="141.83" r="11.33" class="K M"/><use xlink:href="#C" y="61" class="D E L"/><circle cx="381.4" cy="172.33" r="11.5" class="G M"/><use xlink:href="#D" y="61" class="D E N"/><g class="G"><circle cx="381.4" cy="172.33" r="11.5" class="C"/><circle cx="381.4" cy="203" r="11.5" class="M"/></g><use xlink:href="#D" y="91.67" class="D E N"/><g class="C G"><circle cx="381.4" cy="203" r="11.5"/><path d="M404.24 107.55h86.85m-86.85 61h86.85m-86.85 30.5h86.85" class="B"/></g><g transform="translate(514.5 64.5)"><g transform="translate(1.26 3.29)"><path d="M0 63.74V5.63" class="B C J"/><use transform="matrix(1.25 0 0 1.25 0 0)" xlink:href="#B" class="O"/></g><g transform="translate(1.26 67.03)"><path d="M0 0h103.11" class="B C J"/><use transform="matrix(0 1.25 -1.25 0 108.7375 -108.7375)" x="86.99" xlink:href="#B" class="O"/></g><g class="B K L"><circle cx="1.5" cy="1.5" r="1.5" transform="matrix(-1 0 0 -1 3 53.42)"/><circle cx="1.5" cy="1.5" r="1.5" transform="matrix(-1 0 0 -1 11.27 50.62)"/><circle cx="1.5" cy="1.5" r="1.5" transform="matrix(-1 0 0 -1 19.53 52.62)"/><circle cx="1.5" cy="1.5" r="1.5" transform="matrix(-1 0 0 -1 27.8 50.62)"/><circle cx="1.5" cy="1.5" r="1.5" transform="matrix(-1 0 0 -1 36.06 55.51)"/><circle cx="1.5" cy="1.5" r="1.5" transform="matrix(-1 0 0 -1 44.33 52.19)"/><circle cx="1.5" cy="1.5" r="1.5" transform="matrix(-1 0 0 -1 52.59 56.33)"/><circle cx="1.5" cy="1.5" r="1.5" transform="matrix(-1 0 0 -1 60.86 54.65)"/></g><g fill="#f90" class="F B"><circle cx="1.5" cy="1.5" r="1.5" transform="matrix(-1 0 0 -1 69.12 33.69)"/><circle cx="1.5" cy="1.5" r="1.5" transform="matrix(-1 0 0 -1 77.39 27.7)"/><circle cx="1.5" cy="1.5" r="1.5" transform="matrix(-1 0 0 -1 85.65 26.58)"/></g><g class="G N B"><circle cx="1.5" cy="1.5" r="1.5" transform="matrix(-1 0 0 -1 93.92 8.37)"/><circle cx="1.5" cy="1.5" r="1.5" transform="matrix(-1 0 0 -1 102.18 5.2)"/></g><path d="M2.93 51.45l5.42-1.83m2.88-.15l5.34 1.29m2.92 0l5.34-1.29m2.76.42l5.68 3.36m2.7.21l5.47-2.2m2.73.12l5.58 2.79m2.82.36l5.32-1.08" class="K L B"/><path d="M59.91 51.75l7.16-18.16m1.76-2.28l5.83-4.22M77.37 26l5.29-.72" fill="#f90" class="F B"/><path d="M84.77 23.72l7.02-15.47m2.03-1.91l5.46-2.09" class="G N B"/><g stroke-dasharray="3 4" class="C"><path d="M1.68 43.54H109" class="F"/><path d="M1.68 13.35H109" class="G"/></g></g><g transform="translate(514.5 148.82)"><g transform="translate(1.26)"><path d="M0 63.74V5.63" class="B C J"/><use xlink:href="#B" transform="matrix(1.25 0 0 1.25 0 0)" class="O"/></g><g transform="translate(1.26 63.74)"><path d="M0 0h103.11" class="B C J"/><use transform="matrix(0 1.25 -1.25 0 108.7375 -108.7375)" x="86.99" xlink:href="#B" class="O"/></g><g transform="matrix(-1 0 0 -1 102.18 51.69)" class="H B"><g class="I"><circle cx="100.68" cy="9.77" r="1.5"/><circle cx="92.42" cy="21.79" r="1.5"/><circle cx="84.15" cy="17.28" r="1.5"/><circle cx="75.89" cy="21.79" r="1.5"/><circle cx="67.62" cy="27.8" r="1.5"/><circle cx="59.36" cy="35.31" r="1.5"/><circle cx="51.09" cy="42.07" r="1.5"/><circle cx="42.83" cy="42.07" r="1.5"/><circle cx="34.56" cy="42.07" r="1.5"/><circle cx="26.3" cy="33.81" r="1.5"/><circle cx="18.03" cy="5.26" r="1.5"/><circle cx="9.77" cy="1.5" r="1.5"/><circle cx="1.5" cy="6.01" r="1.5"/></g><path d="M99.83 11.01l-6.56 9.54m-2.18.52L85.47 18m-2.64 0l-5.62 3.07m-2.54 1.6l-5.83 4.24m-2.33 1.9l-6.04 5.49m-2.27 1.97l-5.94 4.86m-2.67.95h-5.26m-3 0h-5.26m-2.57-1.06l-6.14-6.14m-1.48-2.52L18.45 6.7m-1.78-2.06l-5.53-2.51m-2.7.09L2.82 5.29" class="C"/></g><g fill="#f90" class="B F"><circle cx="1.5" cy="20.13" r="1.5"/><circle cx="9.77" cy="13.37" r="1.5"/><circle cx="18.03" cy="21.64" r="1.5"/><circle cx="26.3" cy="26.14" r="1.5"/><circle cx="34.56" cy="38.17" r="1.5"/><circle cx="42.83" cy="28.4" r="1.5"/><circle cx="51.09" cy="45.68" r="1.5"/><circle cx="59.36" cy="36.66" r="1.5"/><circle cx="67.62" cy="43.42" r="1.5"/><circle cx="75.89" cy="13.75" r="1.5"/><circle cx="84.15" cy="26.52" r="1.5"/><circle cx="92.42" cy="34.03" r="1.5"/><circle cx="100.68" cy="14.12" r="1.5"/><path d="M2.67 19.19l5.94-4.86m2.22.11l6.14 6.14m2.38 1.78l5.62 3.07m2.18 1.96l6.56 9.54m1.82.09l6.32-7.47m1.63.21l6.97 14.57m1.66.24l6.23-6.8m2.18-.15l5.94 4.86m1.57-.5l7.46-26.78m1.22-.19l6.63 10.25m1.93 2.27l6.04 5.49m1.68-.38l7.11-17.13"/></g></g></svg>